{"glyphs":{"0":{"ha":671,"x_min":0,"x_max":0,"o":"m 606 335 l 606 614 b 532 869 606 722 581 806 b 335 963 483 932 417 963 b 139 869 253 963 187 932 b 66 614 90 806 66 722 l 66 335 b 139 80 66 227 90 142 b 336 -14 188 18 254 -14 b 533 80 419 -14 484 18 b 606 335 581 142 606 227 z m 470 630 l 470 319 b 435 149 470 247 458 190 b 336 87 412 108 379 87 b 236 150 293 87 260 108 b 201 319 212 191 201 248 l 201 630 b 236 799 201 701 212 758 b 335 861 259 840 292 861 b 435 799 378 861 412 840 b 470 630 458 758 470 702 z "},"1":{"ha":671,"x_min":0,"x_max":0,"o":"m 430 0 l 430 963 l 136 929 l 136 826 l 294 836 l 294 0 z "},"2":{"ha":671,"x_min":0,"x_max":0,"o":"m 600 0 l 600 101 l 241 101 l 406 342 b 538 530 465 415 509 477 b 583 699 568 583 583 639 b 516 894 583 783 560 848 b 332 963 472 940 410 963 b 138 881 251 963 186 936 b 68 681 89 826 66 760 l 70 677 l 199 677 b 234 808 199 729 210 773 b 332 861 257 843 290 861 b 419 817 371 861 400 846 b 448 700 438 787 448 748 b 427 588 448 661 441 623 b 343 443 413 552 385 504 l 75 101 l 75 0 z "},"3":{"ha":671,"x_min":0,"x_max":0,"o":"m 335 534 l 230 534 l 230 433 l 335 433 b 437 391 380 433 414 419 b 471 260 460 363 471 320 b 432 135 471 208 458 167 b 327 87 406 103 371 87 b 231 138 288 87 256 104 b 195 263 207 171 195 213 l 65 263 l 63 259 b 139 56 61 170 87 102 b 327 -14 191 10 254 -14 b 529 59 410 -14 477 11 b 607 262 581 108 607 175 b 572 402 607 317 595 364 b 472 487 549 441 515 469 b 562 572 510 507 540 536 b 594 694 583 609 594 650 b 522 893 594 780 570 847 b 327 963 474 940 409 963 b 145 892 255 963 194 939 b 75 706 96 844 73 782 l 77 702 l 206 702 b 240 816 206 748 218 786 b 327 861 263 846 292 861 b 425 814 370 861 402 845 b 458 696 447 784 458 744 b 428 576 458 645 448 605 b 335 534 408 548 377 534 z "},"4":{"ha":671,"x_min":0,"x_max":0,"o":"m 522 305 l 522 949 l 382 949 l 52 278 l 56 203 l 387 203 l 387 0 l 522 0 l 522 203 l 628 203 l 628 305 z m 188 305 l 367 726 l 382 762 l 387 762 l 387 305 z "},"5":{"ha":671,"x_min":0,"x_max":0,"o":"m 99 422 l 216 412 b 256 484 224 443 237 467 b 340 508 274 500 302 508 b 437 452 382 508 415 489 b 471 302 459 415 471 365 b 438 143 471 233 460 180 b 341 87 417 106 385 87 b 250 130 304 87 273 102 b 215 252 227 159 215 199 l 89 250 l 87 246 b 158 53 85 162 109 98 b 341 -14 207 9 268 -14 b 541 74 430 -14 496 15 b 607 303 585 132 607 208 b 545 533 607 401 586 477 b 370 614 503 588 445 615 b 294 597 342 614 316 608 b 235 556 272 587 253 573 l 261 840 l 572 840 l 572 949 l 147 949 z "},"6":{"ha":671,"x_min":0,"x_max":0,"o":"m 375 963 b 161 867 290 963 218 931 b 75 618 104 802 75 720 l 75 326 b 154 78 75 221 102 138 b 354 -14 207 17 274 -14 b 551 72 436 -14 502 15 b 625 299 601 129 625 205 b 562 522 625 395 604 470 b 382 600 520 574 460 600 b 287 577 348 600 316 593 b 211 515 257 562 232 541 l 211 619 b 257 793 211 691 226 749 b 375 860 287 838 327 860 b 455 851 405 860 432 857 b 522 825 478 845 500 836 l 548 922 b 468 952 524 935 497 945 b 375 963 439 959 408 963 z m 349 495 b 455 446 396 495 431 479 b 490 299 478 414 490 365 b 454 146 490 237 478 186 b 354 87 430 107 397 87 b 251 151 312 87 278 109 b 211 326 224 194 211 252 l 211 413 b 264 473 223 439 241 459 b 349 495 288 488 316 495 z "},"7":{"ha":671,"x_min":0,"x_max":0,"o":"m 630 847 l 630 949 l 35 949 l 35 847 l 498 847 b 307 511 413 713 350 601 b 243 151 265 421 243 301 l 243 0 l 378 0 l 378 151 b 432 502 378 304 396 421 b 630 847 468 582 534 697 z "},"8":{"ha":671,"x_min":0,"x_max":0,"o":"m 584 704 b 515 896 584 787 561 851 b 340 963 470 941 411 963 b 157 896 265 963 204 941 b 86 704 110 851 86 787 b 123 574 86 655 98 611 b 224 492 147 537 181 510 b 106 404 174 473 135 444 b 62 263 77 364 62 317 b 140 59 62 176 88 108 b 341 -14 192 11 259 -14 b 532 59 418 -14 482 11 b 607 263 582 108 607 176 b 565 403 607 316 593 363 b 452 492 536 443 499 473 b 548 574 492 510 525 537 b 584 704 572 611 584 654 z m 471 263 b 434 135 471 210 459 167 b 341 87 410 103 379 87 b 238 135 299 87 265 103 b 198 263 211 167 198 210 b 238 391 198 316 211 358 b 340 441 265 424 299 441 b 434 391 377 441 409 424 b 471 263 459 358 471 316 z m 448 704 b 417 587 448 656 438 617 b 341 543 397 557 372 543 b 255 587 306 543 277 557 b 221 704 232 616 221 655 b 254 819 221 752 232 791 b 340 861 276 847 304 861 b 417 817 371 861 397 846 b 448 704 437 788 448 751 z "},"9":{"ha":671,"x_min":0,"x_max":0,"o":"m 309 87 b 227 96 278 87 251 90 b 155 123 203 101 179 110 l 133 27 b 219 -3 160 14 188 3 b 309 -14 249 -10 279 -14 b 519 74 394 -14 464 15 b 601 313 574 132 601 211 l 601 624 b 524 874 601 731 575 814 b 324 963 472 933 406 963 b 132 871 246 963 182 932 b 56 637 81 810 56 732 b 121 409 56 539 78 463 b 303 329 164 356 224 329 b 394 352 336 329 366 337 b 465 421 422 368 446 391 l 465 311 b 421 146 465 241 451 186 b 309 87 392 107 355 87 z m 317 428 b 223 483 275 428 244 446 b 192 637 202 520 192 571 b 229 797 192 702 204 755 b 326 861 253 839 285 861 b 427 801 368 861 401 841 b 465 631 452 761 465 704 l 465 529 b 407 456 452 500 433 475 b 317 428 382 437 352 428 z "}," ":{"ha":299,"x_min":0,"x_max":0,"o":""},"!":{"ha":314,"x_min":0,"x_max":0,"o":"m 225 317 l 225 949 l 90 949 l 90 317 z m 226 0 l 226 138 l 89 138 l 89 0 z "},"\"":{"ha":494,"x_min":0,"x_max":0,"o":"m 220 786 l 220 949 l 101 949 l 101 780 l 98 621 l 162 621 z m 406 786 l 406 949 l 287 949 l 287 784 l 284 621 l 348 621 z "},"#":{"ha":718,"x_min":0,"x_max":0,"o":"m 393 267 l 350 0 l 443 0 l 486 267 l 631 267 l 631 353 l 500 353 l 538 591 l 674 591 l 674 678 l 552 678 l 596 949 l 504 949 l 460 678 l 328 678 l 372 949 l 279 949 l 235 678 l 79 678 l 79 591 l 222 591 l 183 353 l 36 353 l 36 267 l 170 267 l 127 0 l 219 0 l 262 267 z m 276 353 l 315 591 l 446 591 l 407 353 z "},"$":{"ha":693,"x_min":0,"x_max":0,"o":"m 486 241 b 451 132 486 196 474 159 b 350 90 427 104 393 90 b 246 134 308 90 274 105 b 204 279 218 163 204 211 l 74 279 l 72 275 b 137 70 71 184 92 116 b 309 -11 182 23 239 -4 l 309 -137 l 395 -137 l 395 -11 b 561 66 465 -4 521 22 b 622 243 602 111 622 170 b 562 419 622 318 602 377 b 380 528 522 462 462 498 b 266 605 325 553 287 579 b 235 707 246 631 235 665 b 266 816 235 752 245 788 b 358 858 286 844 317 858 b 450 807 397 858 428 841 b 484 671 472 773 484 727 l 619 671 b 563 870 619 754 600 820 b 406 960 525 920 473 950 l 406 1099 l 319 1099 l 319 960 b 159 880 251 952 198 925 b 100 706 120 835 100 777 b 161 528 100 630 121 571 b 345 420 202 485 263 449 b 454 344 397 396 433 371 b 486 241 476 317 486 283 z "},"%":{"ha":907,"x_min":0,"x_max":0,"o":"m 63 767 l 63 717 b 113 577 63 661 80 615 b 247 522 146 540 190 522 b 379 577 302 522 347 540 b 429 717 412 615 429 661 l 429 767 b 379 907 429 823 412 869 b 245 963 347 944 302 963 b 112 907 189 963 145 944 b 63 767 79 869 63 823 z m 159 717 l 159 767 b 181 850 159 799 166 827 b 245 884 196 873 217 884 b 310 850 273 884 294 873 b 332 767 325 827 332 800 l 332 717 b 310 634 332 684 325 656 b 247 600 295 611 274 600 b 181 634 218 600 197 611 b 159 717 166 657 159 684 z m 485 233 l 485 182 b 534 42 485 126 501 80 b 669 -14 567 5 612 -14 b 802 42 725 -14 769 5 b 850 182 834 80 850 126 l 850 233 b 801 372 850 288 834 335 b 667 429 768 410 724 429 b 534 372 611 429 567 410 b 485 233 501 335 485 288 z m 581 182 l 581 233 b 603 316 581 266 588 293 b 667 350 618 339 639 350 b 732 316 695 350 717 339 b 755 233 747 293 755 266 l 755 182 b 733 99 755 149 748 121 b 669 65 719 76 697 65 b 604 99 641 65 620 77 b 581 182 588 122 581 150 z m 290 74 l 696 816 l 627 857 l 220 115 z "},"&":{"ha":787,"x_min":0,"x_max":0,"o":"m 43 250 b 119 59 43 171 68 107 b 325 -14 170 11 238 -14 b 444 7 367 -14 407 -7 b 550 68 481 21 517 41 l 603 0 l 762 0 l 642 153 b 709 282 672 191 694 234 b 732 440 724 330 732 383 l 616 440 b 604 338 616 404 612 370 b 571 252 596 306 585 277 l 567 250 l 371 504 l 444 562 b 525 652 480 592 507 622 b 553 762 544 683 553 720 b 495 905 553 818 533 866 b 345 963 457 944 406 963 b 180 903 275 963 220 943 b 120 733 140 864 120 807 b 142 628 120 697 127 662 b 209 514 156 594 179 556 b 84 390 154 472 112 430 b 43 250 57 350 43 303 z m 329 87 b 219 135 282 87 246 103 b 180 253 193 166 180 205 b 196 329 180 276 185 302 b 260 416 207 356 229 385 l 274 427 l 489 148 b 412 103 465 128 439 113 b 329 87 385 93 357 87 z m 248 735 b 273 824 248 770 256 800 b 342 861 289 849 312 861 b 410 830 370 861 393 851 b 435 758 426 810 435 786 b 422 695 435 735 431 714 b 376 640 414 676 398 658 l 307 589 b 263 666 288 617 273 643 b 248 735 253 690 248 713 z "},"'":{"ha":317,"x_min":0,"x_max":0,"o":"m 227 802 l 227 949 l 99 949 l 99 793 l 96 620 l 169 620 z "},"(":{"ha":401,"x_min":0,"x_max":0,"o":"m 61 422 l 61 363 b 145 -82 61 179 89 31 b 361 -302 201 -194 273 -267 l 365 -302 l 389 -234 b 236 -28 323 -191 272 -122 b 183 361 201 66 183 196 l 183 424 b 236 811 183 588 201 718 b 389 1017 272 905 323 974 l 365 1086 l 361 1087 b 145 867 273 1053 201 979 b 61 422 89 754 61 606 z "},")":{"ha":404,"x_min":0,"x_max":0,"o":"m 338 363 l 338 422 b 254 866 338 605 310 752 b 39 1087 197 979 125 1053 l 35 1087 l 9 1021 b 159 813 74 977 124 908 b 212 424 195 719 212 589 l 212 361 b 159 -28 212 196 195 66 b 9 -234 124 -122 74 -191 l 35 -302 l 39 -302 b 254 -80 125 -267 197 -194 b 338 363 310 33 338 181 z "},"*":{"ha":521,"x_min":0,"x_max":0,"o":"m 187 698 l 101 559 l 175 505 l 259 644 l 345 503 l 418 557 l 336 692 l 474 743 l 446 831 l 311 776 l 309 949 l 219 949 l 219 780 l 79 834 l 52 746 z "},"+":{"ha":686,"x_min":0,"x_max":0,"o":"m 407 505 l 407 787 l 275 787 l 275 505 l 43 505 l 43 391 l 275 391 l 275 95 l 407 95 l 407 391 l 640 391 l 640 505 z "},",":{"ha":331,"x_min":0,"x_max":0,"o":"m 229 -5 l 229 141 l 94 141 l 94 0 l 91 -177 l 172 -177 z "},"-":{"ha":519,"x_min":0,"x_max":0,"o":"m 427 418 l 427 519 l 90 519 l 90 418 z "},".":{"ha":329,"x_min":0,"x_max":0,"o":"m 227 0 l 227 132 l 90 132 l 90 0 z "},"/":{"ha":481,"x_min":0,"x_max":0,"o":"m 130 -81 l 456 949 l 330 949 l 4 -81 z "},":":{"ha":315,"x_min":0,"x_max":0,"o":"m 227 0 l 227 132 l 90 132 l 90 0 z m 227 514 l 227 646 l 90 646 l 90 514 z "},";":{"ha":311,"x_min":0,"x_max":0,"o":"m 227 514 l 227 646 l 90 646 l 90 514 z m 229 -5 l 229 141 l 94 141 l 94 0 l 90 -177 l 172 -177 z "},"<":{"ha":601,"x_min":0,"x_max":0,"o":"m 183 370 l 519 528 l 519 654 l 39 410 l 39 310 l 519 66 l 519 192 l 183 348 l 141 357 l 141 361 z "},"=":{"ha":673,"x_min":0,"x_max":0,"o":"m 580 527 l 580 632 l 84 632 l 84 527 z m 580 254 l 580 359 l 84 359 l 84 254 z "},">":{"ha":613,"x_min":0,"x_max":0,"o":"m 75 522 l 423 364 l 465 355 l 465 351 l 423 342 l 75 182 l 75 58 l 568 302 l 568 401 l 75 646 z "},"?":{"ha":589,"x_min":0,"x_max":0,"o":"m 205 266 l 341 266 b 350 354 341 304 344 334 b 392 418 356 374 370 396 b 505 553 439 462 477 507 b 548 708 534 599 548 651 b 479 895 548 787 525 849 b 286 963 433 940 368 963 b 100 899 210 963 148 942 b 31 723 52 857 29 798 l 32 719 l 161 719 b 198 821 162 763 174 797 b 286 857 222 845 251 857 b 380 818 327 857 358 844 b 412 706 401 791 412 754 b 385 596 412 664 403 627 b 306 490 367 565 341 529 b 224 391 264 449 237 416 b 205 266 212 366 206 324 z m 344 0 l 344 130 l 205 130 l 205 0 z "},"@":{"ha":1100,"x_min":0,"x_max":0,"o":"m 1040 332 b 928 768 1046 516 1009 661 b 576 927 847 874 730 927 b 208 758 425 927 302 871 b 58 312 115 645 64 496 b 173 -133 50 124 89 -24 b 531 -296 257 -241 376 -296 b 652 -280 570 -296 611 -290 b 753 -237 693 -270 727 -255 l 731 -168 b 640 -203 706 -182 676 -194 b 534 -217 604 -212 569 -217 b 245 -73 408 -217 312 -169 b 155 312 177 23 148 151 b 277 703 161 474 202 604 b 574 850 352 801 451 850 b 867 714 706 850 804 805 b 952 332 930 623 958 496 b 903 138 949 253 932 188 b 785 62 873 87 834 62 b 742 89 768 62 753 71 b 730 191 731 107 727 142 l 761 567 l 758 567 l 760 569 b 674 622 729 592 700 610 b 570 639 647 633 613 639 b 400 538 503 639 447 605 b 315 271 353 472 325 382 b 347 65 307 186 318 117 b 470 -13 376 13 417 -13 b 566 15 507 -13 539 -4 b 637 99 594 33 617 61 b 683 16 645 63 661 36 b 763 -14 705 -4 732 -14 b 966 89 852 -14 920 21 b 1040 332 1011 157 1036 238 z m 428 271 b 478 485 435 366 452 437 b 590 555 505 532 542 555 b 626 551 603 555 615 554 b 659 540 637 549 648 545 l 630 191 b 629 181 630 188 629 184 l 629 170 b 573 96 613 134 594 110 b 503 75 552 82 529 75 b 440 127 474 75 453 92 b 428 271 427 161 423 209 z "},"A":{"ha":746,"x_min":0,"x_max":0,"o":"m 519 240 l 589 0 l 730 0 l 441 949 l 310 949 l 19 0 l 159 0 l 229 240 z m 260 345 l 373 731 l 377 731 l 488 345 z "},"B":{"ha":746,"x_min":0,"x_max":0,"o":"m 87 0 l 411 0 b 622 69 501 0 571 23 b 698 269 673 115 698 181 b 653 421 698 327 683 378 b 523 500 623 465 579 491 b 618 576 564 517 595 542 b 652 694 640 610 652 649 b 573 885 652 779 626 843 b 357 949 521 928 449 949 l 87 949 z m 222 442 l 408 442 b 523 395 457 442 495 426 b 564 268 550 364 564 321 b 524 144 564 214 550 173 b 411 101 497 115 460 101 l 222 101 z m 222 539 l 222 847 l 357 847 b 475 808 409 847 448 834 b 516 691 503 783 516 743 b 477 578 516 642 503 604 b 370 539 452 552 416 539 z "},"C":{"ha":750,"x_min":0,"x_max":0,"o":"m 696 295 l 567 295 b 523 139 567 225 552 173 b 391 87 493 105 449 87 b 251 159 330 87 284 111 b 201 361 217 207 201 274 l 201 589 b 250 789 201 674 217 741 b 387 861 282 837 328 861 b 522 809 446 861 491 843 b 568 655 552 775 568 723 l 696 655 l 698 659 b 617 884 700 756 673 831 b 387 963 562 937 485 963 b 153 862 289 963 211 929 b 65 587 94 795 65 703 l 65 361 b 154 86 65 245 95 153 b 391 -14 213 20 292 -14 b 617 68 486 -14 562 14 b 698 291 673 123 700 197 z "},"D":{"ha":788,"x_min":0,"x_max":0,"o":"m 90 0 l 366 0 b 621 114 470 0 555 38 b 720 407 687 189 720 287 l 720 541 b 621 835 720 661 687 759 b 366 949 555 911 470 949 l 90 949 z m 225 847 l 366 847 b 525 761 432 847 485 818 b 585 543 565 704 585 631 l 585 407 b 525 187 585 317 565 244 b 366 101 485 130 432 101 l 225 101 z "},"E":{"ha":652,"x_min":0,"x_max":0,"o":"m 551 441 l 551 543 l 222 543 l 222 847 l 607 847 l 607 949 l 87 949 l 87 0 l 610 0 l 610 101 l 222 101 l 222 441 z "},"F":{"ha":652,"x_min":0,"x_max":0,"o":"m 562 422 l 562 523 l 223 523 l 223 847 l 621 847 l 621 949 l 88 949 l 88 0 l 223 0 l 223 422 z "},"G":{"ha":793,"x_min":0,"x_max":0,"o":"m 708 128 l 708 476 l 395 476 l 395 380 l 573 380 l 573 163 b 513 110 560 142 540 124 b 404 87 486 95 449 87 b 257 157 343 87 294 111 b 202 353 220 204 202 269 l 202 600 b 255 792 202 682 220 746 b 397 861 290 838 338 861 b 526 809 453 861 496 844 b 570 672 555 775 570 729 l 698 672 l 699 676 b 622 885 701 763 675 832 b 395 963 568 937 493 963 b 157 866 297 963 217 931 b 67 598 97 801 67 712 l 67 353 b 160 84 67 238 98 149 b 404 -14 222 19 303 -14 b 598 30 483 -14 548 1 b 708 128 649 59 685 92 z "},"H":{"ha":829,"x_min":0,"x_max":0,"o":"m 739 0 l 739 949 l 604 949 l 604 519 l 225 519 l 225 949 l 90 949 l 90 0 l 225 0 l 225 418 l 604 418 l 604 0 z "},"I":{"ha":340,"x_min":0,"x_max":0,"o":"m 238 0 l 238 949 l 102 949 l 102 0 z "},"J":{"ha":652,"x_min":0,"x_max":0,"o":"m 427 949 l 427 281 b 391 140 427 222 415 175 b 301 87 368 105 338 87 b 203 132 259 87 226 102 b 168 267 179 161 168 206 l 37 267 l 35 263 b 105 57 33 173 57 105 b 301 -14 153 10 219 -14 b 490 66 378 -14 441 13 b 563 281 538 119 563 191 l 563 949 z "},"K":{"ha":746,"x_min":0,"x_max":0,"o":"m 300 427 l 565 0 l 736 0 l 405 504 l 712 949 l 548 949 l 292 533 l 223 533 l 223 949 l 88 949 l 88 0 l 223 0 l 223 427 z "},"L":{"ha":652,"x_min":0,"x_max":0,"o":"m 224 101 l 224 949 l 90 949 l 90 0 l 616 0 l 616 101 z "},"M":{"ha":985,"x_min":0,"x_max":0,"o":"m 492 176 l 260 949 l 84 949 l 84 0 l 218 0 l 218 698 l 222 699 l 448 0 l 540 0 l 762 684 l 766 684 l 766 0 l 901 0 l 901 949 l 728 949 l 496 176 z "},"N":{"ha":829,"x_min":0,"x_max":0,"o":"m 739 0 l 739 949 l 604 949 l 604 251 l 600 250 l 225 949 l 90 949 l 90 0 l 225 0 l 225 699 l 229 699 l 604 0 z "},"O":{"ha":806,"x_min":0,"x_max":0,"o":"m 743 363 l 743 585 b 649 861 743 701 711 793 b 399 963 586 929 503 963 b 154 861 297 963 215 929 b 63 585 93 793 63 701 l 63 363 b 155 87 63 247 94 155 b 400 -14 216 20 298 -14 b 649 87 504 -14 587 20 b 743 363 711 155 743 247 z m 608 586 l 608 363 b 553 161 608 276 590 208 b 400 90 517 113 466 90 b 251 161 336 90 286 113 b 199 363 216 208 199 276 l 199 586 b 251 787 199 673 216 740 b 399 859 285 835 335 859 b 553 787 465 859 516 835 b 608 586 589 740 608 673 z "},"P":{"ha":746,"x_min":0,"x_max":0,"o":"m 222 361 l 403 361 b 619 443 495 361 567 389 b 697 655 671 497 697 568 b 618 867 697 741 671 812 b 403 949 566 922 494 949 l 87 949 l 87 0 l 222 0 z m 222 463 l 222 847 l 403 847 b 522 791 455 847 495 828 b 562 654 548 754 562 708 b 522 518 562 600 548 555 b 403 463 495 482 455 463 z "},"Q":{"ha":823,"x_min":0,"x_max":0,"o":"m 743 363 l 743 585 b 649 861 743 701 711 793 b 399 963 586 929 503 963 b 154 861 297 963 215 929 b 63 585 93 793 63 701 l 63 363 b 155 87 63 247 94 155 b 400 -14 216 20 298 -14 b 499 -1 435 -14 468 -9 b 585 35 530 7 559 19 l 703 -91 l 793 -14 l 673 117 b 725 226 695 148 713 184 b 743 363 737 268 743 314 z m 608 586 l 608 363 b 553 161 608 276 590 208 b 400 90 517 113 466 90 b 251 161 336 90 286 113 b 199 363 216 208 199 276 l 199 586 b 251 787 199 673 216 740 b 399 859 285 835 335 859 b 553 787 465 859 516 835 b 608 586 589 740 608 673 z "},"R":{"ha":750,"x_min":0,"x_max":0,"o":"m 224 409 l 397 409 b 501 362 441 409 476 393 b 538 237 526 332 538 290 l 538 156 b 545 65 538 125 541 95 b 575 0 550 36 560 14 l 715 0 l 715 15 b 684 73 700 29 689 48 b 675 155 678 98 675 125 l 675 239 b 642 380 675 295 664 342 b 534 462 620 418 584 446 b 636 549 579 483 613 512 b 672 678 660 586 672 629 b 596 879 672 765 647 832 b 380 949 545 925 474 949 l 88 949 l 88 0 l 224 0 z m 224 510 l 224 847 l 380 847 b 498 802 433 847 473 832 b 537 677 524 772 537 731 b 497 553 537 623 524 582 b 374 510 471 524 430 510 z "},"S":{"ha":739,"x_min":0,"x_max":0,"o":"m 541 246 b 500 131 541 199 527 161 b 385 87 472 102 434 87 b 256 134 333 87 290 103 b 205 278 222 165 205 213 l 75 278 l 74 274 b 164 61 72 181 102 110 b 385 -14 226 11 300 -14 b 595 58 471 -14 542 10 b 675 248 649 106 675 169 b 607 421 675 320 653 378 b 406 528 562 465 495 501 b 270 604 341 552 296 578 b 231 707 244 631 231 665 b 267 818 231 752 243 789 b 374 861 291 847 326 861 b 489 810 422 861 461 844 b 532 675 518 776 532 731 l 662 675 l 663 680 b 587 882 665 760 640 828 b 375 963 534 936 464 963 b 172 891 291 963 223 939 b 96 706 121 843 96 781 b 166 529 96 632 119 573 b 370 422 213 485 281 449 b 504 349 434 399 479 374 b 541 246 529 323 541 289 z "},"T":{"ha":692,"x_min":0,"x_max":0,"o":"m 669 847 l 669 949 l 22 949 l 22 847 l 277 847 l 277 0 l 413 0 l 413 847 z "},"U":{"ha":798,"x_min":0,"x_max":0,"o":"m 721 949 l 586 949 l 586 321 b 534 149 586 248 569 190 b 397 87 500 108 454 87 b 264 149 342 87 297 108 b 214 321 230 190 214 248 l 214 949 l 79 949 l 79 321 b 167 75 79 216 108 134 b 397 -14 226 16 303 -14 b 631 75 493 -14 571 16 b 721 321 691 134 721 216 z "},"V":{"ha":746,"x_min":0,"x_max":0,"o":"m 356 219 l 155 949 l 11 949 l 307 0 l 438 0 l 734 949 l 590 949 l 388 218 l 374 161 l 370 161 z "},"W":{"ha":1028,"x_min":0,"x_max":0,"o":"m 736 276 l 573 949 l 454 949 l 292 277 l 288 277 l 162 949 l 20 949 l 218 0 l 345 0 l 512 662 l 516 662 l 683 0 l 809 0 l 1008 949 l 867 949 l 741 276 z "},"X":{"ha":746,"x_min":0,"x_max":0,"o":"m 370 579 l 195 949 l 36 949 l 292 479 l 30 0 l 190 0 l 372 378 l 376 378 l 559 0 l 718 0 l 454 479 l 712 949 l 551 949 l 374 579 z "},"Y":{"ha":746,"x_min":0,"x_max":0,"o":"m 370 486 l 167 949 l 16 949 l 302 351 l 302 0 l 438 0 l 438 343 l 727 949 l 576 949 l 374 486 z "},"Z":{"ha":664,"x_min":0,"x_max":0,"o":"m 195 101 l 604 870 l 604 949 l 54 949 l 54 847 l 456 847 l 51 82 l 51 0 l 616 0 l 616 101 z "},"[":{"ha":333,"x_min":0,"x_max":0,"o":"m 321 990 l 321 1090 l 83 1090 l 83 -208 l 321 -208 l 321 -108 l 220 -108 l 220 990 z "},"\\":{"ha":492,"x_min":0,"x_max":0,"o":"m 15 949 l 362 -81 l 494 -81 l 146 949 z "},"]":{"ha":333,"x_min":0,"x_max":0,"o":"m 8 1090 l 8 990 l 111 990 l 111 -108 l 8 -108 l 8 -208 l 247 -208 l 247 1090 z "},"^":{"ha":506,"x_min":0,"x_max":0,"o":"m 148 475 l 242 764 l 250 798 l 254 798 l 261 764 l 358 475 l 472 475 l 301 949 l 205 949 l 33 475 z "},"_":{"ha":666,"x_min":0,"x_max":0,"o":"m 597 -100 l 597 0 l 73 0 l 73 -100 z "},"`":{"ha":393,"x_min":0,"x_max":0,"o":"m 317 817 l 203 990 l 46 990 l 45 987 l 199 817 z "},"a":{"ha":632,"x_min":0,"x_max":0,"o":"m 437 0 l 576 0 b 559 76 569 25 563 50 b 554 154 556 101 554 127 l 554 481 b 489 657 554 558 532 617 b 317 719 446 698 389 719 b 138 656 243 719 183 698 b 74 511 93 614 71 565 l 75 507 l 205 507 b 232 588 205 540 214 567 b 309 619 251 609 276 619 b 391 583 345 619 372 607 b 418 483 409 559 418 526 l 418 410 l 313 410 b 115 353 228 410 162 391 b 45 195 68 315 45 262 b 96 42 45 131 62 80 b 243 -14 131 5 180 -14 b 347 20 283 -14 317 -2 b 419 104 377 42 401 70 b 425 53 420 87 422 70 b 437 0 428 36 432 18 z m 272 89 b 204 118 243 89 220 99 b 180 195 188 137 180 163 b 214 289 180 232 191 264 b 311 327 237 314 269 327 l 418 327 l 418 199 b 365 121 409 169 392 143 b 272 89 338 100 307 89 z "},"b":{"ha":667,"x_min":0,"x_max":0,"o":"m 616 331 l 616 345 b 554 617 616 458 596 549 b 375 719 512 685 452 719 b 280 695 339 719 307 711 b 211 628 253 680 230 657 l 211 1017 l 76 1017 l 76 0 l 187 0 l 201 88 b 274 12 221 55 245 29 b 376 -14 303 -5 337 -14 b 554 80 453 -14 512 18 b 616 331 596 142 616 226 z m 481 345 l 481 331 b 448 154 481 256 470 197 b 342 90 426 111 391 90 b 261 114 310 90 283 98 b 211 184 240 131 223 154 l 211 514 b 261 587 223 545 240 569 b 341 614 283 605 309 614 b 447 541 389 614 425 590 b 481 345 470 491 481 426 z "},"c":{"ha":623,"x_min":0,"x_max":0,"o":"m 328 87 b 219 159 278 87 242 111 b 184 340 196 207 184 267 l 184 365 b 219 544 184 436 196 496 b 327 616 242 592 278 616 b 413 572 362 616 391 602 b 446 458 435 543 446 505 l 568 458 l 570 463 b 504 647 572 538 550 599 b 327 719 458 695 399 719 b 122 618 240 719 171 685 b 49 365 73 551 49 467 l 49 340 b 122 86 49 238 73 153 b 328 -14 171 20 240 -14 b 500 55 394 -14 452 9 b 570 222 548 101 571 157 l 568 227 l 446 227 b 412 125 446 184 435 150 b 328 87 389 100 361 87 z "},"d":{"ha":667,"x_min":0,"x_max":0,"o":"m 50 345 l 50 331 b 114 80 50 227 71 143 b 290 -14 156 18 215 -14 b 389 12 328 -14 361 -5 b 462 84 418 28 442 52 l 476 0 l 588 0 l 588 1017 l 452 1017 l 452 632 b 383 696 432 660 409 682 b 292 719 356 711 326 719 b 114 616 215 719 156 685 b 50 345 71 548 50 458 z m 186 331 l 186 345 b 220 539 186 425 197 490 b 326 614 242 589 278 614 b 401 589 354 614 380 606 b 452 521 422 572 439 549 l 452 178 b 401 113 439 150 422 128 b 324 90 380 97 354 90 b 219 155 277 90 242 111 b 186 331 197 198 186 257 z "},"e":{"ha":618,"x_min":0,"x_max":0,"o":"m 342 -14 b 468 8 389 -14 431 -6 b 552 59 504 23 532 40 l 518 145 b 443 103 493 127 468 113 b 351 87 417 93 386 87 b 224 156 293 87 251 110 b 183 334 197 201 183 261 l 573 334 l 573 412 b 509 637 573 507 552 583 b 326 719 466 692 405 719 b 125 619 243 719 176 686 b 48 364 74 553 48 468 l 48 334 b 126 83 48 231 74 147 b 342 -14 178 19 250 -14 z m 326 616 b 412 569 365 616 393 601 b 439 442 430 538 439 496 l 439 426 l 186 426 b 231 564 192 483 207 529 b 326 616 255 599 286 616 z "},"f":{"ha":401,"x_min":0,"x_max":0,"o":"m 115 0 l 250 0 l 250 610 l 379 610 l 379 705 l 250 705 l 250 797 b 274 893 250 838 258 870 b 342 926 289 915 312 926 b 373 924 354 926 364 926 b 399 920 383 923 391 921 l 413 1017 b 368 1027 397 1021 382 1025 b 326 1031 354 1030 340 1031 b 171 970 260 1031 208 1010 b 115 797 134 929 115 871 l 115 705 l 20 705 l 20 610 l 115 610 z "},"g":{"ha":667,"x_min":0,"x_max":0,"o":"m 54 345 l 54 331 b 117 80 54 227 75 143 b 294 -14 159 18 218 -14 b 386 7 328 -14 359 -7 b 456 70 413 21 437 42 l 456 -1 b 420 -134 456 -60 444 -104 b 308 -178 396 -163 359 -178 b 219 -166 277 -178 247 -174 b 140 -134 190 -158 164 -148 l 117 -234 b 212 -271 145 -249 177 -262 b 309 -285 246 -280 279 -285 b 517 -211 399 -285 468 -260 b 591 -1 567 -162 591 -92 l 591 705 l 478 705 l 466 617 b 394 692 446 650 422 675 b 295 719 365 710 333 719 b 117 616 219 719 159 685 b 54 345 75 548 54 458 z m 189 331 l 189 345 b 223 539 189 425 200 490 b 329 614 246 589 281 614 b 405 589 359 614 384 606 b 456 520 426 572 443 549 l 456 178 b 406 113 444 150 427 128 b 328 90 384 97 358 90 b 222 155 280 90 244 111 b 189 331 200 198 189 257 z "},"h":{"ha":667,"x_min":0,"x_max":0,"o":"m 209 610 l 209 1017 l 74 1017 l 74 0 l 209 0 l 209 530 b 263 592 222 557 240 577 b 343 614 285 607 312 614 b 429 572 381 614 410 600 b 457 433 448 544 457 498 l 457 0 l 593 0 l 593 432 b 538 649 593 530 574 602 b 385 719 501 695 450 719 b 284 690 347 719 314 709 b 209 610 254 671 229 645 z "},"i":{"ha":307,"x_min":0,"x_max":0,"o":"m 221 0 l 221 705 l 86 705 l 86 0 z m 221 890 l 221 1017 l 86 1017 l 86 890 z "},"j":{"ha":309,"x_min":0,"x_max":0,"o":"m 226 705 l 91 705 l 91 -48 b 70 -148 91 -93 84 -126 b 12 -180 55 -170 36 -180 b -14 -178 4 -180 -5 -180 b -39 -172 -24 -176 -32 -175 l -47 -273 b -11 -282 -34 -277 -22 -280 b 24 -285 0 -284 12 -285 b 172 -223 87 -285 137 -264 b 226 -48 208 -182 226 -124 z m 222 893 l 222 1017 l 87 1017 l 87 893 z "},"k":{"ha":616,"x_min":0,"x_max":0,"o":"m 271 323 l 456 0 l 614 0 l 379 385 l 590 705 l 431 705 l 269 425 l 212 425 l 212 1017 l 77 1017 l 77 0 l 212 0 l 212 323 z "},"l":{"ha":307,"x_min":0,"x_max":0,"o":"m 221 0 l 221 1017 l 86 1017 l 86 0 z "},"m":{"ha":1048,"x_min":0,"x_max":0,"o":"m 199 705 l 76 705 l 76 0 l 211 0 l 211 525 b 261 591 223 553 240 575 b 338 614 282 607 308 614 b 426 569 377 614 406 599 b 456 417 446 539 456 488 l 456 0 l 592 0 l 592 442 b 591 466 592 450 592 458 l 590 490 b 637 581 600 528 616 558 b 720 615 659 604 687 615 b 807 571 758 615 787 600 b 837 418 827 542 837 491 l 837 0 l 972 0 l 972 416 b 917 644 972 518 954 594 b 766 719 880 694 830 719 b 650 684 721 719 683 707 b 572 586 617 660 591 628 b 504 686 557 630 534 663 b 395 719 474 708 437 719 b 285 690 353 719 316 709 b 207 607 253 670 227 643 z "},"n":{"ha":667,"x_min":0,"x_max":0,"o":"m 199 705 l 75 705 l 75 0 l 211 0 l 211 526 b 264 591 224 554 242 575 b 344 614 287 607 313 614 b 430 574 382 614 411 601 b 458 433 448 547 458 500 l 458 0 l 593 0 l 593 435 b 540 650 593 532 576 604 b 390 719 504 696 454 719 b 284 688 351 719 315 708 b 208 600 254 667 228 638 z "},"o":{"ha":667,"x_min":0,"x_max":0,"o":"m 48 361 l 48 343 b 124 86 48 238 73 153 b 333 -14 175 20 244 -14 b 541 86 421 -14 490 20 b 616 343 591 153 616 238 l 616 361 b 541 618 616 466 591 552 b 332 719 490 685 420 719 b 124 618 244 719 175 685 b 48 361 73 552 48 466 z m 184 343 l 184 361 b 221 544 184 434 196 495 b 332 616 245 592 282 616 b 444 544 381 616 419 592 b 481 361 469 496 481 434 l 481 343 b 444 159 481 269 469 207 b 333 87 419 111 382 87 b 221 159 283 87 245 111 b 184 343 196 207 184 268 z "},"p":{"ha":667,"x_min":0,"x_max":0,"o":"m 616 331 l 616 345 b 552 616 616 458 595 548 b 374 719 510 685 450 719 b 275 693 336 719 303 710 b 203 621 246 676 222 652 l 191 705 l 76 705 l 76 -271 l 211 -271 l 211 69 b 281 7 230 42 254 21 b 376 -14 308 -7 340 -14 b 552 80 451 -14 510 18 b 616 331 595 143 616 227 z m 480 345 l 480 331 b 445 154 480 257 469 198 b 339 87 422 110 387 87 b 261 110 308 87 282 95 b 211 172 240 124 223 145 l 211 523 b 261 590 223 551 240 574 b 338 614 282 606 307 614 b 445 539 385 614 421 589 b 480 345 468 489 480 424 z "},"q":{"ha":667,"x_min":0,"x_max":0,"o":"m 50 345 l 50 331 b 114 80 50 227 71 143 b 290 -14 156 18 215 -14 b 380 6 324 -14 354 -7 b 449 64 407 19 430 39 l 449 -271 l 585 -271 l 585 705 l 473 705 l 459 624 b 388 694 439 655 415 678 b 292 719 360 711 328 719 b 114 616 215 719 156 685 b 50 345 71 548 50 458 z m 186 331 l 186 345 b 220 541 186 425 197 490 b 326 616 243 591 278 616 b 398 594 354 616 378 609 b 449 531 419 579 436 558 l 449 169 b 398 109 436 143 419 123 b 324 87 378 95 353 87 b 219 154 277 87 242 110 b 186 331 197 198 186 257 z "},"r":{"ha":415,"x_min":0,"x_max":0,"o":"m 384 594 l 399 711 b 379 716 393 713 386 715 b 356 719 372 718 365 719 b 269 686 323 719 294 708 b 208 596 243 665 223 635 l 200 705 l 76 705 l 76 0 l 211 0 l 211 501 b 254 572 221 531 235 555 b 325 597 273 589 297 597 z "},"s":{"ha":600,"x_min":0,"x_max":0,"o":"m 421 178 b 391 110 421 150 411 127 b 307 83 371 92 343 83 b 215 113 270 83 240 93 b 176 212 191 134 177 166 l 51 212 l 49 208 b 115 53 47 149 68 97 b 304 -14 161 9 224 -14 b 486 42 379 -14 439 5 b 555 184 532 79 555 126 b 498 314 555 236 536 280 b 328 404 460 348 403 378 b 221 464 273 429 237 448 b 196 527 204 479 196 500 b 225 593 196 552 206 574 b 306 622 245 612 271 622 b 388 585 340 622 367 610 b 418 499 408 561 418 532 l 548 499 l 549 503 b 484 656 551 563 529 614 b 306 719 439 698 380 719 b 131 661 234 719 176 700 b 64 522 87 623 64 576 b 120 398 64 472 83 430 b 287 309 157 366 213 336 b 393 247 339 286 375 265 b 421 178 412 228 421 205 z "},"t":{"ha":412,"x_min":0,"x_max":0,"o":"m 243 881 l 109 881 l 109 705 l 18 705 l 18 610 l 109 610 l 109 215 b 153 42 109 137 124 79 b 277 -14 183 5 224 -14 b 336 -7 297 -14 316 -11 b 388 9 356 -3 373 3 l 368 100 b 337 92 358 97 348 94 b 306 90 327 90 317 90 b 260 115 286 90 271 98 b 243 200 249 131 243 160 l 243 610 l 378 610 l 378 705 l 243 705 z "},"u":{"ha":667,"x_min":0,"x_max":0,"o":"m 460 101 l 467 0 l 591 0 l 591 705 l 456 705 l 456 182 b 401 114 443 153 425 130 b 316 90 378 98 350 90 b 235 135 280 90 253 105 b 208 293 217 165 208 217 l 208 705 l 73 705 l 73 294 b 129 61 73 189 91 111 b 283 -14 166 11 217 -14 b 387 16 322 -14 357 -4 b 460 101 416 36 441 64 z "},"v":{"ha":597,"x_min":0,"x_max":0,"o":"m 288 212 l 161 705 l 20 705 l 241 0 l 361 0 l 580 705 l 440 705 l 315 212 l 303 156 l 299 156 z "},"w":{"ha":879,"x_min":0,"x_max":0,"o":"m 616 236 l 484 705 l 391 705 l 261 242 l 257 242 l 162 705 l 25 705 l 193 0 l 304 0 l 435 444 l 439 444 l 571 0 l 683 0 l 850 705 l 713 705 l 621 237 z "},"x":{"ha":597,"x_min":0,"x_max":0,"o":"m 295 449 l 181 705 l 27 705 l 222 357 l 21 0 l 176 0 l 296 265 l 300 265 l 422 0 l 576 0 l 375 357 l 570 705 l 415 705 l 299 449 z "},"y":{"ha":597,"x_min":0,"x_max":0,"o":"m 281 243 l 159 705 l 12 705 l 239 4 l 214 -68 b 178 -146 205 -98 193 -124 b 115 -179 162 -168 141 -179 b 96 -178 110 -179 104 -179 b 74 -175 88 -177 81 -176 l 59 -273 b 96 -281 71 -276 84 -279 b 133 -285 109 -284 121 -285 b 259 -233 188 -285 230 -268 b 328 -109 288 -199 312 -158 l 585 705 l 437 705 l 295 195 l 291 195 z "},"z":{"ha":597,"x_min":0,"x_max":0,"o":"m 203 101 l 538 623 l 538 705 l 58 705 l 58 603 l 383 603 l 51 84 l 51 0 l 553 0 l 553 101 z "},"{":{"ha":396,"x_min":0,"x_max":0,"o":"m 350 -246 l 377 -172 b 296 -90 339 -156 312 -128 b 273 56 281 -51 273 -2 l 273 194 b 245 315 273 240 264 280 b 165 397 227 351 201 378 b 246 477 201 415 228 442 b 273 598 264 512 273 552 l 273 738 b 297 884 273 796 281 844 b 377 966 313 924 340 951 l 350 1042 b 193 927 276 1018 224 980 b 146 738 161 875 146 812 l 146 598 b 118 485 146 549 137 511 b 35 444 100 458 72 444 l 35 349 b 118 308 72 349 100 335 b 146 194 137 281 146 243 l 146 56 b 193 -133 146 -18 161 -81 b 350 -246 224 -184 276 -222 z "},"|":{"ha":295,"x_min":0,"x_max":0,"o":"m 203 -176 l 203 949 l 86 949 l 86 -176 z "},"}":{"ha":396,"x_min":0,"x_max":0,"o":"m 18 -172 l 45 -246 b 202 -133 118 -222 170 -184 b 249 56 233 -81 249 -18 l 249 194 b 276 308 249 243 258 281 b 361 349 294 335 322 349 l 361 444 b 276 485 322 444 294 458 b 249 598 258 511 249 549 l 249 738 b 202 927 249 812 233 875 b 45 1042 170 980 118 1018 l 18 966 b 98 884 55 951 82 924 b 123 738 115 844 123 796 l 123 598 b 150 475 123 551 132 510 b 235 396 169 440 197 414 b 150 316 197 378 169 351 b 123 194 132 281 123 241 l 123 56 b 98 -89 123 -2 115 -50 b 18 -172 82 -128 55 -156 z "},"~":{"ha":783,"x_min":0,"x_max":0,"o":"m 712 486 l 616 499 b 591 406 616 463 608 432 b 532 368 575 381 555 368 b 480 383 514 368 496 373 b 425 431 463 393 445 409 b 335 500 394 462 364 485 b 244 524 307 516 276 524 b 119 460 193 524 151 502 b 71 304 87 417 71 365 l 166 290 b 190 382 166 327 174 357 b 248 418 206 406 225 418 b 300 403 266 418 284 413 b 357 355 317 392 336 376 b 446 284 389 323 418 299 b 537 262 474 270 504 262 b 662 328 587 262 629 284 b 712 486 695 372 712 425 z "}," ":{"ha":299,"x_min":0,"x_max":0,"o":""},"¡":{"ha":314,"x_min":0,"x_max":0,"o":"m 208 389 l 208 -244 l 72 -244 l 72 389 z m 208 705 l 208 567 l 71 567 l 71 705 z "},"¢":{"ha":663,"x_min":0,"x_max":0,"o":"m 328 87 b 219 159 278 87 242 111 b 184 340 196 207 184 267 l 184 365 b 219 544 184 436 196 496 b 327 616 242 592 278 616 b 413 572 362 616 391 602 b 446 458 435 543 446 505 l 574 458 b 524 622 574 523 557 577 b 393 711 491 667 448 697 l 393 859 l 286 859 l 286 715 b 111 601 211 704 153 666 b 49 365 70 536 49 458 l 49 340 b 111 103 49 246 70 167 b 286 -10 152 38 210 1 l 286 -160 l 393 -160 l 393 -5 b 523 79 445 9 488 37 b 574 227 557 122 574 171 l 446 227 b 412 125 446 184 435 150 b 328 87 389 100 361 87 z "},"£":{"ha":693,"x_min":0,"x_max":0,"o":"m 281 402 l 500 402 l 500 504 l 277 504 l 271 675 b 300 812 271 734 281 780 b 380 861 319 844 346 861 b 460 823 412 861 439 848 b 491 705 481 798 491 759 l 621 705 l 623 709 b 561 893 625 786 604 847 b 380 963 518 940 458 963 b 202 886 306 963 247 937 b 136 675 158 835 136 765 l 142 504 l 49 504 l 49 402 l 144 402 l 148 309 b 134 175 148 262 143 218 b 92 101 124 131 110 107 l 85 101 l 85 0 l 647 0 l 648 101 l 222 101 b 268 196 242 128 257 159 b 284 311 279 233 284 271 z "},"¤":{"ha":867,"x_min":0,"x_max":0,"o":"m 655 73 l 736 -18 l 815 60 l 726 159 b 774 271 747 193 762 230 b 791 397 785 311 791 353 b 772 527 791 442 785 486 b 721 642 760 569 743 607 l 815 746 l 736 825 l 648 726 b 548 784 617 751 584 771 b 435 805 512 798 475 805 b 322 784 396 805 358 798 b 223 726 287 771 253 751 l 136 824 l 58 746 l 150 644 b 98 528 127 609 110 570 b 79 397 85 486 79 442 b 96 269 79 352 85 309 b 145 157 108 228 124 191 l 58 60 l 136 -17 l 216 73 b 318 9 247 45 281 24 b 435 -13 356 -6 395 -13 b 553 9 476 -13 515 -5 b 655 73 590 24 624 46 z m 181 397 b 255 613 181 481 206 553 b 435 703 305 673 365 703 b 614 614 505 703 565 673 b 688 397 664 554 688 482 b 614 178 688 311 664 238 b 435 87 565 118 505 87 b 255 178 365 87 305 118 b 181 397 206 238 181 311 z "},"¥":{"ha":718,"x_min":0,"x_max":0,"o":"m 355 536 l 170 949 l 18 949 l 256 473 l 81 473 l 81 393 l 288 393 l 288 284 l 81 284 l 81 205 l 288 205 l 288 0 l 422 0 l 422 205 l 627 205 l 627 284 l 422 284 l 422 393 l 627 393 l 627 473 l 458 473 l 696 949 l 545 949 l 359 536 z "},"¦":{"ha":292,"x_min":0,"x_max":0,"o":"m 81 -176 l 208 -176 l 208 335 l 81 335 z m 208 455 l 208 949 l 81 949 l 81 455 z "},"§":{"ha":732,"x_min":0,"x_max":0,"o":"m 667 290 b 602 458 667 364 645 420 b 395 559 558 497 489 531 b 248 629 321 584 272 607 b 212 725 224 650 212 682 b 251 823 212 765 225 797 b 366 861 276 848 314 861 b 478 810 413 861 451 844 b 519 683 505 776 519 734 l 649 683 l 650 687 b 577 890 652 774 628 842 b 366 963 526 939 456 963 b 156 897 278 963 208 941 b 77 724 103 853 77 795 b 100 611 77 679 85 642 b 167 532 115 580 137 554 b 85 461 131 515 104 491 b 57 356 66 431 57 396 b 123 184 57 281 79 224 b 328 84 167 145 235 111 b 473 13 399 58 447 35 b 511 -78 499 -9 511 -39 b 471 -176 511 -118 498 -150 b 359 -214 444 -201 407 -214 b 239 -171 312 -214 272 -199 b 190 -35 206 -143 190 -98 l 60 -37 l 59 -41 b 143 -249 57 -136 85 -205 b 359 -315 201 -293 273 -315 b 569 -252 447 -315 517 -294 b 646 -77 620 -210 646 -151 b 623 35 646 -33 639 4 b 555 113 608 65 585 91 b 637 184 590 130 618 154 b 667 290 657 214 667 249 z m 345 454 b 493 379 417 428 466 402 b 532 283 519 355 532 323 b 512 210 532 255 526 231 b 456 163 499 189 480 173 l 417 178 l 377 191 b 228 263 302 217 252 241 b 193 362 204 285 193 318 b 210 436 193 391 198 415 b 263 482 221 457 239 473 b 301 468 275 477 287 472 b 345 454 314 463 329 459 z "},"¨":{"ha":646,"x_min":0,"x_max":0,"o":"m 542 829 l 542 949 l 397 949 l 397 829 z m 241 829 l 241 949 l 96 949 l 96 829 z "},"©":{"ha":968,"x_min":0,"x_max":0,"o":"m 666 389 l 585 389 b 557 290 585 343 575 310 b 473 259 538 269 510 259 b 384 308 434 259 405 275 b 353 436 363 340 353 383 l 353 515 b 384 641 353 567 363 609 b 473 690 405 674 434 690 b 557 659 510 690 538 679 b 585 562 576 638 585 605 l 667 562 l 669 566 b 618 714 670 630 653 680 b 473 766 584 749 535 766 b 323 696 411 766 360 743 b 267 514 286 650 267 589 l 267 436 b 323 253 267 360 286 299 b 473 184 360 207 410 184 b 618 235 535 184 584 201 b 668 385 653 269 669 319 z m 125 475 b 229 771 125 592 160 690 b 481 891 298 851 382 891 b 733 771 579 891 663 851 b 837 475 802 690 837 592 b 733 178 837 358 802 259 b 481 57 663 97 579 57 b 229 178 382 57 298 97 b 125 475 160 259 125 358 z m 57 475 b 180 128 57 338 98 222 b 481 -14 263 34 363 -14 b 781 128 598 -14 699 34 b 905 475 864 222 905 338 b 781 822 905 612 864 728 b 481 962 699 915 598 962 b 180 822 363 962 263 915 b 57 475 98 728 57 612 z "},"ª":{"ha":526,"x_min":0,"x_max":0,"o":"m 353 460 l 449 460 b 437 516 444 479 440 497 b 434 578 435 536 434 556 l 434 783 b 390 917 434 842 419 886 b 269 963 360 948 320 963 b 141 921 216 963 174 949 b 96 814 109 892 94 857 l 98 810 l 186 803 b 208 860 186 827 194 846 b 269 880 223 873 243 880 b 321 855 292 880 310 871 b 339 784 333 838 339 815 l 339 747 l 257 747 b 118 709 196 747 150 734 b 70 600 86 683 70 647 b 107 491 70 554 82 518 b 212 451 132 464 167 451 b 289 472 242 451 268 458 b 340 526 311 485 328 503 b 345 491 341 514 343 502 b 353 460 347 480 349 470 z m 235 532 b 182 550 212 532 194 538 b 165 602 171 562 165 580 b 189 657 165 623 173 642 b 258 680 205 673 228 680 l 339 680 l 339 602 b 298 553 333 584 319 568 b 235 532 276 539 256 532 z "},"«":{"ha":573,"x_min":0,"x_max":0,"o":"m 132 329 l 268 463 l 268 582 l 264 583 l 47 356 l 47 258 l 264 32 l 268 33 l 268 152 l 132 282 l 97 306 z m 355 329 l 491 463 l 491 582 l 487 583 l 270 356 l 270 258 l 487 32 l 491 33 l 491 152 l 355 282 l 320 306 z "},"¬":{"ha":652,"x_min":0,"x_max":0,"o":"m 551 247 l 551 517 l 75 517 l 75 423 l 442 423 l 442 247 z "},"­":{"ha":519,"x_min":0,"x_max":0,"o":"m 427 418 l 427 519 l 90 519 l 90 418 z "},"®":{"ha":969,"x_min":0,"x_max":0,"o":"m 56 475 b 180 128 56 338 98 222 b 481 -14 263 34 363 -14 b 781 128 598 -14 698 34 b 905 475 863 222 905 338 b 781 822 905 612 863 728 b 481 962 698 915 598 962 b 180 822 362 962 262 915 b 56 475 97 728 56 612 z m 125 475 b 229 771 125 592 159 690 b 481 891 298 851 382 891 b 732 771 579 891 663 851 b 836 475 801 690 836 592 b 732 178 836 358 801 259 b 481 57 663 97 579 57 b 229 178 382 57 298 97 b 125 475 159 259 125 358 z m 393 431 l 490 431 b 558 408 522 431 545 423 b 578 335 572 392 578 368 l 578 300 b 580 246 578 281 579 263 b 587 206 581 229 583 216 l 673 206 l 673 216 b 665 251 669 225 666 237 b 663 299 663 264 663 281 l 663 336 b 645 419 663 368 657 396 b 588 471 633 443 614 460 b 646 522 613 485 633 502 b 665 593 659 543 665 566 b 614 718 665 648 648 689 b 474 760 581 746 534 760 l 309 760 l 309 206 l 393 206 z m 393 506 l 393 684 l 474 684 b 558 663 514 684 542 677 b 582 591 574 649 582 625 b 553 529 582 565 572 544 b 481 506 534 514 510 506 z "},"¯":{"ha":587,"x_min":0,"x_max":0,"o":"m 514 863 l 514 956 l 74 956 l 74 863 z "},"°":{"ha":472,"x_min":0,"x_max":0,"o":"m 81 793 b 126 674 81 746 96 706 b 237 625 157 641 194 625 b 347 674 280 625 316 641 b 392 793 377 706 392 746 b 346 912 392 839 377 879 b 237 963 316 946 279 963 b 126 912 194 963 157 946 b 81 793 96 879 81 839 z m 159 793 b 181 858 159 819 166 840 b 237 884 197 876 215 884 b 291 858 259 884 277 876 b 313 793 306 840 313 819 b 291 729 313 767 306 746 b 237 703 277 712 259 703 b 181 729 215 703 197 712 b 159 793 166 746 159 767 z "},"±":{"ha":661,"x_min":0,"x_max":0,"o":"m 397 568 l 397 833 l 275 833 l 275 568 l 58 568 l 58 465 l 275 465 l 275 196 l 397 196 l 397 465 l 605 465 l 605 568 z m 548 3 l 548 105 l 71 105 l 71 3 z "},"²":{"ha":497,"x_min":0,"x_max":0,"o":"m 415 435 l 415 514 l 206 514 l 205 517 l 287 611 b 381 714 330 653 362 687 b 411 806 401 741 411 772 b 367 923 411 857 396 895 b 244 964 338 951 297 964 b 114 918 190 964 146 949 b 68 806 81 886 66 849 l 69 802 l 169 802 b 188 861 169 826 175 845 b 243 884 201 876 219 884 b 290 862 264 884 280 877 b 306 807 301 848 306 830 b 294 753 306 788 302 769 b 245 688 286 736 270 715 l 70 514 l 70 435 z "},"³":{"ha":498,"x_min":0,"x_max":0,"o":"m 240 736 l 170 736 l 170 663 l 240 663 b 302 643 267 663 288 656 b 323 581 316 629 323 609 b 300 526 323 558 315 540 b 241 506 286 513 266 506 b 184 527 217 506 198 513 b 163 581 170 540 163 558 l 64 581 l 62 576 b 111 465 60 528 76 491 b 241 427 146 439 189 427 b 377 467 298 427 343 440 b 428 578 411 493 428 531 b 406 655 428 609 421 634 b 342 701 391 676 370 691 b 399 748 366 713 385 728 b 420 815 413 768 420 791 b 371 925 420 863 404 899 b 239 964 339 951 294 964 b 115 924 189 964 148 951 b 70 822 82 898 67 864 l 71 818 l 170 818 b 189 865 170 837 177 853 b 240 883 202 877 219 883 b 296 863 264 883 283 876 b 315 811 308 849 315 832 b 296 756 315 787 309 769 b 240 736 284 743 265 736 z "},"´":{"ha":408,"x_min":0,"x_max":0,"o":"m 192 990 l 75 817 l 189 817 l 350 986 l 348 990 z "},"µ":{"ha":699,"x_min":0,"x_max":0,"o":"m 222 705 l 86 705 l 86 -271 l 222 -271 l 222 28 b 273 -3 237 14 254 3 b 337 -14 292 -10 314 -14 b 417 5 367 -14 393 -7 b 477 59 440 17 460 35 l 482 0 l 606 0 l 606 705 l 470 705 l 470 181 b 420 112 458 151 442 128 b 337 88 399 96 371 88 b 251 132 300 88 271 103 b 222 297 232 162 222 217 z "},"¶":{"ha":599,"x_min":0,"x_max":0,"o":"m 370 0 l 505 0 l 505 949 l 320 949 b 113 864 231 949 163 921 b 39 644 64 808 39 734 b 113 424 39 553 64 480 b 320 339 163 367 231 339 l 370 339 z "},"·":{"ha":335,"x_min":0,"x_max":0,"o":"m 232 395 l 232 535 l 94 535 l 94 395 z "},"¸":{"ha":307,"x_min":0,"x_max":0,"o":"m 182 1 l 83 1 l 64 -86 b 133 -103 97 -89 119 -94 b 153 -148 146 -112 153 -127 b 130 -198 153 -170 145 -187 b 72 -215 115 -209 96 -215 l 76 -288 b 215 -251 136 -288 182 -276 b 264 -149 248 -225 264 -191 b 239 -69 264 -113 255 -87 b 176 -36 222 -52 201 -40 z "},"¹":{"ha":326,"x_min":0,"x_max":0,"o":"m 231 433 l 231 963 l 52 948 l 52 865 l 125 867 l 125 433 z "},"º":{"ha":539,"x_min":0,"x_max":0,"o":"m 72 745 l 72 669 b 125 511 72 604 90 551 b 269 450 161 471 208 450 b 411 511 328 450 376 470 b 464 669 446 551 464 604 l 464 745 b 411 902 464 809 446 862 b 267 963 375 943 327 963 b 125 902 208 963 160 943 b 72 745 90 861 72 809 z m 167 669 l 167 745 b 192 842 167 784 175 817 b 267 880 209 867 234 880 b 343 842 300 880 326 867 b 370 745 361 817 370 784 l 370 669 b 343 569 370 628 361 594 b 269 532 326 544 301 532 b 193 569 235 532 210 544 b 167 669 175 594 167 627 z "},"»":{"ha":573,"x_min":0,"x_max":0,"o":"m 98 482 l 234 352 l 270 328 l 234 304 l 98 172 l 98 53 l 102 52 l 319 278 l 319 376 l 102 603 l 98 602 z m 328 482 l 464 352 l 500 328 l 464 304 l 328 172 l 328 53 l 332 52 l 549 278 l 549 376 l 332 603 l 328 602 z "},"¼":{"ha":836,"x_min":0,"x_max":0,"o":"m 290 433 l 290 962 l 111 947 l 111 865 l 184 867 l 184 433 z m 283 79 l 690 821 l 621 862 l 214 120 z m 865 180 l 865 522 l 759 522 l 516 163 l 522 100 l 759 100 l 759 0 l 865 0 l 865 100 l 931 100 l 931 180 z m 626 180 l 747 378 l 755 390 l 759 389 l 759 180 z "},"½":{"ha":928,"x_min":0,"x_max":0,"o":"m 292 79 l 699 821 l 629 862 l 222 120 z m 290 433 l 290 962 l 111 947 l 111 865 l 184 867 l 184 433 z m 954 0 l 954 79 l 745 79 l 744 83 l 826 176 b 921 279 869 218 901 252 b 950 372 940 307 950 337 b 906 488 950 422 935 461 b 783 530 877 516 836 530 b 653 483 729 530 686 514 b 607 371 620 452 605 414 l 608 367 l 708 367 b 727 426 708 391 714 411 b 782 449 740 441 758 449 b 829 428 803 449 819 442 b 845 372 840 413 845 395 b 833 318 845 353 841 335 b 785 254 825 301 809 280 l 609 79 l 609 0 z "},"¾":{"ha":1001,"x_min":0,"x_max":0,"o":"m 405 79 l 812 821 l 743 862 l 336 120 z m 984 180 l 984 522 l 878 522 l 635 163 l 642 100 l 878 100 l 878 0 l 984 0 l 984 100 l 1050 100 l 1050 180 z m 745 180 l 867 378 l 874 390 l 878 389 l 878 180 z m 251 737 l 181 737 l 181 663 l 251 663 b 313 643 278 663 299 657 b 334 582 327 630 334 609 b 311 527 334 559 326 541 b 252 507 296 513 276 507 b 195 527 228 507 209 513 b 174 581 181 541 174 559 l 75 581 l 73 577 b 122 466 71 529 87 492 b 252 427 157 440 200 427 b 388 467 309 427 354 441 b 439 579 422 494 439 531 b 417 656 439 609 431 635 b 353 702 402 677 381 692 b 410 749 377 713 396 729 b 431 816 424 769 431 791 b 382 926 431 863 415 900 b 250 964 349 951 305 964 b 126 925 200 964 159 951 b 81 823 93 899 78 865 l 82 819 l 181 819 b 200 866 181 838 187 854 b 251 884 213 878 230 884 b 307 863 275 884 294 877 b 326 812 319 850 326 833 b 307 756 326 788 319 769 b 251 737 295 744 276 737 z "},"¿":{"ha":589,"x_min":0,"x_max":0,"o":"m 461 440 l 326 440 b 317 352 326 402 323 372 b 275 288 311 332 297 310 b 161 153 228 244 190 199 b 119 -2 133 107 119 55 b 188 -189 119 -81 142 -143 b 380 -257 234 -234 298 -257 b 566 -193 456 -257 518 -236 b 636 -17 614 -151 637 -92 l 635 -13 l 505 -13 b 469 -115 505 -57 493 -91 b 380 -151 445 -139 415 -151 b 287 -112 340 -151 309 -138 b 254 0 265 -85 254 -48 b 281 110 254 42 263 79 b 361 216 300 141 326 177 b 442 315 403 257 430 290 b 461 440 454 340 461 382 z m 323 706 l 323 576 l 462 576 l 462 706 z "},"À":{"ha":746,"x_min":0,"x_max":0,"o":"m 519 240 l 589 0 l 730 0 l 441 949 l 310 949 l 19 0 l 159 0 l 229 240 z m 260 345 l 373 731 l 377 731 l 488 345 z m 437 1044 l 323 1217 l 167 1217 l 165 1214 l 320 1044 z "},"Á":{"ha":746,"x_min":0,"x_max":0,"o":"m 519 240 l 589 0 l 730 0 l 441 949 l 310 949 l 19 0 l 159 0 l 229 240 z m 260 345 l 373 731 l 377 731 l 488 345 z m 424 1216 l 307 1042 l 420 1042 l 582 1212 l 580 1216 z "},"Â":{"ha":746,"x_min":0,"x_max":0,"o":"m 519 240 l 589 0 l 730 0 l 441 949 l 310 949 l 19 0 l 159 0 l 229 240 z m 260 345 l 373 731 l 377 731 l 488 345 z m 593 1047 l 426 1208 l 320 1208 l 152 1047 l 153 1043 l 271 1043 l 373 1151 l 474 1043 l 592 1043 z "},"Ã":{"ha":746,"x_min":0,"x_max":0,"o":"m 519 240 l 589 0 l 730 0 l 441 949 l 310 949 l 19 0 l 159 0 l 229 240 z m 260 345 l 373 731 l 377 731 l 488 345 z m 578 1198 l 505 1219 b 489 1164 505 1197 500 1179 b 451 1143 478 1150 465 1143 b 369 1175 431 1143 403 1153 b 286 1206 335 1196 307 1206 b 201 1164 252 1206 223 1192 b 168 1063 179 1136 168 1102 l 241 1044 b 257 1098 241 1066 247 1083 b 295 1120 267 1112 280 1120 b 372 1088 314 1120 340 1109 b 460 1056 403 1067 433 1056 b 545 1097 494 1056 522 1070 b 578 1198 567 1124 578 1158 z "},"Ä":{"ha":746,"x_min":0,"x_max":0,"o":"m 519 240 l 589 0 l 730 0 l 441 949 l 310 949 l 19 0 l 159 0 l 229 240 z m 260 345 l 373 731 l 377 731 l 488 345 z m 596 1044 l 596 1164 l 452 1164 l 452 1044 z m 295 1044 l 295 1164 l 150 1164 l 150 1044 z "},"Å":{"ha":746,"x_min":0,"x_max":0,"o":"m 519 240 l 589 0 l 730 0 l 441 949 l 310 949 l 19 0 l 159 0 l 229 240 z m 260 345 l 373 731 l 377 731 l 488 345 z m 262 1133 b 294 1056 262 1102 273 1076 b 373 1026 315 1036 342 1026 b 451 1056 404 1026 430 1036 b 484 1133 473 1076 484 1102 b 451 1211 484 1164 473 1190 b 373 1243 430 1232 404 1243 b 294 1211 342 1243 315 1232 b 262 1133 273 1190 262 1164 z m 323 1133 b 338 1171 323 1148 328 1161 b 373 1186 347 1181 359 1186 b 408 1171 387 1186 398 1181 b 422 1133 417 1161 422 1148 b 408 1097 422 1118 417 1106 b 373 1082 398 1087 387 1082 b 338 1097 359 1082 347 1087 b 323 1133 328 1106 323 1118 z "},"Æ":{"ha":1126,"x_min":0,"x_max":0,"o":"m 1082 0 l 1082 102 l 707 102 l 694 441 l 1001 441 l 1001 543 l 691 543 l 680 847 l 1048 847 l 1048 949 l 487 949 l 12 0 l 172 0 l 283 235 l 566 235 l 575 0 z m 336 347 l 542 783 l 545 781 l 562 347 z "},"Ç":{"ha":750,"x_min":0,"x_max":0,"o":"m 696 295 l 567 295 b 523 139 567 225 552 173 b 391 87 493 105 449 87 b 251 159 330 87 284 111 b 201 361 217 207 201 274 l 201 589 b 250 789 201 674 217 741 b 387 861 282 837 328 861 b 522 809 446 861 491 843 b 568 655 552 775 568 723 l 696 655 l 698 659 b 617 884 700 756 673 831 b 387 963 562 937 485 963 b 153 862 289 963 211 929 b 65 587 94 795 65 703 l 65 361 b 154 86 65 245 95 153 b 391 -14 213 20 292 -14 b 617 68 486 -14 562 14 b 698 291 673 123 700 197 z m 439 -3 l 340 -3 l 321 -90 b 390 -107 354 -93 376 -99 b 410 -152 403 -116 410 -131 b 387 -202 410 -175 402 -191 b 329 -219 372 -214 353 -219 l 333 -292 b 472 -255 393 -292 439 -280 b 521 -153 505 -230 521 -196 b 496 -73 521 -117 512 -91 b 433 -40 479 -56 458 -45 z "},"È":{"ha":652,"x_min":0,"x_max":0,"o":"m 551 441 l 551 543 l 222 543 l 222 847 l 607 847 l 607 949 l 87 949 l 87 0 l 610 0 l 610 101 l 222 101 l 222 441 z m 412 1044 l 298 1217 l 141 1217 l 140 1214 l 294 1044 z "},"É":{"ha":652,"x_min":0,"x_max":0,"o":"m 551 441 l 551 543 l 222 543 l 222 847 l 607 847 l 607 949 l 87 949 l 87 0 l 610 0 l 610 101 l 222 101 l 222 441 z m 398 1216 l 281 1042 l 395 1042 l 556 1212 l 554 1216 z "},"Ê":{"ha":652,"x_min":0,"x_max":0,"o":"m 551 441 l 551 543 l 222 543 l 222 847 l 607 847 l 607 949 l 87 949 l 87 0 l 610 0 l 610 101 l 222 101 l 222 441 z m 568 1047 l 400 1208 l 294 1208 l 126 1047 l 127 1043 l 245 1043 l 347 1151 l 448 1043 l 566 1043 z "},"Ë":{"ha":652,"x_min":0,"x_max":0,"o":"m 551 441 l 551 543 l 222 543 l 222 847 l 607 847 l 607 949 l 87 949 l 87 0 l 610 0 l 610 101 l 222 101 l 222 441 z m 570 1044 l 570 1164 l 426 1164 l 426 1044 z m 269 1044 l 269 1164 l 124 1164 l 124 1044 z "},"Ì":{"ha":340,"x_min":0,"x_max":0,"o":"m 238 0 l 238 949 l 102 949 l 102 0 z m 235 1044 l 121 1217 l -36 1217 l -37 1214 l 117 1044 z "},"Í":{"ha":340,"x_min":0,"x_max":0,"o":"m 238 0 l 238 949 l 102 949 l 102 0 z m 220 1216 l 104 1042 l 217 1042 l 378 1212 l 376 1216 z "},"Î":{"ha":340,"x_min":0,"x_max":0,"o":"m 238 0 l 238 949 l 102 949 l 102 0 z m 391 1047 l 223 1208 l 117 1208 l -51 1047 l -50 1043 l 68 1043 l 170 1151 l 271 1043 l 389 1043 z "},"Ï":{"ha":340,"x_min":0,"x_max":0,"o":"m 238 0 l 238 949 l 102 949 l 102 0 z m 393 1044 l 393 1164 l 249 1164 l 249 1044 z m 92 1044 l 92 1164 l -53 1164 l -53 1044 z "},"Ð":{"ha":788,"x_min":0,"x_max":0,"o":"m 90 0 l 366 0 b 621 114 470 0 555 38 b 720 407 687 189 720 287 l 720 541 b 621 835 720 661 687 759 b 366 949 555 911 470 949 l 90 949 l 90 531 l 14 531 l 14 438 l 90 438 z m 410 438 l 410 531 l 225 531 l 225 847 l 366 847 b 525 761 432 847 485 818 b 585 543 565 704 585 631 l 585 407 b 525 187 585 317 565 244 b 366 101 485 130 432 101 l 225 101 l 225 438 z "},"Ñ":{"ha":829,"x_min":0,"x_max":0,"o":"m 739 0 l 739 949 l 604 949 l 604 251 l 600 250 l 225 949 l 90 949 l 90 0 l 225 0 l 225 699 l 229 699 l 604 0 z m 619 1198 l 546 1219 b 530 1164 546 1197 541 1179 b 492 1143 519 1150 506 1143 b 410 1175 471 1143 444 1153 b 327 1206 376 1196 348 1206 b 242 1164 293 1206 264 1192 b 208 1063 219 1136 208 1102 l 282 1044 b 297 1098 282 1066 287 1083 b 336 1120 308 1112 320 1120 b 412 1088 355 1120 381 1109 b 500 1056 444 1067 473 1056 b 585 1097 534 1056 563 1070 b 619 1198 608 1124 619 1158 z "},"Ò":{"ha":806,"x_min":0,"x_max":0,"o":"m 743 363 l 743 585 b 649 861 743 701 711 793 b 399 963 586 929 503 963 b 154 861 297 963 215 929 b 63 585 93 793 63 701 l 63 363 b 155 87 63 247 94 155 b 400 -14 216 20 298 -14 b 649 87 504 -14 587 20 b 743 363 711 155 743 247 z m 608 586 l 608 363 b 553 161 608 276 590 208 b 400 90 517 113 466 90 b 251 161 336 90 286 113 b 199 363 216 208 199 276 l 199 586 b 251 787 199 673 216 740 b 399 859 285 835 335 859 b 553 787 465 859 516 835 b 608 586 589 740 608 673 z m 467 1057 l 353 1231 l 197 1231 l 195 1227 l 350 1057 z "},"Ó":{"ha":806,"x_min":0,"x_max":0,"o":"m 743 363 l 743 585 b 649 861 743 701 711 793 b 399 963 586 929 503 963 b 154 861 297 963 215 929 b 63 585 93 793 63 701 l 63 363 b 155 87 63 247 94 155 b 400 -14 216 20 298 -14 b 649 87 504 -14 587 20 b 743 363 711 155 743 247 z m 608 586 l 608 363 b 553 161 608 276 590 208 b 400 90 517 113 466 90 b 251 161 336 90 286 113 b 199 363 216 208 199 276 l 199 586 b 251 787 199 673 216 740 b 399 859 285 835 335 859 b 553 787 465 859 516 835 b 608 586 589 740 608 673 z m 454 1230 l 337 1056 l 450 1056 l 612 1225 l 610 1230 z "},"Ô":{"ha":806,"x_min":0,"x_max":0,"o":"m 743 363 l 743 585 b 649 861 743 701 711 793 b 399 963 586 929 503 963 b 154 861 297 963 215 929 b 63 585 93 793 63 701 l 63 363 b 155 87 63 247 94 155 b 400 -14 216 20 298 -14 b 649 87 504 -14 587 20 b 743 363 711 155 743 247 z m 608 586 l 608 363 b 553 161 608 276 590 208 b 400 90 517 113 466 90 b 251 161 336 90 286 113 b 199 363 216 208 199 276 l 199 586 b 251 787 199 673 216 740 b 399 859 285 835 335 859 b 553 787 465 859 516 835 b 608 586 589 740 608 673 z m 623 1061 l 456 1221 l 350 1221 l 182 1061 l 183 1057 l 300 1057 l 403 1164 l 504 1057 l 622 1057 z "},"Õ":{"ha":806,"x_min":0,"x_max":0,"o":"m 743 363 l 743 585 b 649 861 743 701 711 793 b 399 963 586 929 503 963 b 154 861 297 963 215 929 b 63 585 93 793 63 701 l 63 363 b 155 87 63 247 94 155 b 400 -14 216 20 298 -14 b 649 87 504 -14 587 20 b 743 363 711 155 743 247 z m 608 586 l 608 363 b 553 161 608 276 590 208 b 400 90 517 113 466 90 b 251 161 336 90 286 113 b 199 363 216 208 199 276 l 199 586 b 251 787 199 673 216 740 b 399 859 285 835 335 859 b 553 787 465 859 516 835 b 608 586 589 740 608 673 z m 608 1212 l 535 1232 b 519 1178 535 1211 530 1192 b 481 1156 508 1164 495 1156 b 399 1188 460 1156 433 1167 b 316 1220 365 1209 337 1220 b 231 1178 282 1220 253 1206 b 197 1076 209 1149 197 1116 l 271 1058 b 287 1112 271 1079 276 1097 b 325 1133 297 1126 309 1133 b 401 1101 344 1133 370 1123 b 490 1069 433 1080 463 1069 b 574 1111 524 1069 552 1083 b 608 1212 597 1138 608 1172 z "},"Ö":{"ha":806,"x_min":0,"x_max":0,"o":"m 743 363 l 743 585 b 649 861 743 701 711 793 b 399 963 586 929 503 963 b 154 861 297 963 215 929 b 63 585 93 793 63 701 l 63 363 b 155 87 63 247 94 155 b 400 -14 216 20 298 -14 b 649 87 504 -14 587 20 b 743 363 711 155 743 247 z m 608 586 l 608 363 b 553 161 608 276 590 208 b 400 90 517 113 466 90 b 251 161 336 90 286 113 b 199 363 216 208 199 276 l 199 586 b 251 787 199 673 216 740 b 399 859 285 835 335 859 b 553 787 465 859 516 835 b 608 586 589 740 608 673 z m 626 1058 l 626 1178 l 481 1178 l 481 1058 z m 325 1058 l 325 1178 l 180 1178 l 180 1058 z "},"×":{"ha":655,"x_min":0,"x_max":0,"o":"m 49 224 l 132 146 l 323 359 l 516 146 l 600 224 l 401 445 l 598 664 l 515 742 l 324 530 l 134 742 l 50 664 l 248 444 z "},"Ø":{"ha":802,"x_min":0,"x_max":0,"o":"m 739 363 l 739 585 b 716 736 739 640 732 691 b 651 854 701 782 680 821 l 720 987 l 640 987 l 596 904 b 504 948 569 923 538 938 b 395 963 470 958 434 963 b 151 861 293 963 212 929 b 60 585 90 793 60 701 l 60 363 b 87 197 60 302 69 246 b 165 74 105 148 131 107 l 96 -59 l 176 -59 l 222 30 b 303 -3 247 15 274 5 b 397 -14 332 -10 363 -14 b 646 87 500 -14 583 20 b 739 363 708 155 739 247 z m 195 363 l 195 586 b 247 787 195 673 213 740 b 395 859 282 835 331 859 b 477 843 426 859 453 853 b 541 798 502 833 523 817 l 230 200 l 226 201 b 203 271 216 220 208 243 b 195 363 198 298 195 329 z m 604 586 l 604 363 b 550 161 604 276 586 208 b 397 90 514 113 463 90 b 330 100 372 90 350 93 b 275 131 309 106 291 117 l 581 718 l 584 717 b 599 659 590 701 595 681 b 604 586 602 636 604 612 z "},"Ù":{"ha":798,"x_min":0,"x_max":0,"o":"m 721 949 l 586 949 l 586 321 b 534 149 586 248 569 190 b 397 87 500 108 454 87 b 264 149 342 87 297 108 b 214 321 230 190 214 248 l 214 949 l 79 949 l 79 321 b 167 75 79 216 108 134 b 397 -14 226 16 303 -14 b 631 75 493 -14 571 16 b 721 321 691 134 721 216 z m 465 1044 l 351 1217 l 194 1217 l 193 1214 l 347 1044 z "},"Ú":{"ha":798,"x_min":0,"x_max":0,"o":"m 721 949 l 586 949 l 586 321 b 534 149 586 248 569 190 b 397 87 500 108 454 87 b 264 149 342 87 297 108 b 214 321 230 190 214 248 l 214 949 l 79 949 l 79 321 b 167 75 79 216 108 134 b 397 -14 226 16 303 -14 b 631 75 493 -14 571 16 b 721 321 691 134 721 216 z m 451 1216 l 334 1042 l 448 1042 l 609 1212 l 607 1216 z "},"Û":{"ha":798,"x_min":0,"x_max":0,"o":"m 721 949 l 586 949 l 586 321 b 534 149 586 248 569 190 b 397 87 500 108 454 87 b 264 149 342 87 297 108 b 214 321 230 190 214 248 l 214 949 l 79 949 l 79 321 b 167 75 79 216 108 134 b 397 -14 226 16 303 -14 b 631 75 493 -14 571 16 b 721 321 691 134 721 216 z m 621 1047 l 453 1208 l 347 1208 l 179 1047 l 180 1043 l 298 1043 l 400 1151 l 501 1043 l 619 1043 z "},"Ü":{"ha":798,"x_min":0,"x_max":0,"o":"m 721 949 l 586 949 l 586 321 b 534 149 586 248 569 190 b 397 87 500 108 454 87 b 264 149 342 87 297 108 b 214 321 230 190 214 248 l 214 949 l 79 949 l 79 321 b 167 75 79 216 108 134 b 397 -14 226 16 303 -14 b 631 75 493 -14 571 16 b 721 321 691 134 721 216 z m 623 1044 l 623 1164 l 479 1164 l 479 1044 z m 322 1044 l 322 1164 l 177 1164 l 177 1044 z "},"Ý":{"ha":746,"x_min":0,"x_max":0,"o":"m 370 486 l 167 949 l 16 949 l 302 351 l 302 0 l 438 0 l 438 343 l 727 949 l 576 949 l 374 486 z m 425 1216 l 308 1042 l 421 1042 l 583 1212 l 581 1216 z "},"Þ":{"ha":707,"x_min":0,"x_max":0,"o":"m 222 949 l 87 949 l 87 0 l 222 0 l 222 202 l 367 202 b 583 279 459 202 531 228 b 660 481 634 330 660 398 b 583 682 660 564 634 631 b 367 760 531 734 459 760 l 222 760 z m 222 659 l 367 659 b 485 607 419 659 459 641 b 524 480 511 572 524 530 b 485 354 524 430 511 388 b 367 303 459 320 419 303 l 222 303 z "},"ß":{"ha":709,"x_min":0,"x_max":0,"o":"m 216 0 l 216 718 b 250 856 216 777 228 823 b 339 905 272 888 302 905 b 422 865 369 905 397 891 b 460 774 447 839 460 808 b 416 668 441 739 426 704 b 401 557 406 633 401 596 b 466 376 401 510 423 450 b 530 217 509 303 530 250 b 504 123 530 178 522 146 b 427 87 487 99 461 87 b 360 101 404 87 382 92 b 307 133 338 111 320 121 l 269 41 b 342 2 283 25 308 12 b 442 -14 376 -8 409 -14 b 606 43 511 -14 565 5 b 666 209 646 80 666 136 b 601 395 666 260 644 321 b 536 555 558 468 536 522 b 550 652 536 587 541 619 b 593 758 559 685 573 720 b 518 941 593 836 568 897 b 333 1006 469 984 407 1006 b 148 932 253 1006 192 982 b 81 719 103 882 81 811 l 81 0 z "},"à":{"ha":632,"x_min":0,"x_max":0,"o":"m 437 0 l 576 0 b 559 76 569 25 563 50 b 554 154 556 101 554 127 l 554 481 b 489 657 554 558 532 617 b 317 719 446 698 389 719 b 138 656 243 719 183 698 b 74 511 93 614 71 565 l 75 507 l 205 507 b 232 588 205 540 214 567 b 309 619 251 609 276 619 b 391 583 345 619 372 607 b 418 483 409 559 418 526 l 418 410 l 313 410 b 115 353 228 410 162 391 b 45 195 68 315 45 262 b 96 42 45 131 62 80 b 243 -14 131 5 180 -14 b 347 20 283 -14 317 -2 b 419 104 377 42 401 70 b 425 53 420 87 422 70 b 437 0 428 36 432 18 z m 272 89 b 204 118 243 89 220 99 b 180 195 188 137 180 163 b 214 289 180 232 191 264 b 311 327 237 314 269 327 l 418 327 l 418 199 b 365 121 409 169 392 143 b 272 89 338 100 307 89 z m 374 833 l 260 1007 l 103 1007 l 102 1004 l 256 833 z "},"á":{"ha":632,"x_min":0,"x_max":0,"o":"m 437 0 l 576 0 b 559 76 569 25 563 50 b 554 154 556 101 554 127 l 554 481 b 489 657 554 558 532 617 b 317 719 446 698 389 719 b 138 656 243 719 183 698 b 74 511 93 614 71 565 l 75 507 l 205 507 b 232 588 205 540 214 567 b 309 619 251 609 276 619 b 391 583 345 619 372 607 b 418 483 409 559 418 526 l 418 410 l 313 410 b 115 353 228 410 162 391 b 45 195 68 315 45 262 b 96 42 45 131 62 80 b 243 -14 131 5 180 -14 b 347 20 283 -14 317 -2 b 419 104 377 42 401 70 b 425 53 420 87 422 70 b 437 0 428 36 432 18 z m 272 89 b 204 118 243 89 220 99 b 180 195 188 137 180 163 b 214 289 180 232 191 264 b 311 327 237 314 269 327 l 418 327 l 418 199 b 365 121 409 169 392 143 b 272 89 338 100 307 89 z m 360 1006 l 243 832 l 357 832 l 518 1002 l 516 1006 z "},"â":{"ha":632,"x_min":0,"x_max":0,"o":"m 437 0 l 576 0 b 559 76 569 25 563 50 b 554 154 556 101 554 127 l 554 481 b 489 657 554 558 532 617 b 317 719 446 698 389 719 b 138 656 243 719 183 698 b 74 511 93 614 71 565 l 75 507 l 205 507 b 232 588 205 540 214 567 b 309 619 251 609 276 619 b 391 583 345 619 372 607 b 418 483 409 559 418 526 l 418 410 l 313 410 b 115 353 228 410 162 391 b 45 195 68 315 45 262 b 96 42 45 131 62 80 b 243 -14 131 5 180 -14 b 347 20 283 -14 317 -2 b 419 104 377 42 401 70 b 425 53 420 87 422 70 b 437 0 428 36 432 18 z m 272 89 b 204 118 243 89 220 99 b 180 195 188 137 180 163 b 214 289 180 232 191 264 b 311 327 237 314 269 327 l 418 327 l 418 199 b 365 121 409 169 392 143 b 272 89 338 100 307 89 z m 530 837 l 362 998 l 256 998 l 88 837 l 90 833 l 207 833 l 309 941 l 410 833 l 528 833 z "},"ã":{"ha":632,"x_min":0,"x_max":0,"o":"m 437 0 l 576 0 b 559 76 569 25 563 50 b 554 154 556 101 554 127 l 554 481 b 489 657 554 558 532 617 b 317 719 446 698 389 719 b 138 656 243 719 183 698 b 74 511 93 614 71 565 l 75 507 l 205 507 b 232 588 205 540 214 567 b 309 619 251 609 276 619 b 391 583 345 619 372 607 b 418 483 409 559 418 526 l 418 410 l 313 410 b 115 353 228 410 162 391 b 45 195 68 315 45 262 b 96 42 45 131 62 80 b 243 -14 131 5 180 -14 b 347 20 283 -14 317 -2 b 419 104 377 42 401 70 b 425 53 420 87 422 70 b 437 0 428 36 432 18 z m 272 89 b 204 118 243 89 220 99 b 180 195 188 137 180 163 b 214 289 180 232 191 264 b 311 327 237 314 269 327 l 418 327 l 418 199 b 365 121 409 169 392 143 b 272 89 338 100 307 89 z m 515 988 l 441 1008 b 425 954 441 987 436 969 b 387 932 414 940 402 932 b 306 964 367 932 340 943 b 222 996 271 986 244 996 b 137 954 188 996 160 982 b 104 852 115 926 104 892 l 178 834 b 193 888 178 855 183 873 b 231 909 203 902 216 909 b 308 878 251 909 276 899 b 396 846 340 856 369 846 b 481 887 430 846 458 859 b 515 988 503 914 515 948 z "},"ä":{"ha":632,"x_min":0,"x_max":0,"o":"m 437 0 l 576 0 b 559 76 569 25 563 50 b 554 154 556 101 554 127 l 554 481 b 489 657 554 558 532 617 b 317 719 446 698 389 719 b 138 656 243 719 183 698 b 74 511 93 614 71 565 l 75 507 l 205 507 b 232 588 205 540 214 567 b 309 619 251 609 276 619 b 391 583 345 619 372 607 b 418 483 409 559 418 526 l 418 410 l 313 410 b 115 353 228 410 162 391 b 45 195 68 315 45 262 b 96 42 45 131 62 80 b 243 -14 131 5 180 -14 b 347 20 283 -14 317 -2 b 419 104 377 42 401 70 b 425 53 420 87 422 70 b 437 0 428 36 432 18 z m 272 89 b 204 118 243 89 220 99 b 180 195 188 137 180 163 b 214 289 180 232 191 264 b 311 327 237 314 269 327 l 418 327 l 418 199 b 365 121 409 169 392 143 b 272 89 338 100 307 89 z m 533 834 l 533 954 l 389 954 l 389 834 z m 232 834 l 232 954 l 87 954 l 87 834 z "},"å":{"ha":632,"x_min":0,"x_max":0,"o":"m 437 0 l 576 0 b 559 76 569 25 563 50 b 554 154 556 101 554 127 l 554 481 b 489 657 554 558 532 617 b 317 719 446 698 389 719 b 138 656 243 719 183 698 b 74 511 93 614 71 565 l 75 507 l 205 507 b 232 588 205 540 214 567 b 309 619 251 609 276 619 b 391 583 345 619 372 607 b 418 483 409 559 418 526 l 418 410 l 313 410 b 115 353 228 410 162 391 b 45 195 68 315 45 262 b 96 42 45 131 62 80 b 243 -14 131 5 180 -14 b 347 20 283 -14 317 -2 b 419 104 377 42 401 70 b 425 53 420 87 422 70 b 437 0 428 36 432 18 z m 272 89 b 204 118 243 89 220 99 b 180 195 188 137 180 163 b 214 289 180 232 191 264 b 311 327 237 314 269 327 l 418 327 l 418 199 b 365 121 409 169 392 143 b 272 89 338 100 307 89 z m 198 923 b 230 846 198 892 209 866 b 309 816 252 826 278 816 b 388 846 340 816 366 826 b 420 923 409 866 420 892 b 388 1001 420 954 409 980 b 309 1033 366 1022 340 1033 b 230 1001 278 1033 252 1022 b 198 923 209 980 198 954 z m 260 923 b 274 961 260 938 264 950 b 309 976 283 971 295 976 b 344 961 323 976 334 971 b 358 923 353 950 358 938 b 344 886 358 908 353 896 b 309 872 334 877 323 872 b 274 886 295 872 283 877 b 260 923 264 896 260 908 z "},"æ":{"ha":1023,"x_min":0,"x_max":0,"o":"m 738 -14 b 870 12 788 -14 832 -5 b 962 68 909 28 939 47 l 922 155 b 842 105 895 133 868 116 b 747 87 817 93 785 87 b 621 153 690 87 648 109 b 579 326 594 197 580 254 l 975 326 l 975 406 b 907 635 975 502 952 579 b 720 719 863 691 800 719 b 613 696 681 719 645 711 b 530 633 581 682 553 660 b 449 697 508 661 481 682 b 338 719 416 712 379 719 b 154 659 261 719 200 699 b 89 508 108 619 87 569 l 90 504 l 219 494 b 251 581 219 529 230 558 b 337 616 272 605 301 616 b 414 577 371 616 396 603 b 441 467 432 550 441 514 l 441 410 l 322 410 b 121 354 234 410 167 391 b 52 198 75 317 52 265 b 108 43 52 132 71 81 b 268 -14 145 5 199 -14 b 414 19 325 -14 373 -3 b 508 100 454 41 485 68 b 604 16 533 64 565 36 b 738 -14 643 -4 687 -14 z m 294 83 b 214 114 259 83 232 93 b 187 195 196 134 187 161 b 223 284 187 230 199 260 b 323 320 247 308 280 320 l 441 320 l 441 168 b 376 109 425 146 404 126 b 294 83 348 92 321 83 z m 720 616 b 811 567 760 616 791 600 b 841 436 831 533 841 490 l 841 416 l 581 416 b 623 562 586 477 600 525 b 720 616 646 598 678 616 z "},"ç":{"ha":623,"x_min":0,"x_max":0,"o":"m 328 87 b 219 159 278 87 242 111 b 184 340 196 207 184 267 l 184 365 b 219 544 184 436 196 496 b 327 616 242 592 278 616 b 413 572 362 616 391 602 b 446 458 435 543 446 505 l 568 458 l 570 463 b 504 647 572 538 550 599 b 327 719 458 695 399 719 b 122 618 240 719 171 685 b 49 365 73 551 49 467 l 49 340 b 122 86 49 238 73 153 b 328 -14 171 20 240 -14 b 500 55 394 -14 452 9 b 570 222 548 101 571 157 l 568 227 l 446 227 b 412 125 446 184 435 150 b 328 87 389 100 361 87 z m 370 -3 l 271 -3 l 252 -90 b 320 -107 284 -93 307 -99 b 340 -152 334 -116 340 -131 b 318 -202 340 -175 333 -191 b 260 -219 303 -214 284 -219 l 264 -292 b 403 -255 324 -292 370 -280 b 452 -153 435 -230 452 -196 b 427 -73 452 -117 443 -91 b 363 -40 410 -56 389 -45 z "},"è":{"ha":618,"x_min":0,"x_max":0,"o":"m 342 -14 b 468 8 389 -14 431 -6 b 552 59 504 23 532 40 l 518 145 b 443 103 493 127 468 113 b 351 87 417 93 386 87 b 224 156 293 87 251 110 b 183 334 197 201 183 261 l 573 334 l 573 412 b 509 637 573 507 552 583 b 326 719 466 692 405 719 b 125 619 243 719 176 686 b 48 364 74 553 48 468 l 48 334 b 126 83 48 231 74 147 b 342 -14 178 19 250 -14 z m 326 616 b 412 569 365 616 393 601 b 439 442 430 538 439 496 l 439 426 l 186 426 b 231 564 192 483 207 529 b 326 616 255 599 286 616 z m 379 833 l 265 1007 l 109 1007 l 107 1004 l 262 833 z "},"é":{"ha":618,"x_min":0,"x_max":0,"o":"m 342 -14 b 468 8 389 -14 431 -6 b 552 59 504 23 532 40 l 518 145 b 443 103 493 127 468 113 b 351 87 417 93 386 87 b 224 156 293 87 251 110 b 183 334 197 201 183 261 l 573 334 l 573 412 b 509 637 573 507 552 583 b 326 719 466 692 405 719 b 125 619 243 719 176 686 b 48 364 74 553 48 468 l 48 334 b 126 83 48 231 74 147 b 342 -14 178 19 250 -14 z m 326 616 b 412 569 365 616 393 601 b 439 442 430 538 439 496 l 439 426 l 186 426 b 231 564 192 483 207 529 b 326 616 255 599 286 616 z m 366 1006 l 249 832 l 362 832 l 524 1002 l 522 1006 z "},"ê":{"ha":618,"x_min":0,"x_max":0,"o":"m 342 -14 b 468 8 389 -14 431 -6 b 552 59 504 23 532 40 l 518 145 b 443 103 493 127 468 113 b 351 87 417 93 386 87 b 224 156 293 87 251 110 b 183 334 197 201 183 261 l 573 334 l 573 412 b 509 637 573 507 552 583 b 326 719 466 692 405 719 b 125 619 243 719 176 686 b 48 364 74 553 48 468 l 48 334 b 126 83 48 231 74 147 b 342 -14 178 19 250 -14 z m 326 616 b 412 569 365 616 393 601 b 439 442 430 538 439 496 l 439 426 l 186 426 b 231 564 192 483 207 529 b 326 616 255 599 286 616 z m 535 837 l 368 998 l 262 998 l 94 837 l 95 833 l 212 833 l 315 941 l 416 833 l 534 833 z "},"ë":{"ha":618,"x_min":0,"x_max":0,"o":"m 342 -14 b 468 8 389 -14 431 -6 b 552 59 504 23 532 40 l 518 145 b 443 103 493 127 468 113 b 351 87 417 93 386 87 b 224 156 293 87 251 110 b 183 334 197 201 183 261 l 573 334 l 573 412 b 509 637 573 507 552 583 b 326 719 466 692 405 719 b 125 619 243 719 176 686 b 48 364 74 553 48 468 l 48 334 b 126 83 48 231 74 147 b 342 -14 178 19 250 -14 z m 326 616 b 412 569 365 616 393 601 b 439 442 430 538 439 496 l 439 426 l 186 426 b 231 564 192 483 207 529 b 326 616 255 599 286 616 z m 538 834 l 538 954 l 394 954 l 394 834 z m 237 834 l 237 954 l 92 954 l 92 834 z "},"ì":{"ha":310,"x_min":0,"x_max":0,"o":"m 220 0 l 220 705 l 85 705 l 85 0 z m 218 820 l 104 994 l -53 994 l -54 990 l 100 820 z "},"í":{"ha":310,"x_min":0,"x_max":0,"o":"m 220 0 l 220 705 l 85 705 l 85 0 z m 203 992 l 87 819 l 200 819 l 361 988 l 359 992 z "},"î":{"ha":310,"x_min":0,"x_max":0,"o":"m 220 0 l 220 705 l 85 705 l 85 0 z m 374 823 l 206 984 l 100 984 l -68 823 l -66 819 l 51 819 l 153 927 l 254 819 l 372 819 z "},"ï":{"ha":310,"x_min":0,"x_max":0,"o":"m 220 0 l 220 705 l 85 705 l 85 0 z m 376 821 l 376 941 l 232 941 l 232 821 z m 75 821 l 75 941 l -70 941 l -70 821 z "},"ð":{"ha":697,"x_min":0,"x_max":0,"o":"m 508 849 l 618 920 l 576 981 l 452 901 b 372 952 427 921 401 938 b 282 989 343 967 313 980 l 240 886 b 294 862 259 879 277 871 b 345 832 311 853 328 843 l 201 740 l 243 678 l 402 781 b 463 682 427 752 447 719 b 492 557 478 645 488 603 l 490 555 b 415 611 470 578 445 597 b 319 631 385 624 353 631 b 116 541 235 631 167 601 b 39 301 64 481 39 401 b 121 77 39 212 66 137 b 333 -14 176 17 247 -14 b 548 88 419 -14 490 20 b 633 351 605 156 633 243 l 633 490 b 601 690 633 563 623 630 b 508 849 579 751 548 804 z m 336 88 b 218 152 286 88 247 109 b 174 301 188 194 174 244 b 216 467 174 368 188 423 b 333 532 245 510 284 532 b 435 507 373 532 407 524 b 498 443 463 489 484 468 l 498 351 b 453 162 498 274 483 211 b 336 88 423 113 384 88 z "},"ñ":{"ha":667,"x_min":0,"x_max":0,"o":"m 199 705 l 75 705 l 75 0 l 211 0 l 211 526 b 264 591 224 554 242 575 b 344 614 287 607 313 614 b 430 574 382 614 411 601 b 458 433 448 547 458 500 l 458 0 l 593 0 l 593 435 b 540 650 593 532 576 604 b 390 719 504 696 454 719 b 284 688 351 719 315 708 b 208 600 254 667 228 638 z m 538 988 l 465 1008 b 448 954 465 987 459 969 b 410 932 437 940 425 932 b 329 964 390 932 363 943 b 245 996 294 986 267 996 b 160 954 211 996 183 982 b 127 852 138 926 127 892 l 201 834 b 216 888 201 855 206 873 b 254 909 226 902 239 909 b 331 878 274 909 299 899 b 419 846 363 856 392 846 b 504 887 453 846 481 859 b 538 988 526 914 538 948 z "},"ò":{"ha":667,"x_min":0,"x_max":0,"o":"m 48 361 l 48 343 b 124 86 48 238 73 153 b 333 -14 175 20 244 -14 b 541 86 421 -14 490 20 b 616 343 591 153 616 238 l 616 361 b 541 618 616 466 591 552 b 332 719 490 685 420 719 b 124 618 244 719 175 685 b 48 361 73 552 48 466 z m 184 343 l 184 361 b 221 544 184 434 196 495 b 332 616 245 592 282 616 b 444 544 381 616 419 592 b 481 361 469 496 481 434 l 481 343 b 444 159 481 269 469 207 b 333 87 419 111 382 87 b 221 159 283 87 245 111 b 184 343 196 207 184 268 z m 397 833 l 283 1007 l 126 1007 l 125 1004 l 279 833 z "},"ó":{"ha":667,"x_min":0,"x_max":0,"o":"m 48 361 l 48 343 b 124 86 48 238 73 153 b 333 -14 175 20 244 -14 b 541 86 421 -14 490 20 b 616 343 591 153 616 238 l 616 361 b 541 618 616 466 591 552 b 332 719 490 685 420 719 b 124 618 244 719 175 685 b 48 361 73 552 48 466 z m 184 343 l 184 361 b 221 544 184 434 196 495 b 332 616 245 592 282 616 b 444 544 381 616 419 592 b 481 361 469 496 481 434 l 481 343 b 444 159 481 269 469 207 b 333 87 419 111 382 87 b 221 159 283 87 245 111 b 184 343 196 207 184 268 z m 383 1006 l 267 832 l 380 832 l 541 1002 l 539 1006 z "},"ô":{"ha":667,"x_min":0,"x_max":0,"o":"m 48 361 l 48 343 b 124 86 48 238 73 153 b 333 -14 175 20 244 -14 b 541 86 421 -14 490 20 b 616 343 591 153 616 238 l 616 361 b 541 618 616 466 591 552 b 332 719 490 685 420 719 b 124 618 244 719 175 685 b 48 361 73 552 48 466 z m 184 343 l 184 361 b 221 544 184 434 196 495 b 332 616 245 592 282 616 b 444 544 381 616 419 592 b 481 361 469 496 481 434 l 481 343 b 444 159 481 269 469 207 b 333 87 419 111 382 87 b 221 159 283 87 245 111 b 184 343 196 207 184 268 z m 553 837 l 385 998 l 279 998 l 111 837 l 113 833 l 230 833 l 332 941 l 433 833 l 551 833 z "},"õ":{"ha":667,"x_min":0,"x_max":0,"o":"m 48 361 l 48 343 b 124 86 48 238 73 153 b 333 -14 175 20 244 -14 b 541 86 421 -14 490 20 b 616 343 591 153 616 238 l 616 361 b 541 618 616 466 591 552 b 332 719 490 685 420 719 b 124 618 244 719 175 685 b 48 361 73 552 48 466 z m 184 343 l 184 361 b 221 544 184 434 196 495 b 332 616 245 592 282 616 b 444 544 381 616 419 592 b 481 361 469 496 481 434 l 481 343 b 444 159 481 269 469 207 b 333 87 419 111 382 87 b 221 159 283 87 245 111 b 184 343 196 207 184 268 z m 538 988 l 465 1008 b 448 954 465 987 459 969 b 410 932 437 940 425 932 b 329 964 390 932 363 943 b 245 996 294 986 267 996 b 160 954 211 996 183 982 b 127 852 138 926 127 892 l 201 834 b 216 888 201 855 206 873 b 254 909 226 902 239 909 b 331 878 274 909 299 899 b 419 846 363 856 392 846 b 504 887 453 846 481 859 b 538 988 526 914 538 948 z "},"ö":{"ha":667,"x_min":0,"x_max":0,"o":"m 48 361 l 48 343 b 124 86 48 238 73 153 b 333 -14 175 20 244 -14 b 541 86 421 -14 490 20 b 616 343 591 153 616 238 l 616 361 b 541 618 616 466 591 552 b 332 719 490 685 420 719 b 124 618 244 719 175 685 b 48 361 73 552 48 466 z m 184 343 l 184 361 b 221 544 184 434 196 495 b 332 616 245 592 282 616 b 444 544 381 616 419 592 b 481 361 469 496 481 434 l 481 343 b 444 159 481 269 469 207 b 333 87 419 111 382 87 b 221 159 283 87 245 111 b 184 343 196 207 184 268 z m 555 834 l 555 954 l 411 954 l 411 834 z m 254 834 l 254 954 l 109 954 l 109 834 z "},"÷":{"ha":673,"x_min":0,"x_max":0,"o":"m 621 396 l 621 509 l 41 509 l 41 396 z m 400 649 l 400 776 l 262 776 l 262 649 z m 400 122 l 400 250 l 262 250 l 262 122 z "},"ø":{"ha":694,"x_min":0,"x_max":0,"o":"m 48 361 l 48 343 b 81 161 48 275 59 215 b 176 36 103 108 135 66 l 121 -90 l 202 -90 l 241 1 b 286 -9 255 -3 270 -7 b 333 -14 301 -12 317 -14 b 541 86 421 -14 490 20 b 616 343 591 153 616 238 l 616 361 b 591 522 616 420 608 473 b 518 644 574 571 550 612 l 581 791 l 500 791 l 457 689 b 397 711 438 699 418 706 b 332 719 377 716 355 719 b 124 618 244 719 175 685 b 48 361 73 552 48 466 z m 184 343 l 184 361 b 221 544 184 434 196 495 b 332 616 245 592 282 616 b 375 608 347 616 362 614 b 412 585 389 603 401 595 l 228 157 l 224 158 b 194 236 210 177 200 203 b 184 343 187 269 184 304 z m 481 361 l 481 343 b 444 159 481 269 469 207 b 333 87 419 111 382 87 b 306 90 323 87 315 88 b 283 98 298 91 290 94 l 456 501 l 460 500 b 476 438 467 483 472 462 b 481 361 480 413 481 387 z "},"ù":{"ha":667,"x_min":0,"x_max":0,"o":"m 460 101 l 467 0 l 591 0 l 591 705 l 456 705 l 456 182 b 401 114 443 153 425 130 b 316 90 378 98 350 90 b 235 135 280 90 253 105 b 208 293 217 165 208 217 l 208 705 l 73 705 l 73 294 b 129 61 73 189 91 111 b 283 -14 166 11 217 -14 b 387 16 322 -14 357 -4 b 460 101 416 36 441 64 z m 396 820 l 282 994 l 125 994 l 124 990 l 279 820 z "},"ú":{"ha":667,"x_min":0,"x_max":0,"o":"m 460 101 l 467 0 l 591 0 l 591 705 l 456 705 l 456 182 b 401 114 443 153 425 130 b 316 90 378 98 350 90 b 235 135 280 90 253 105 b 208 293 217 165 208 217 l 208 705 l 73 705 l 73 294 b 129 61 73 189 91 111 b 283 -14 166 11 217 -14 b 387 16 322 -14 357 -4 b 460 101 416 36 441 64 z m 382 992 l 266 819 l 379 819 l 541 988 l 538 992 z "},"û":{"ha":667,"x_min":0,"x_max":0,"o":"m 460 101 l 467 0 l 591 0 l 591 705 l 456 705 l 456 182 b 401 114 443 153 425 130 b 316 90 378 98 350 90 b 235 135 280 90 253 105 b 208 293 217 165 208 217 l 208 705 l 73 705 l 73 294 b 129 61 73 189 91 111 b 283 -14 166 11 217 -14 b 387 16 322 -14 357 -4 b 460 101 416 36 441 64 z m 552 823 l 385 984 l 279 984 l 111 823 l 112 819 l 229 819 l 332 927 l 433 819 l 551 819 z "},"ü":{"ha":667,"x_min":0,"x_max":0,"o":"m 460 101 l 467 0 l 591 0 l 591 705 l 456 705 l 456 182 b 401 114 443 153 425 130 b 316 90 378 98 350 90 b 235 135 280 90 253 105 b 208 293 217 165 208 217 l 208 705 l 73 705 l 73 294 b 129 61 73 189 91 111 b 283 -14 166 11 217 -14 b 387 16 322 -14 357 -4 b 460 101 416 36 441 64 z m 555 821 l 555 941 l 410 941 l 410 821 z m 254 821 l 254 941 l 109 941 l 109 821 z "},"ý":{"ha":597,"x_min":0,"x_max":0,"o":"m 281 243 l 159 705 l 12 705 l 239 4 l 214 -68 b 178 -146 205 -98 193 -124 b 115 -179 162 -168 141 -179 b 96 -178 110 -179 104 -179 b 74 -175 88 -177 81 -176 l 59 -273 b 96 -281 71 -276 84 -279 b 133 -285 109 -284 121 -285 b 259 -233 188 -285 230 -268 b 328 -109 288 -199 312 -158 l 585 705 l 437 705 l 295 195 l 291 195 z m 349 992 l 232 819 l 345 819 l 507 988 l 505 992 z "},"þ":{"ha":674,"x_min":0,"x_max":0,"o":"m 623 331 l 623 345 b 559 616 623 458 601 548 b 381 719 516 685 457 719 b 287 696 345 719 314 711 b 217 631 260 681 236 659 l 217 1017 l 82 1017 l 82 0 l 83 0 l 83 -271 l 218 -271 l 218 69 b 288 7 237 42 261 21 b 382 -14 315 -7 347 -14 b 559 80 458 -14 517 18 b 623 331 601 143 623 227 z m 487 345 l 487 331 b 452 154 487 257 475 198 b 346 87 429 110 393 87 b 268 110 315 87 289 95 b 218 172 247 124 230 145 l 218 524 b 268 590 230 552 247 574 b 345 614 289 606 314 614 b 451 539 392 614 428 589 b 487 345 475 489 487 424 z "},"ÿ":{"ha":597,"x_min":0,"x_max":0,"o":"m 281 243 l 159 705 l 12 705 l 239 4 l 214 -68 b 178 -146 205 -98 193 -124 b 115 -179 162 -168 141 -179 b 96 -178 110 -179 104 -179 b 74 -175 88 -177 81 -176 l 59 -273 b 96 -281 71 -276 84 -279 b 133 -285 109 -284 121 -285 b 259 -233 188 -285 230 -268 b 328 -109 288 -199 312 -158 l 585 705 l 437 705 l 295 195 l 291 195 z m 522 821 l 522 941 l 377 941 l 377 821 z m 220 821 l 220 941 l 75 941 l 75 821 z "},"Ā":{"ha":746,"x_min":0,"x_max":0,"o":"m 519 240 l 589 0 l 730 0 l 441 949 l 310 949 l 19 0 l 159 0 l 229 240 z m 260 345 l 373 731 l 377 731 l 488 345 z m 593 1061 l 593 1155 l 153 1155 l 153 1061 z "},"ā":{"ha":632,"x_min":0,"x_max":0,"o":"m 437 0 l 576 0 b 559 76 569 25 563 50 b 554 154 556 101 554 127 l 554 481 b 489 657 554 558 532 617 b 317 719 446 698 389 719 b 138 656 243 719 183 698 b 74 511 93 614 71 565 l 75 507 l 205 507 b 232 588 205 540 214 567 b 309 619 251 609 276 619 b 391 583 345 619 372 607 b 418 483 409 559 418 526 l 418 410 l 313 410 b 115 353 228 410 162 391 b 45 195 68 315 45 262 b 96 42 45 131 62 80 b 243 -14 131 5 180 -14 b 347 20 283 -14 317 -2 b 419 104 377 42 401 70 b 425 53 420 87 422 70 b 437 0 428 36 432 18 z m 272 89 b 204 118 243 89 220 99 b 180 195 188 137 180 163 b 214 289 180 232 191 264 b 311 327 237 314 269 327 l 418 327 l 418 199 b 365 121 409 169 392 143 b 272 89 338 100 307 89 z m 530 852 l 530 945 l 90 945 l 90 852 z "},"Ă":{"ha":746,"x_min":0,"x_max":0,"o":"m 519 240 l 589 0 l 730 0 l 441 949 l 310 949 l 19 0 l 159 0 l 229 240 z m 260 345 l 373 731 l 377 731 l 488 345 z m 561 1222 l 459 1222 b 438 1152 459 1194 452 1170 b 374 1125 424 1134 403 1125 b 310 1152 345 1125 323 1134 b 289 1222 296 1170 289 1193 l 187 1222 l 186 1218 b 234 1093 184 1167 200 1125 b 374 1044 269 1061 316 1044 b 513 1093 433 1044 479 1061 b 562 1218 548 1125 564 1167 z "},"ă":{"ha":632,"x_min":0,"x_max":0,"o":"m 437 0 l 576 0 b 559 76 569 25 563 50 b 554 154 556 101 554 127 l 554 481 b 489 657 554 558 532 617 b 317 719 446 698 389 719 b 138 656 243 719 183 698 b 74 511 93 614 71 565 l 75 507 l 205 507 b 232 588 205 540 214 567 b 309 619 251 609 276 619 b 391 583 345 619 372 607 b 418 483 409 559 418 526 l 418 410 l 313 410 b 115 353 228 410 162 391 b 45 195 68 315 45 262 b 96 42 45 131 62 80 b 243 -14 131 5 180 -14 b 347 20 283 -14 317 -2 b 419 104 377 42 401 70 b 425 53 420 87 422 70 b 437 0 428 36 432 18 z m 272 89 b 204 118 243 89 220 99 b 180 195 188 137 180 163 b 214 289 180 232 191 264 b 311 327 237 314 269 327 l 418 327 l 418 199 b 365 121 409 169 392 143 b 272 89 338 100 307 89 z m 497 1012 l 395 1012 b 374 942 395 983 388 960 b 311 915 360 924 339 915 b 246 942 281 915 260 924 b 225 1012 232 959 225 983 l 123 1012 l 122 1008 b 171 883 120 957 136 915 b 311 834 205 850 252 834 b 450 883 369 834 415 850 b 498 1008 484 915 500 957 z "},"Ą":{"ha":746,"x_min":0,"x_max":0,"o":"m 519 240 l 589 0 l 730 0 l 441 949 l 310 949 l 19 0 l 159 0 l 229 240 z m 260 345 l 373 731 l 377 731 l 488 345 z m 729 0 l 600 0 l 600 -23 b 520 -91 569 -33 542 -56 b 488 -219 499 -125 488 -168 b 489 -244 488 -227 488 -235 b 492 -270 489 -253 490 -262 l 764 -270 l 764 -188 l 623 -188 l 623 -173 b 655 -102 623 -143 634 -119 b 730 -74 677 -85 702 -75 z "},"ą":{"ha":632,"x_min":0,"x_max":0,"o":"m 437 0 l 576 0 b 559 76 569 25 563 50 b 554 154 556 101 554 127 l 554 481 b 489 657 554 558 532 617 b 317 719 446 698 389 719 b 138 656 243 719 183 698 b 74 511 93 614 71 565 l 75 507 l 205 507 b 232 588 205 540 214 567 b 309 619 251 609 276 619 b 391 583 345 619 372 607 b 418 483 409 559 418 526 l 418 410 l 313 410 b 115 353 228 410 162 391 b 45 195 68 315 45 262 b 96 42 45 131 62 80 b 243 -14 131 5 180 -14 b 347 20 283 -14 317 -2 b 419 104 377 42 401 70 b 425 53 420 87 422 70 b 437 0 428 36 432 18 z m 272 89 b 204 118 243 89 220 99 b 180 195 188 137 180 163 b 214 289 180 232 191 264 b 311 327 237 314 269 327 l 418 327 l 418 199 b 365 121 409 169 392 143 b 272 89 338 100 307 89 z m 576 0 l 448 0 l 448 -23 b 368 -91 416 -33 390 -56 b 335 -219 346 -125 335 -168 b 336 -244 335 -227 335 -235 b 339 -270 337 -253 338 -262 l 612 -270 l 612 -188 l 471 -188 l 471 -173 b 503 -102 471 -143 481 -119 b 577 -74 524 -85 549 -75 z "},"Ć":{"ha":750,"x_min":0,"x_max":0,"o":"m 696 295 l 567 295 b 523 139 567 225 552 173 b 391 87 493 105 449 87 b 251 159 330 87 284 111 b 201 361 217 207 201 274 l 201 589 b 250 789 201 674 217 741 b 387 861 282 837 328 861 b 522 809 446 861 491 843 b 568 655 552 775 568 723 l 696 655 l 698 659 b 617 884 700 756 673 831 b 387 963 562 937 485 963 b 153 862 289 963 211 929 b 65 587 94 795 65 703 l 65 361 b 154 86 65 245 95 153 b 391 -14 213 20 292 -14 b 617 68 486 -14 562 14 b 698 291 673 123 700 197 z m 441 1230 l 324 1056 l 437 1056 l 599 1225 l 597 1230 z "},"ć":{"ha":623,"x_min":0,"x_max":0,"o":"m 328 87 b 219 159 278 87 242 111 b 184 340 196 207 184 267 l 184 365 b 219 544 184 436 196 496 b 327 616 242 592 278 616 b 413 572 362 616 391 602 b 446 458 435 543 446 505 l 568 458 l 570 463 b 504 647 572 538 550 599 b 327 719 458 695 399 719 b 122 618 240 719 171 685 b 49 365 73 551 49 467 l 49 340 b 122 86 49 238 73 153 b 328 -14 171 20 240 -14 b 500 55 394 -14 452 9 b 570 222 548 101 571 157 l 568 227 l 446 227 b 412 125 446 184 435 150 b 328 87 389 100 361 87 z m 363 1006 l 246 832 l 359 832 l 521 1002 l 519 1006 z "},"Ĉ":{"ha":750,"x_min":0,"x_max":0,"o":"m 696 295 l 567 295 b 523 139 567 225 552 173 b 391 87 493 105 449 87 b 251 159 330 87 284 111 b 201 361 217 207 201 274 l 201 589 b 250 789 201 674 217 741 b 387 861 282 837 328 861 b 522 809 446 861 491 843 b 568 655 552 775 568 723 l 696 655 l 698 659 b 617 884 700 756 673 831 b 387 963 562 937 485 963 b 153 862 289 963 211 929 b 65 587 94 795 65 703 l 65 361 b 154 86 65 245 95 153 b 391 -14 213 20 292 -14 b 617 68 486 -14 562 14 b 698 291 673 123 700 197 z m 610 1061 l 443 1221 l 337 1221 l 169 1061 l 170 1057 l 288 1057 l 390 1164 l 491 1057 l 609 1057 z "},"ĉ":{"ha":623,"x_min":0,"x_max":0,"o":"m 328 87 b 219 159 278 87 242 111 b 184 340 196 207 184 267 l 184 365 b 219 544 184 436 196 496 b 327 616 242 592 278 616 b 413 572 362 616 391 602 b 446 458 435 543 446 505 l 568 458 l 570 463 b 504 647 572 538 550 599 b 327 719 458 695 399 719 b 122 618 240 719 171 685 b 49 365 73 551 49 467 l 49 340 b 122 86 49 238 73 153 b 328 -14 171 20 240 -14 b 500 55 394 -14 452 9 b 570 222 548 101 571 157 l 568 227 l 446 227 b 412 125 446 184 435 150 b 328 87 389 100 361 87 z m 532 837 l 365 998 l 259 998 l 91 837 l 92 833 l 210 833 l 312 941 l 413 833 l 531 833 z "},"Ċ":{"ha":750,"x_min":0,"x_max":0,"o":"m 696 295 l 567 295 b 523 139 567 225 552 173 b 391 87 493 105 449 87 b 251 159 330 87 284 111 b 201 361 217 207 201 274 l 201 589 b 250 789 201 674 217 741 b 387 861 282 837 328 861 b 522 809 446 861 491 843 b 568 655 552 775 568 723 l 696 655 l 698 659 b 617 884 700 756 673 831 b 387 963 562 937 485 963 b 153 862 289 963 211 929 b 65 587 94 795 65 703 l 65 361 b 154 86 65 245 95 153 b 391 -14 213 20 292 -14 b 617 68 486 -14 562 14 b 698 291 673 123 700 197 z m 466 1058 l 466 1188 l 315 1188 l 315 1058 z "},"ċ":{"ha":623,"x_min":0,"x_max":0,"o":"m 328 87 b 219 159 278 87 242 111 b 184 340 196 207 184 267 l 184 365 b 219 544 184 436 196 496 b 327 616 242 592 278 616 b 413 572 362 616 391 602 b 446 458 435 543 446 505 l 568 458 l 570 463 b 504 647 572 538 550 599 b 327 719 458 695 399 719 b 122 618 240 719 171 685 b 49 365 73 551 49 467 l 49 340 b 122 86 49 238 73 153 b 328 -14 171 20 240 -14 b 500 55 394 -14 452 9 b 570 222 548 101 571 157 l 568 227 l 446 227 b 412 125 446 184 435 150 b 328 87 389 100 361 87 z m 388 834 l 388 964 l 237 964 l 237 834 z "},"Č":{"ha":750,"x_min":0,"x_max":0,"o":"m 696 295 l 567 295 b 523 139 567 225 552 173 b 391 87 493 105 449 87 b 251 159 330 87 284 111 b 201 361 217 207 201 274 l 201 589 b 250 789 201 674 217 741 b 387 861 282 837 328 861 b 522 809 446 861 491 843 b 568 655 552 775 568 723 l 696 655 l 698 659 b 617 884 700 756 673 831 b 387 963 562 937 485 963 b 153 862 289 963 211 929 b 65 587 94 795 65 703 l 65 361 b 154 86 65 245 95 153 b 391 -14 213 20 292 -14 b 617 68 486 -14 562 14 b 698 291 673 123 700 197 z m 450 1095 l 518 1211 l 433 1224 l 336 1160 z m 295 1183 l 293 1131 l 336 1160 z m 295 1183 l 296 1190 l 293 1190 l 292 1185 z m 453 1093 l 450 1095 l 448 1093 z "},"č":{"ha":623,"x_min":0,"x_max":0,"o":"m 328 87 b 219 159 278 87 242 111 b 184 340 196 207 184 267 l 184 365 b 219 544 184 436 196 496 b 327 616 242 592 278 616 b 413 572 362 616 391 602 b 446 458 435 543 446 505 l 568 458 l 570 463 b 504 647 572 538 550 599 b 327 719 458 695 399 719 b 122 618 240 719 171 685 b 49 365 73 551 49 467 l 49 340 b 122 86 49 238 73 153 b 328 -14 171 20 240 -14 b 500 55 394 -14 452 9 b 570 222 548 101 571 157 l 568 227 l 446 227 b 412 125 446 184 435 150 b 328 87 389 100 361 87 z m 372 871 l 440 987 l 355 1000 l 258 936 z m 217 960 l 215 907 l 258 936 z m 217 960 l 218 966 l 215 966 l 214 962 z m 375 869 l 372 871 l 370 869 z "},"Ď":{"ha":788,"x_min":0,"x_max":0,"o":"m 90 0 l 366 0 b 621 114 470 0 555 38 b 720 407 687 189 720 287 l 720 541 b 621 835 720 661 687 759 b 366 949 555 911 470 949 l 90 949 z m 225 847 l 366 847 b 525 761 432 847 485 818 b 585 543 565 704 585 631 l 585 407 b 525 187 585 317 565 244 b 366 101 485 130 432 101 l 225 101 z m 401 1081 l 470 1197 l 385 1211 l 288 1146 z m 247 1170 l 245 1117 l 288 1146 z m 247 1170 l 248 1176 l 245 1176 l 243 1172 z m 405 1079 l 401 1081 l 400 1079 z "},"ď":{"ha":667,"x_min":0,"x_max":0,"o":"m 50 345 l 50 331 b 114 80 50 227 71 143 b 290 -14 156 18 215 -14 b 389 12 328 -14 361 -5 b 462 84 418 28 442 52 l 476 0 l 588 0 l 588 1017 l 452 1017 l 452 632 b 383 696 432 660 409 682 b 292 719 356 711 326 719 b 114 616 215 719 156 685 b 50 345 71 548 50 458 z m 186 331 l 186 345 b 220 539 186 425 197 490 b 326 614 242 589 278 614 b 401 589 354 614 380 606 b 452 521 422 572 439 549 l 452 178 b 401 113 439 150 422 128 b 324 90 380 97 354 90 b 219 155 277 90 242 111 b 186 331 197 198 186 257 z "},"Đ":{"ha":788,"x_min":0,"x_max":0,"o":"m 90 0 l 366 0 b 621 114 470 0 555 38 b 720 407 687 189 720 287 l 720 541 b 621 835 720 661 687 759 b 366 949 555 911 470 949 l 90 949 l 90 531 l 14 531 l 14 438 l 90 438 z m 410 438 l 410 531 l 225 531 l 225 847 l 366 847 b 525 761 432 847 485 818 b 585 543 565 704 585 631 l 585 407 b 525 187 585 317 565 244 b 366 101 485 130 432 101 l 225 101 l 225 438 z "},"đ":{"ha":667,"x_min":0,"x_max":0,"o":"m 675 808 l 675 901 l 588 901 l 588 1017 l 452 1017 l 452 901 l 280 901 l 280 808 l 452 808 l 452 632 b 383 696 432 660 409 682 b 292 719 356 711 326 719 b 114 616 215 719 156 685 b 50 345 71 548 50 458 l 50 331 b 114 80 50 227 71 143 b 290 -14 156 18 215 -14 b 389 12 328 -14 361 -5 b 462 84 418 28 442 52 l 476 0 l 588 0 l 588 808 z m 186 331 l 186 345 b 220 539 186 425 197 490 b 326 614 242 589 278 614 b 401 589 354 614 380 606 b 452 521 422 572 439 549 l 452 178 b 401 113 439 150 422 128 b 324 90 380 97 354 90 b 219 155 277 90 242 111 b 186 331 197 198 186 257 z "},"Ē":{"ha":652,"x_min":0,"x_max":0,"o":"m 551 441 l 551 543 l 222 543 l 222 847 l 607 847 l 607 949 l 87 949 l 87 0 l 610 0 l 610 101 l 222 101 l 222 441 z m 568 1061 l 568 1155 l 127 1155 l 127 1061 z "},"ē":{"ha":618,"x_min":0,"x_max":0,"o":"m 342 -14 b 468 8 389 -14 431 -6 b 552 59 504 23 532 40 l 518 145 b 443 103 493 127 468 113 b 351 87 417 93 386 87 b 224 156 293 87 251 110 b 183 334 197 201 183 261 l 573 334 l 573 412 b 509 637 573 507 552 583 b 326 719 466 692 405 719 b 125 619 243 719 176 686 b 48 364 74 553 48 468 l 48 334 b 126 83 48 231 74 147 b 342 -14 178 19 250 -14 z m 326 616 b 412 569 365 616 393 601 b 439 442 430 538 439 496 l 439 426 l 186 426 b 231 564 192 483 207 529 b 326 616 255 599 286 616 z m 535 852 l 535 945 l 95 945 l 95 852 z "},"Ĕ":{"ha":652,"x_min":0,"x_max":0,"o":"m 551 441 l 551 543 l 222 543 l 222 847 l 607 847 l 607 949 l 87 949 l 87 0 l 610 0 l 610 101 l 222 101 l 222 441 z m 535 1222 l 433 1222 b 412 1152 433 1194 426 1170 b 349 1125 398 1134 377 1125 b 284 1152 319 1125 298 1134 b 263 1222 270 1170 263 1193 l 161 1222 l 160 1218 b 209 1093 158 1167 174 1125 b 349 1044 243 1061 290 1044 b 488 1093 407 1044 453 1061 b 536 1218 522 1125 538 1167 z "},"ĕ":{"ha":618,"x_min":0,"x_max":0,"o":"m 342 -14 b 468 8 389 -14 431 -6 b 552 59 504 23 532 40 l 518 145 b 443 103 493 127 468 113 b 351 87 417 93 386 87 b 224 156 293 87 251 110 b 183 334 197 201 183 261 l 573 334 l 573 412 b 509 637 573 507 552 583 b 326 719 466 692 405 719 b 125 619 243 719 176 686 b 48 364 74 553 48 468 l 48 334 b 126 83 48 231 74 147 b 342 -14 178 19 250 -14 z m 326 616 b 412 569 365 616 393 601 b 439 442 430 538 439 496 l 439 426 l 186 426 b 231 564 192 483 207 529 b 326 616 255 599 286 616 z m 503 1012 l 401 1012 b 380 942 401 983 394 960 b 316 915 366 924 345 915 b 251 942 287 915 265 924 b 231 1012 237 959 231 983 l 129 1012 l 127 1008 b 176 883 125 957 141 915 b 316 834 211 850 257 834 b 455 883 374 834 421 850 b 504 1008 489 915 506 957 z "},"Ė":{"ha":652,"x_min":0,"x_max":0,"o":"m 551 441 l 551 543 l 222 543 l 222 847 l 607 847 l 607 949 l 87 949 l 87 0 l 610 0 l 610 101 l 222 101 l 222 441 z m 423 1044 l 423 1175 l 272 1175 l 272 1044 z "},"ė":{"ha":618,"x_min":0,"x_max":0,"o":"m 342 -14 b 468 8 389 -14 431 -6 b 552 59 504 23 532 40 l 518 145 b 443 103 493 127 468 113 b 351 87 417 93 386 87 b 224 156 293 87 251 110 b 183 334 197 201 183 261 l 573 334 l 573 412 b 509 637 573 507 552 583 b 326 719 466 692 405 719 b 125 619 243 719 176 686 b 48 364 74 553 48 468 l 48 334 b 126 83 48 231 74 147 b 342 -14 178 19 250 -14 z m 326 616 b 412 569 365 616 393 601 b 439 442 430 538 439 496 l 439 426 l 186 426 b 231 564 192 483 207 529 b 326 616 255 599 286 616 z m 391 834 l 391 964 l 239 964 l 239 834 z "},"Ę":{"ha":652,"x_min":0,"x_max":0,"o":"m 551 441 l 551 543 l 222 543 l 222 847 l 607 847 l 607 949 l 87 949 l 87 0 l 610 0 l 610 101 l 222 101 l 222 441 z m 429 0 l 300 0 l 300 -23 b 220 -91 269 -33 242 -56 b 187 -219 198 -125 187 -168 b 188 -244 187 -227 188 -235 b 191 -270 189 -253 190 -262 l 464 -270 l 464 -188 l 323 -188 l 323 -173 b 355 -102 323 -143 334 -119 b 429 -74 376 -85 401 -75 z "},"ę":{"ha":618,"x_min":0,"x_max":0,"o":"m 342 -14 b 468 8 389 -14 431 -6 b 552 59 504 23 532 40 l 518 145 b 443 103 493 127 468 113 b 351 87 417 93 386 87 b 224 156 293 87 251 110 b 183 334 197 201 183 261 l 573 334 l 573 412 b 509 637 573 507 552 583 b 326 719 466 692 405 719 b 125 619 243 719 176 686 b 48 364 74 553 48 468 l 48 334 b 126 83 48 231 74 147 b 342 -14 178 19 250 -14 z m 326 616 b 412 569 365 616 393 601 b 439 442 430 538 439 496 l 439 426 l 186 426 b 231 564 192 483 207 529 b 326 616 255 599 286 616 z m 412 0 l 283 0 l 283 -23 b 203 -91 252 -33 225 -56 b 170 -219 181 -125 170 -168 b 171 -244 170 -227 171 -235 b 174 -270 172 -253 173 -262 l 447 -270 l 447 -188 l 306 -188 l 306 -173 b 338 -102 306 -143 317 -119 b 412 -74 360 -85 384 -75 z "},"Ě":{"ha":652,"x_min":0,"x_max":0,"o":"m 551 441 l 551 543 l 222 543 l 222 847 l 607 847 l 607 949 l 87 949 l 87 0 l 610 0 l 610 101 l 222 101 l 222 441 z m 407 1081 l 475 1197 l 390 1211 l 294 1146 z m 252 1170 l 250 1117 l 294 1146 z m 252 1170 l 253 1176 l 250 1176 l 249 1172 z m 410 1079 l 407 1081 l 406 1079 z "},"ě":{"ha":618,"x_min":0,"x_max":0,"o":"m 342 -14 b 468 8 389 -14 431 -6 b 552 59 504 23 532 40 l 518 145 b 443 103 493 127 468 113 b 351 87 417 93 386 87 b 224 156 293 87 251 110 b 183 334 197 201 183 261 l 573 334 l 573 412 b 509 637 573 507 552 583 b 326 719 466 692 405 719 b 125 619 243 719 176 686 b 48 364 74 553 48 468 l 48 334 b 126 83 48 231 74 147 b 342 -14 178 19 250 -14 z m 326 616 b 412 569 365 616 393 601 b 439 442 430 538 439 496 l 439 426 l 186 426 b 231 564 192 483 207 529 b 326 616 255 599 286 616 z m 374 871 l 443 987 l 357 1000 l 261 936 z m 220 960 l 218 907 l 261 936 z m 220 960 l 220 966 l 218 966 l 216 962 z m 378 869 l 374 871 l 373 869 z "},"Ĝ":{"ha":793,"x_min":0,"x_max":0,"o":"m 708 128 l 708 476 l 395 476 l 395 380 l 573 380 l 573 163 b 513 110 560 142 540 124 b 404 87 486 95 449 87 b 257 157 343 87 294 111 b 202 353 220 204 202 269 l 202 600 b 255 792 202 682 220 746 b 397 861 290 838 338 861 b 526 809 453 861 496 844 b 570 672 555 775 570 729 l 698 672 l 699 676 b 622 885 701 763 675 832 b 395 963 568 937 493 963 b 157 866 297 963 217 931 b 67 598 97 801 67 712 l 67 353 b 160 84 67 238 98 149 b 404 -14 222 19 303 -14 b 598 30 483 -14 548 1 b 708 128 649 59 685 92 z m 608 1061 l 440 1221 l 334 1221 l 166 1061 l 168 1057 l 285 1057 l 387 1164 l 488 1057 l 606 1057 z "},"ĝ":{"ha":667,"x_min":0,"x_max":0,"o":"m 54 345 l 54 331 b 117 80 54 227 75 143 b 294 -14 159 18 218 -14 b 386 7 328 -14 359 -7 b 456 70 413 21 437 42 l 456 -1 b 420 -134 456 -60 444 -104 b 308 -178 396 -163 359 -178 b 219 -166 277 -178 247 -174 b 140 -134 190 -158 164 -148 l 117 -234 b 212 -271 145 -249 177 -262 b 309 -285 246 -280 279 -285 b 517 -211 399 -285 468 -260 b 591 -1 567 -162 591 -92 l 591 705 l 478 705 l 466 617 b 394 692 446 650 422 675 b 295 719 365 710 333 719 b 117 616 219 719 159 685 b 54 345 75 548 54 458 z m 189 331 l 189 345 b 223 539 189 425 200 490 b 329 614 246 589 281 614 b 405 589 359 614 384 606 b 456 520 426 572 443 549 l 456 178 b 406 113 444 150 427 128 b 328 90 384 97 358 90 b 222 155 280 90 244 111 b 189 331 200 198 189 257 z m 543 837 l 375 998 l 269 998 l 101 837 l 102 833 l 220 833 l 322 941 l 423 833 l 541 833 z "},"Ğ":{"ha":793,"x_min":0,"x_max":0,"o":"m 708 128 l 708 476 l 395 476 l 395 380 l 573 380 l 573 163 b 513 110 560 142 540 124 b 404 87 486 95 449 87 b 257 157 343 87 294 111 b 202 353 220 204 202 269 l 202 600 b 255 792 202 682 220 746 b 397 861 290 838 338 861 b 526 809 453 861 496 844 b 570 672 555 775 570 729 l 698 672 l 699 676 b 622 885 701 763 675 832 b 395 963 568 937 493 963 b 157 866 297 963 217 931 b 67 598 97 801 67 712 l 67 353 b 160 84 67 238 98 149 b 404 -14 222 19 303 -14 b 598 30 483 -14 548 1 b 708 128 649 59 685 92 z m 575 1236 l 473 1236 b 452 1166 473 1207 466 1184 b 389 1139 438 1148 417 1139 b 324 1165 359 1139 338 1148 b 303 1236 310 1183 303 1207 l 201 1236 l 200 1232 b 249 1106 198 1180 214 1139 b 389 1058 283 1074 330 1058 b 528 1106 447 1058 493 1074 b 576 1232 562 1139 578 1180 z "},"ğ":{"ha":667,"x_min":0,"x_max":0,"o":"m 54 345 l 54 331 b 117 80 54 227 75 143 b 294 -14 159 18 218 -14 b 386 7 328 -14 359 -7 b 456 70 413 21 437 42 l 456 -1 b 420 -134 456 -60 444 -104 b 308 -178 396 -163 359 -178 b 219 -166 277 -178 247 -174 b 140 -134 190 -158 164 -148 l 117 -234 b 212 -271 145 -249 177 -262 b 309 -285 246 -280 279 -285 b 517 -211 399 -285 468 -260 b 591 -1 567 -162 591 -92 l 591 705 l 478 705 l 466 617 b 394 692 446 650 422 675 b 295 719 365 710 333 719 b 117 616 219 719 159 685 b 54 345 75 548 54 458 z m 189 331 l 189 345 b 223 539 189 425 200 490 b 329 614 246 589 281 614 b 405 589 359 614 384 606 b 456 520 426 572 443 549 l 456 178 b 406 113 444 150 427 128 b 328 90 384 97 358 90 b 222 155 280 90 244 111 b 189 331 200 198 189 257 z m 510 1012 l 408 1012 b 387 942 408 983 401 960 b 323 915 373 924 352 915 b 259 942 294 915 273 924 b 238 1012 245 959 238 983 l 136 1012 l 135 1008 b 183 883 133 957 149 915 b 323 834 218 850 265 834 b 463 883 382 834 428 850 b 511 1008 497 915 513 957 z "},"Ġ":{"ha":793,"x_min":0,"x_max":0,"o":"m 708 128 l 708 476 l 395 476 l 395 380 l 573 380 l 573 163 b 513 110 560 142 540 124 b 404 87 486 95 449 87 b 257 157 343 87 294 111 b 202 353 220 204 202 269 l 202 600 b 255 792 202 682 220 746 b 397 861 290 838 338 861 b 526 809 453 861 496 844 b 570 672 555 775 570 729 l 698 672 l 699 676 b 622 885 701 763 675 832 b 395 963 568 937 493 963 b 157 866 297 963 217 931 b 67 598 97 801 67 712 l 67 353 b 160 84 67 238 98 149 b 404 -14 222 19 303 -14 b 598 30 483 -14 548 1 b 708 128 649 59 685 92 z m 463 1058 l 463 1188 l 312 1188 l 312 1058 z "},"ġ":{"ha":667,"x_min":0,"x_max":0,"o":"m 54 345 l 54 331 b 117 80 54 227 75 143 b 294 -14 159 18 218 -14 b 386 7 328 -14 359 -7 b 456 70 413 21 437 42 l 456 -1 b 420 -134 456 -60 444 -104 b 308 -178 396 -163 359 -178 b 219 -166 277 -178 247 -174 b 140 -134 190 -158 164 -148 l 117 -234 b 212 -271 145 -249 177 -262 b 309 -285 246 -280 279 -285 b 517 -211 399 -285 468 -260 b 591 -1 567 -162 591 -92 l 591 705 l 478 705 l 466 617 b 394 692 446 650 422 675 b 295 719 365 710 333 719 b 117 616 219 719 159 685 b 54 345 75 548 54 458 z m 189 331 l 189 345 b 223 539 189 425 200 490 b 329 614 246 589 281 614 b 405 589 359 614 384 606 b 456 520 426 572 443 549 l 456 178 b 406 113 444 150 427 128 b 328 90 384 97 358 90 b 222 155 280 90 244 111 b 189 331 200 198 189 257 z m 398 834 l 398 964 l 247 964 l 247 834 z "},"Ģ":{"ha":793,"x_min":0,"x_max":0,"o":"m 708 128 l 708 476 l 395 476 l 395 380 l 573 380 l 573 163 b 513 110 560 142 540 124 b 404 87 486 95 449 87 b 257 157 343 87 294 111 b 202 353 220 204 202 269 l 202 600 b 255 792 202 682 220 746 b 397 861 290 838 338 861 b 526 809 453 861 496 844 b 570 672 555 775 570 729 l 698 672 l 699 676 b 622 885 701 763 675 832 b 395 963 568 937 493 963 b 157 866 297 963 217 931 b 67 598 97 801 67 712 l 67 353 b 160 84 67 238 98 149 b 404 -14 222 19 303 -14 b 598 30 483 -14 548 1 b 708 128 649 59 685 92 z m 457 -180 l 457 -61 l 334 -61 l 334 -176 l 311 -342 l 391 -342 z "},"ģ":{"ha":667,"x_min":0,"x_max":0,"o":"m 54 345 l 54 331 b 117 80 54 227 75 143 b 294 -14 159 18 218 -14 b 386 7 328 -14 359 -7 b 456 70 413 21 437 42 l 456 -1 b 420 -134 456 -60 444 -104 b 308 -178 396 -163 359 -178 b 219 -166 277 -178 247 -174 b 140 -134 190 -158 164 -148 l 117 -234 b 212 -271 145 -249 177 -262 b 309 -285 246 -280 279 -285 b 517 -211 399 -285 468 -260 b 591 -1 567 -162 591 -92 l 591 705 l 478 705 l 466 617 b 394 692 446 650 422 675 b 295 719 365 710 333 719 b 117 616 219 719 159 685 b 54 345 75 548 54 458 z m 189 331 l 189 345 b 223 539 189 425 200 490 b 329 614 246 589 281 614 b 405 589 359 614 384 606 b 456 520 426 572 443 549 l 456 178 b 406 113 444 150 427 128 b 328 90 384 97 358 90 b 222 155 280 90 244 111 b 189 331 200 198 189 257 z m 259 918 l 259 819 l 379 819 l 379 914 l 396 1074 l 324 1074 z "},"Ĥ":{"ha":829,"x_min":0,"x_max":0,"o":"m 739 0 l 739 949 l 604 949 l 604 519 l 225 519 l 225 949 l 90 949 l 90 0 l 225 0 l 225 418 l 604 418 l 604 0 z m 632 1047 l 465 1208 l 359 1208 l 191 1047 l 192 1043 l 309 1043 l 412 1151 l 513 1043 l 631 1043 z "},"ĥ":{"ha":667,"x_min":0,"x_max":0,"o":"m 209 610 l 209 1017 l 74 1017 l 74 0 l 209 0 l 209 530 b 263 592 222 557 240 577 b 343 614 285 607 312 614 b 429 572 381 614 410 600 b 457 433 448 544 457 498 l 457 0 l 593 0 l 593 432 b 538 649 593 530 574 602 b 385 719 501 695 450 719 b 284 690 347 719 314 709 b 209 610 254 671 229 645 z m 366 1049 l 199 1210 l 93 1210 l -75 1049 l -74 1045 l 43 1045 l 146 1153 l 247 1045 l 365 1045 z "},"Ħ":{"ha":834,"x_min":0,"x_max":0,"o":"m 844 679 l 844 772 l 745 772 l 745 949 l 610 949 l 610 772 l 231 772 l 231 949 l 96 949 l 96 772 l 30 772 l 30 679 l 96 679 l 96 0 l 231 0 l 231 418 l 610 418 l 610 0 l 745 0 l 745 679 z m 231 519 l 231 679 l 610 679 l 610 519 z "},"ħ":{"ha":667,"x_min":0,"x_max":0,"o":"m 403 806 l 403 899 l 209 899 l 209 1017 l 74 1017 l 74 899 l 7 899 l 7 806 l 74 806 l 74 0 l 209 0 l 209 530 b 263 592 222 557 240 577 b 343 614 285 607 312 614 b 429 572 381 614 410 600 b 457 433 448 544 457 498 l 457 0 l 593 0 l 593 432 b 538 649 593 530 574 602 b 385 719 501 695 450 719 b 284 690 347 719 314 709 b 209 610 254 671 229 645 l 209 806 z "},"Ĩ":{"ha":340,"x_min":0,"x_max":0,"o":"m 238 0 l 238 949 l 102 949 l 102 0 z m 376 1198 l 302 1219 b 286 1164 302 1197 297 1179 b 248 1143 275 1150 263 1143 b 166 1175 228 1143 201 1153 b 83 1206 132 1196 105 1206 b -2 1164 49 1206 21 1192 b -35 1063 -24 1136 -35 1102 l 39 1044 b 54 1098 39 1066 44 1083 b 92 1120 64 1112 77 1120 b 169 1088 112 1120 137 1109 b 257 1056 201 1067 230 1056 b 342 1097 291 1056 319 1070 b 376 1198 364 1124 376 1158 z "},"ĩ":{"ha":310,"x_min":0,"x_max":0,"o":"m 220 0 l 220 705 l 85 705 l 85 0 z m 359 975 l 286 995 b 269 941 286 973 280 955 b 231 919 258 926 246 919 b 150 951 211 919 184 930 b 66 983 115 972 88 983 b -19 940 32 983 4 969 b -52 839 -41 912 -52 878 l 22 821 b 37 874 22 842 27 860 b 75 896 47 889 60 896 b 152 864 95 896 120 885 b 240 832 184 843 213 832 b 325 873 274 832 302 846 b 359 975 347 900 359 934 z "},"Ī":{"ha":340,"x_min":0,"x_max":0,"o":"m 238 0 l 238 949 l 102 949 l 102 0 z m 391 1061 l 391 1155 l -50 1155 l -50 1061 z "},"ī":{"ha":310,"x_min":0,"x_max":0,"o":"m 220 0 l 220 705 l 85 705 l 85 0 z m 374 838 l 374 932 l -66 932 l -66 838 z "},"Ĭ":{"ha":340,"x_min":0,"x_max":0,"o":"m 238 0 l 238 949 l 102 949 l 102 0 z m 358 1222 l 256 1222 b 235 1152 256 1194 249 1170 b 172 1125 221 1134 200 1125 b 107 1152 142 1125 121 1134 b 86 1222 93 1170 86 1193 l -16 1222 l -17 1218 b 32 1093 -19 1167 -3 1125 b 172 1044 66 1061 113 1044 b 311 1093 230 1044 276 1061 b 359 1218 345 1125 361 1167 z "},"ĭ":{"ha":310,"x_min":0,"x_max":0,"o":"m 220 0 l 220 705 l 85 705 l 85 0 z m 341 998 l 239 998 b 218 928 239 970 232 946 b 155 901 204 910 183 901 b 90 928 125 901 104 910 b 69 998 76 946 69 969 l -33 998 l -34 994 b 15 869 -36 943 -20 901 b 155 821 49 837 96 821 b 294 869 213 821 259 837 b 342 994 328 901 344 943 z "},"Į":{"ha":340,"x_min":0,"x_max":0,"o":"m 238 0 l 238 949 l 102 949 l 102 0 z m 273 0 l 144 0 l 144 -23 b 65 -91 113 -33 87 -56 b 32 -219 43 -125 32 -168 b 33 -244 32 -227 32 -235 b 36 -270 34 -253 35 -262 l 309 -270 l 309 -188 l 168 -188 l 168 -173 b 200 -102 168 -143 178 -119 b 274 -74 221 -85 246 -75 z "},"į":{"ha":307,"x_min":0,"x_max":0,"o":"m 221 0 l 221 705 l 86 705 l 86 0 z m 221 890 l 221 1017 l 86 1017 l 86 890 z m 258 0 l 129 0 l 129 -23 b 49 -91 98 -33 71 -56 b 16 -219 27 -125 16 -168 b 17 -244 16 -227 17 -235 b 20 -270 18 -253 19 -262 l 293 -270 l 293 -188 l 152 -188 l 152 -173 b 184 -102 152 -143 163 -119 b 258 -74 206 -85 230 -75 z "},"İ":{"ha":340,"x_min":0,"x_max":0,"o":"m 238 0 l 238 949 l 102 949 l 102 0 z m 245 1044 l 245 1175 l 94 1175 l 94 1044 z "},"ı":{"ha":310,"x_min":0,"x_max":0,"o":"m 220 0 l 220 705 l 85 705 l 85 0 z "},"Ĳ":{"ha":992,"x_min":0,"x_max":0,"o":"m 238 0 l 238 949 l 102 949 l 102 0 z m 767 949 l 767 281 b 732 140 767 222 755 175 b 642 87 708 105 678 87 b 543 132 600 87 567 102 b 508 267 520 161 508 206 l 378 267 l 376 263 b 446 57 374 173 397 105 b 642 -14 494 10 559 -14 b 830 66 718 -14 781 13 b 903 281 879 119 903 191 l 903 949 z "},"ĳ":{"ha":616,"x_min":0,"x_max":0,"o":"m 221 0 l 221 705 l 86 705 l 86 0 z m 221 890 l 221 1017 l 86 1017 l 86 890 z m 533 705 l 398 705 l 398 -48 b 377 -148 398 -93 391 -126 b 319 -180 362 -170 343 -180 b 293 -178 311 -180 302 -180 b 268 -172 283 -176 275 -175 l 260 -273 b 296 -282 273 -277 285 -280 b 332 -285 307 -284 319 -285 b 479 -223 394 -285 444 -264 b 533 -48 515 -182 533 -124 z m 530 893 l 530 1017 l 394 1017 l 394 893 z "},"Ĵ":{"ha":652,"x_min":0,"x_max":0,"o":"m 427 949 l 427 281 b 391 140 427 222 415 175 b 301 87 368 105 338 87 b 203 132 259 87 226 102 b 168 267 179 161 168 206 l 37 267 l 35 263 b 105 57 33 173 57 105 b 301 -14 153 10 219 -14 b 490 66 378 -14 441 13 b 563 281 538 119 563 191 l 563 949 z m 708 1042 l 541 1203 l 435 1203 l 267 1042 l 268 1038 l 385 1038 l 488 1146 l 589 1038 l 707 1038 z "},"ĵ":{"ha":317,"x_min":0,"x_max":0,"o":"m 230 705 l 94 705 l 94 -48 b 75 -147 94 -90 88 -123 b 20 -182 61 -171 43 -182 b -9 -180 11 -182 2 -182 b -35 -174 -19 -178 -28 -176 l -44 -273 b -7 -282 -31 -277 -18 -280 b 28 -285 3 -284 15 -285 b 176 -223 91 -285 141 -264 b 230 -48 212 -182 230 -124 z m 376 816 l 209 977 l 103 977 l -65 816 l -64 812 l 54 812 l 156 920 l 257 812 l 375 812 z "},"Ķ":{"ha":746,"x_min":0,"x_max":0,"o":"m 300 427 l 565 0 l 736 0 l 405 504 l 712 949 l 548 949 l 292 533 l 223 533 l 223 949 l 88 949 l 88 0 l 223 0 l 223 427 z m 427 -172 l 427 -53 l 304 -53 l 304 -168 l 281 -334 l 360 -334 z "},"ķ":{"ha":616,"x_min":0,"x_max":0,"o":"m 271 323 l 456 0 l 614 0 l 379 385 l 590 705 l 431 705 l 269 425 l 212 425 l 212 1017 l 77 1017 l 77 0 l 212 0 l 212 323 z m 379 -170 l 379 -51 l 256 -51 l 256 -165 l 233 -332 l 313 -332 z "},"ĸ":{"ha":677,"x_min":0,"x_max":0,"o":"m 281 297 l 475 0 l 648 0 l 388 374 l 633 705 l 465 705 l 271 411 l 218 411 l 218 705 l 83 705 l 83 0 l 218 0 l 218 297 z "},"Ĺ":{"ha":652,"x_min":0,"x_max":0,"o":"m 224 101 l 224 949 l 90 949 l 90 0 l 616 0 l 616 101 z m 207 1192 l 90 1019 l 203 1019 l 365 1188 l 363 1192 z "},"ĺ":{"ha":307,"x_min":0,"x_max":0,"o":"m 221 0 l 221 1017 l 86 1017 l 86 0 z m 204 1226 l 87 1053 l 201 1053 l 362 1222 l 360 1226 z "},"Ļ":{"ha":652,"x_min":0,"x_max":0,"o":"m 224 101 l 224 949 l 90 949 l 90 0 l 616 0 l 616 101 z m 415 -171 l 415 -52 l 292 -52 l 292 -166 l 269 -333 l 349 -333 z "},"ļ":{"ha":307,"x_min":0,"x_max":0,"o":"m 221 0 l 221 1017 l 86 1017 l 86 0 z m 218 -171 l 218 -52 l 95 -52 l 95 -166 l 72 -333 l 151 -333 z "},"Ľ":{"ha":652,"x_min":0,"x_max":0,"o":"m 224 101 l 224 949 l 90 949 l 90 0 l 616 0 l 616 101 z "},"ľ":{"ha":307,"x_min":0,"x_max":0,"o":"m 221 0 l 221 1017 l 86 1017 l 86 0 z "},"Ŀ":{"ha":652,"x_min":0,"x_max":0,"o":"m 224 101 l 224 949 l 90 949 l 90 0 l 616 0 l 616 101 z m 233 1021 l 233 1151 l 81 1151 l 81 1021 z "},"ŀ":{"ha":307,"x_min":0,"x_max":0,"o":"m 221 0 l 221 1017 l 86 1017 l 86 0 z m 230 1055 l 230 1185 l 79 1185 l 79 1055 z "},"Ł":{"ha":610,"x_min":0,"x_max":0,"o":"m 221 555 l 221 949 l 86 949 l 86 509 l 16 485 l 16 386 l 86 410 l 86 0 l 613 0 l 613 101 l 221 101 l 221 456 l 372 508 l 372 607 z "},"ł":{"ha":333,"x_min":0,"x_max":0,"o":"m 235 577 l 235 1017 l 100 1017 l 100 522 l 17 489 l 17 390 l 100 423 l 100 0 l 235 0 l 235 478 l 318 512 l 318 611 z "},"Ń":{"ha":829,"x_min":0,"x_max":0,"o":"m 739 0 l 739 949 l 604 949 l 604 251 l 600 250 l 225 949 l 90 949 l 90 0 l 225 0 l 225 699 l 229 699 l 604 0 z m 465 1216 l 348 1042 l 461 1042 l 623 1212 l 621 1216 z "},"ń":{"ha":667,"x_min":0,"x_max":0,"o":"m 199 705 l 75 705 l 75 0 l 211 0 l 211 526 b 264 591 224 554 242 575 b 344 614 287 607 313 614 b 430 574 382 614 411 601 b 458 433 448 547 458 500 l 458 0 l 593 0 l 593 435 b 540 650 593 532 576 604 b 390 719 504 696 454 719 b 284 688 351 719 315 708 b 208 600 254 667 228 638 z m 383 1006 l 267 832 l 380 832 l 541 1002 l 539 1006 z "},"Ņ":{"ha":829,"x_min":0,"x_max":0,"o":"m 739 0 l 739 949 l 604 949 l 604 251 l 600 250 l 225 949 l 90 949 l 90 0 l 225 0 l 225 699 l 229 699 l 604 0 z m 478 -171 l 478 -52 l 355 -52 l 355 -166 l 332 -333 l 412 -333 z "},"ņ":{"ha":667,"x_min":0,"x_max":0,"o":"m 199 705 l 75 705 l 75 0 l 211 0 l 211 526 b 264 591 224 554 242 575 b 344 614 287 607 313 614 b 430 574 382 614 411 601 b 458 433 448 547 458 500 l 458 0 l 593 0 l 593 435 b 540 650 593 532 576 604 b 390 719 504 696 454 719 b 284 688 351 719 315 708 b 208 600 254 667 228 638 z m 397 -171 l 397 -52 l 274 -52 l 274 -166 l 251 -333 l 330 -333 z "},"Ň":{"ha":829,"x_min":0,"x_max":0,"o":"m 739 0 l 739 949 l 604 949 l 604 251 l 600 250 l 225 949 l 90 949 l 90 0 l 225 0 l 225 699 l 229 699 l 604 0 z m 473 1081 l 542 1197 l 456 1211 l 360 1146 z m 319 1170 l 317 1117 l 360 1146 z m 319 1170 l 319 1176 l 317 1176 l 315 1172 z m 477 1079 l 473 1081 l 472 1079 z "},"ň":{"ha":667,"x_min":0,"x_max":0,"o":"m 199 705 l 75 705 l 75 0 l 211 0 l 211 526 b 264 591 224 554 242 575 b 344 614 287 607 313 614 b 430 574 382 614 411 601 b 458 433 448 547 458 500 l 458 0 l 593 0 l 593 435 b 540 650 593 532 576 604 b 390 719 504 696 454 719 b 284 688 351 719 315 708 b 208 600 254 667 228 638 z m 392 871 l 460 987 l 375 1000 l 279 936 z m 237 960 l 235 907 l 279 936 z m 237 960 l 238 966 l 235 966 l 234 962 z m 395 869 l 392 871 l 391 869 z "},"ŉ":{"ha":667,"x_min":0,"x_max":0,"o":"m 199 705 l 75 705 l 75 0 l 211 0 l 211 526 b 264 591 224 554 242 575 b 344 614 287 607 313 614 b 430 574 382 614 411 601 b 458 433 448 547 458 500 l 458 0 l 593 0 l 593 435 b 540 650 593 532 576 604 b 390 719 504 696 454 719 b 284 688 351 719 315 708 b 208 600 254 667 228 638 z m 593 776 l 593 949 l 471 949 l 471 774 l 470 610 l 537 610 z "},"Ŋ":{"ha":821,"x_min":0,"x_max":0,"o":"m 735 949 l 600 949 l 600 251 l 596 250 l 220 949 l 85 949 l 85 0 l 220 0 l 220 700 l 224 701 l 600 0 l 600 -48 b 580 -147 600 -90 594 -123 b 525 -182 567 -171 548 -182 b 495 -180 516 -182 506 -182 b 469 -174 484 -178 476 -176 l 460 -273 b 497 -282 474 -277 486 -280 b 534 -285 508 -284 521 -285 b 682 -223 597 -285 646 -264 b 735 -48 717 -182 735 -124 z "},"ŋ":{"ha":667,"x_min":0,"x_max":0,"o":"m 199 705 l 75 705 l 75 0 l 210 0 l 210 530 b 262 592 223 556 240 577 b 340 614 284 607 310 614 b 426 574 378 614 407 601 b 454 433 444 547 454 500 l 454 -48 b 434 -145 454 -90 447 -123 b 380 -179 421 -168 403 -179 b 349 -176 371 -179 361 -178 b 322 -170 338 -174 329 -172 l 314 -273 b 351 -282 327 -277 339 -280 b 389 -285 362 -284 375 -285 b 536 -223 451 -285 501 -264 b 590 -48 572 -182 590 -124 l 590 435 b 536 650 590 532 572 604 b 386 719 501 696 451 719 b 282 689 347 719 313 709 b 206 604 252 669 227 640 z "},"Ō":{"ha":806,"x_min":0,"x_max":0,"o":"m 743 363 l 743 585 b 649 861 743 701 711 793 b 399 963 586 929 503 963 b 154 861 297 963 215 929 b 63 585 93 793 63 701 l 63 363 b 155 87 63 247 94 155 b 400 -14 216 20 298 -14 b 649 87 504 -14 587 20 b 743 363 711 155 743 247 z m 608 586 l 608 363 b 553 161 608 276 590 208 b 400 90 517 113 466 90 b 251 161 336 90 286 113 b 199 363 216 208 199 276 l 199 586 b 251 787 199 673 216 740 b 399 859 285 835 335 859 b 553 787 465 859 516 835 b 608 586 589 740 608 673 z m 623 1075 l 623 1168 l 183 1168 l 183 1075 z "},"ō":{"ha":667,"x_min":0,"x_max":0,"o":"m 48 361 l 48 343 b 124 86 48 238 73 153 b 333 -14 175 20 244 -14 b 541 86 421 -14 490 20 b 616 343 591 153 616 238 l 616 361 b 541 618 616 466 591 552 b 332 719 490 685 420 719 b 124 618 244 719 175 685 b 48 361 73 552 48 466 z m 184 343 l 184 361 b 221 544 184 434 196 495 b 332 616 245 592 282 616 b 444 544 381 616 419 592 b 481 361 469 496 481 434 l 481 343 b 444 159 481 269 469 207 b 333 87 419 111 382 87 b 221 159 283 87 245 111 b 184 343 196 207 184 268 z m 553 852 l 553 945 l 113 945 l 113 852 z "},"Ŏ":{"ha":806,"x_min":0,"x_max":0,"o":"m 743 363 l 743 585 b 649 861 743 701 711 793 b 399 963 586 929 503 963 b 154 861 297 963 215 929 b 63 585 93 793 63 701 l 63 363 b 155 87 63 247 94 155 b 400 -14 216 20 298 -14 b 649 87 504 -14 587 20 b 743 363 711 155 743 247 z m 608 586 l 608 363 b 553 161 608 276 590 208 b 400 90 517 113 466 90 b 251 161 336 90 286 113 b 199 363 216 208 199 276 l 199 586 b 251 787 199 673 216 740 b 399 859 285 835 335 859 b 553 787 465 859 516 835 b 608 586 589 740 608 673 z m 591 1236 l 489 1236 b 468 1166 489 1207 482 1184 b 404 1139 454 1148 433 1139 b 339 1165 375 1139 353 1148 b 319 1236 326 1183 319 1207 l 217 1236 l 216 1232 b 264 1106 213 1180 230 1139 b 404 1058 299 1074 345 1058 b 543 1106 463 1058 509 1074 b 592 1232 578 1139 594 1180 z "},"ŏ":{"ha":667,"x_min":0,"x_max":0,"o":"m 48 361 l 48 343 b 124 86 48 238 73 153 b 333 -14 175 20 244 -14 b 541 86 421 -14 490 20 b 616 343 591 153 616 238 l 616 361 b 541 618 616 466 591 552 b 332 719 490 685 420 719 b 124 618 244 719 175 685 b 48 361 73 552 48 466 z m 184 343 l 184 361 b 221 544 184 434 196 495 b 332 616 245 592 282 616 b 444 544 381 616 419 592 b 481 361 469 496 481 434 l 481 343 b 444 159 481 269 469 207 b 333 87 419 111 382 87 b 221 159 283 87 245 111 b 184 343 196 207 184 268 z m 520 1012 l 418 1012 b 397 942 418 983 411 960 b 334 915 383 924 362 915 b 269 942 304 915 283 924 b 248 1012 255 959 248 983 l 146 1012 l 145 1008 b 194 883 143 957 159 915 b 334 834 228 850 275 834 b 473 883 392 834 438 850 b 522 1008 507 915 523 957 z "},"Ő":{"ha":806,"x_min":0,"x_max":0,"o":"m 743 363 l 743 585 b 649 861 743 701 711 793 b 399 963 586 929 503 963 b 154 861 297 963 215 929 b 63 585 93 793 63 701 l 63 363 b 155 87 63 247 94 155 b 400 -14 216 20 298 -14 b 649 87 504 -14 587 20 b 743 363 711 155 743 247 z m 608 586 l 608 363 b 553 161 608 276 590 208 b 400 90 517 113 466 90 b 251 161 336 90 286 113 b 199 363 216 208 199 276 l 199 586 b 251 787 199 673 216 740 b 399 859 285 835 335 859 b 553 787 465 859 516 835 b 608 586 589 740 608 673 z m 564 1232 l 425 1061 l 427 1058 l 538 1058 l 705 1227 l 703 1232 z m 361 1232 l 250 1058 l 359 1058 l 496 1228 l 494 1232 z "},"ő":{"ha":667,"x_min":0,"x_max":0,"o":"m 48 361 l 48 343 b 124 86 48 238 73 153 b 333 -14 175 20 244 -14 b 541 86 421 -14 490 20 b 616 343 591 153 616 238 l 616 361 b 541 618 616 466 591 552 b 332 719 490 685 420 719 b 124 618 244 719 175 685 b 48 361 73 552 48 466 z m 184 343 l 184 361 b 221 544 184 434 196 495 b 332 616 245 592 282 616 b 444 544 381 616 419 592 b 481 361 469 496 481 434 l 481 343 b 444 159 481 269 469 207 b 333 87 419 111 382 87 b 221 159 283 87 245 111 b 184 343 196 207 184 268 z m 494 1008 l 354 838 l 356 834 l 468 834 l 634 1004 l 632 1008 z m 290 1008 l 179 834 l 288 834 l 426 1004 l 424 1008 z "},"Œ":{"ha":1131,"x_min":0,"x_max":0,"o":"m 1044 441 l 1044 543 l 715 543 l 715 847 l 1100 847 l 1100 949 l 581 949 l 581 0 l 1103 0 l 1103 101 l 715 101 l 715 441 z m 391 963 b 152 855 293 963 213 927 b 60 574 91 783 60 689 l 60 376 b 152 94 60 260 91 166 b 393 -14 214 22 294 -14 b 471 -10 419 -14 445 -12 b 559 0 498 -7 527 -4 l 559 105 b 479 92 534 99 507 95 b 393 88 450 90 422 88 b 249 163 332 88 284 113 b 196 376 214 214 196 284 l 196 575 b 248 786 196 666 213 736 b 391 861 282 836 330 861 b 478 857 421 861 450 860 b 559 844 507 854 534 850 l 559 949 b 474 959 531 954 502 957 b 391 963 446 962 418 963 z "},"œ":{"ha":1082,"x_min":0,"x_max":0,"o":"m 848 -14 b 974 8 896 -14 938 -6 b 1059 59 1011 23 1039 40 l 1025 145 b 949 103 1000 127 975 113 b 857 87 924 93 893 87 b 730 156 800 87 758 110 b 690 334 703 201 690 261 l 1080 334 l 1080 412 b 1015 637 1080 507 1058 583 b 833 719 972 692 911 719 b 684 670 776 719 727 703 b 586 537 641 638 608 594 b 487 670 563 594 530 638 b 332 719 444 703 392 719 b 124 618 244 719 175 685 b 48 361 73 552 48 466 l 48 343 b 124 86 48 238 73 153 b 333 -14 175 20 244 -14 b 486 33 392 -14 443 2 b 585 164 529 64 562 108 b 686 33 607 108 641 64 b 848 -14 731 2 785 -14 z m 184 343 l 184 361 b 221 544 184 434 196 495 b 332 616 245 592 282 616 b 444 544 381 616 419 592 b 481 361 469 496 481 434 l 481 343 b 444 159 481 269 469 207 b 333 87 419 111 382 87 b 221 159 283 87 245 111 b 184 343 196 207 184 268 z m 833 616 b 918 569 871 616 900 601 b 946 442 937 538 946 496 l 946 426 l 692 426 b 738 564 699 483 714 529 b 833 616 761 599 793 616 z "},"Ŕ":{"ha":750,"x_min":0,"x_max":0,"o":"m 224 409 l 397 409 b 501 362 441 409 476 393 b 538 237 526 332 538 290 l 538 156 b 545 65 538 125 541 95 b 575 0 550 36 560 14 l 715 0 l 715 15 b 684 73 700 29 689 48 b 675 155 678 98 675 125 l 675 239 b 642 380 675 295 664 342 b 534 462 620 418 584 446 b 636 549 579 483 613 512 b 672 678 660 586 672 629 b 596 879 672 765 647 832 b 380 949 545 925 474 949 l 88 949 l 88 0 l 224 0 z m 224 510 l 224 847 l 380 847 b 498 802 433 847 473 832 b 537 677 524 772 537 731 b 497 553 537 623 524 582 b 374 510 471 524 430 510 z m 406 1215 l 289 1042 l 402 1042 l 564 1211 l 562 1215 z "},"ŕ":{"ha":415,"x_min":0,"x_max":0,"o":"m 384 594 l 399 711 b 379 716 393 713 386 715 b 356 719 372 718 365 719 b 269 686 323 719 294 708 b 208 596 243 665 223 635 l 200 705 l 76 705 l 76 0 l 211 0 l 211 501 b 254 572 221 531 235 555 b 325 597 273 589 297 597 z m 289 1006 l 172 832 l 286 832 l 447 1002 l 445 1006 z "},"Ŗ":{"ha":750,"x_min":0,"x_max":0,"o":"m 224 409 l 397 409 b 501 362 441 409 476 393 b 538 237 526 332 538 290 l 538 156 b 545 65 538 125 541 95 b 575 0 550 36 560 14 l 715 0 l 715 15 b 684 73 700 29 689 48 b 675 155 678 98 675 125 l 675 239 b 642 380 675 295 664 342 b 534 462 620 418 584 446 b 636 549 579 483 613 512 b 672 678 660 586 672 629 b 596 879 672 765 647 832 b 380 949 545 925 474 949 l 88 949 l 88 0 l 224 0 z m 224 510 l 224 847 l 380 847 b 498 802 433 847 473 832 b 537 677 524 772 537 731 b 497 553 537 623 524 582 b 374 510 471 524 430 510 z m 420 -172 l 420 -52 l 297 -52 l 297 -167 l 274 -334 l 353 -334 z "},"ŗ":{"ha":415,"x_min":0,"x_max":0,"o":"m 384 594 l 399 711 b 379 716 393 713 386 715 b 356 719 372 718 365 719 b 269 686 323 719 294 708 b 208 596 243 665 223 635 l 200 705 l 76 705 l 76 0 l 211 0 l 211 501 b 254 572 221 531 235 555 b 325 597 273 589 297 597 z m 216 -171 l 216 -52 l 93 -52 l 93 -166 l 70 -333 l 149 -333 z "},"Ř":{"ha":750,"x_min":0,"x_max":0,"o":"m 224 409 l 397 409 b 501 362 441 409 476 393 b 538 237 526 332 538 290 l 538 156 b 545 65 538 125 541 95 b 575 0 550 36 560 14 l 715 0 l 715 15 b 684 73 700 29 689 48 b 675 155 678 98 675 125 l 675 239 b 642 380 675 295 664 342 b 534 462 620 418 584 446 b 636 549 579 483 613 512 b 672 678 660 586 672 629 b 596 879 672 765 647 832 b 380 949 545 925 474 949 l 88 949 l 88 0 l 224 0 z m 224 510 l 224 847 l 380 847 b 498 802 433 847 473 832 b 537 677 524 772 537 731 b 497 553 537 623 524 582 b 374 510 471 524 430 510 z m 414 1080 l 483 1196 l 397 1210 l 301 1145 z m 260 1169 l 258 1116 l 301 1145 z m 260 1169 l 260 1175 l 258 1175 l 256 1171 z m 418 1078 l 414 1080 l 413 1078 z "},"ř":{"ha":415,"x_min":0,"x_max":0,"o":"m 384 594 l 399 711 b 379 716 393 713 386 715 b 356 719 372 718 365 719 b 269 686 323 719 294 708 b 208 596 243 665 223 635 l 200 705 l 76 705 l 76 0 l 211 0 l 211 501 b 254 572 221 531 235 555 b 325 597 273 589 297 597 z m 298 871 l 367 987 l 281 1000 l 185 936 z m 144 960 l 142 907 l 185 936 z m 144 960 l 144 966 l 142 966 l 140 962 z m 302 869 l 298 871 l 297 869 z "},"Ś":{"ha":739,"x_min":0,"x_max":0,"o":"m 541 246 b 500 131 541 199 527 161 b 385 87 472 102 434 87 b 256 134 333 87 290 103 b 205 278 222 165 205 213 l 75 278 l 74 274 b 164 61 72 181 102 110 b 385 -14 226 11 300 -14 b 595 58 471 -14 542 10 b 675 248 649 106 675 169 b 607 421 675 320 653 378 b 406 528 562 465 495 501 b 270 604 341 552 296 578 b 231 707 244 631 231 665 b 267 818 231 752 243 789 b 374 861 291 847 326 861 b 489 810 422 861 461 844 b 532 675 518 776 532 731 l 662 675 l 663 680 b 587 882 665 760 640 828 b 375 963 534 936 464 963 b 172 891 291 963 223 939 b 96 706 121 843 96 781 b 166 529 96 632 119 573 b 370 422 213 485 281 449 b 504 349 434 399 479 374 b 541 246 529 323 541 289 z m 423 1230 l 307 1056 l 420 1056 l 581 1225 l 579 1230 z "},"ś":{"ha":600,"x_min":0,"x_max":0,"o":"m 421 178 b 391 110 421 150 411 127 b 307 83 371 92 343 83 b 215 113 270 83 240 93 b 176 212 191 134 177 166 l 51 212 l 49 208 b 115 53 47 149 68 97 b 304 -14 161 9 224 -14 b 486 42 379 -14 439 5 b 555 184 532 79 555 126 b 498 314 555 236 536 280 b 328 404 460 348 403 378 b 221 464 273 429 237 448 b 196 527 204 479 196 500 b 225 593 196 552 206 574 b 306 622 245 612 271 622 b 388 585 340 622 367 610 b 418 499 408 561 418 532 l 548 499 l 549 503 b 484 656 551 563 529 614 b 306 719 439 698 380 719 b 131 661 234 719 176 700 b 64 522 87 623 64 576 b 120 398 64 472 83 430 b 287 309 157 366 213 336 b 393 247 339 286 375 265 b 421 178 412 228 421 205 z m 357 1006 l 241 832 l 354 832 l 515 1002 l 513 1006 z "},"Ŝ":{"ha":739,"x_min":0,"x_max":0,"o":"m 541 246 b 500 131 541 199 527 161 b 385 87 472 102 434 87 b 256 134 333 87 290 103 b 205 278 222 165 205 213 l 75 278 l 74 274 b 164 61 72 181 102 110 b 385 -14 226 11 300 -14 b 595 58 471 -14 542 10 b 675 248 649 106 675 169 b 607 421 675 320 653 378 b 406 528 562 465 495 501 b 270 604 341 552 296 578 b 231 707 244 631 231 665 b 267 818 231 752 243 789 b 374 861 291 847 326 861 b 489 810 422 861 461 844 b 532 675 518 776 532 731 l 662 675 l 663 680 b 587 882 665 760 640 828 b 375 963 534 936 464 963 b 172 891 291 963 223 939 b 96 706 121 843 96 781 b 166 529 96 632 119 573 b 370 422 213 485 281 449 b 504 349 434 399 479 374 b 541 246 529 323 541 289 z m 593 1061 l 425 1221 l 319 1221 l 151 1061 l 153 1057 l 270 1057 l 372 1164 l 473 1057 l 591 1057 z "},"ŝ":{"ha":600,"x_min":0,"x_max":0,"o":"m 421 178 b 391 110 421 150 411 127 b 307 83 371 92 343 83 b 215 113 270 83 240 93 b 176 212 191 134 177 166 l 51 212 l 49 208 b 115 53 47 149 68 97 b 304 -14 161 9 224 -14 b 486 42 379 -14 439 5 b 555 184 532 79 555 126 b 498 314 555 236 536 280 b 328 404 460 348 403 378 b 221 464 273 429 237 448 b 196 527 204 479 196 500 b 225 593 196 552 206 574 b 306 622 245 612 271 622 b 388 585 340 622 367 610 b 418 499 408 561 418 532 l 548 499 l 549 503 b 484 656 551 563 529 614 b 306 719 439 698 380 719 b 131 661 234 719 176 700 b 64 522 87 623 64 576 b 120 398 64 472 83 430 b 287 309 157 366 213 336 b 393 247 339 286 375 265 b 421 178 412 228 421 205 z m 527 837 l 359 998 l 254 998 l 85 837 l 87 833 l 204 833 l 307 941 l 408 833 l 526 833 z "},"Ş":{"ha":739,"x_min":0,"x_max":0,"o":"m 541 246 b 500 131 541 199 527 161 b 385 87 472 102 434 87 b 256 134 333 87 290 103 b 205 278 222 165 205 213 l 75 278 l 74 274 b 164 61 72 181 102 110 b 385 -14 226 11 300 -14 b 595 58 471 -14 542 10 b 675 248 649 106 675 169 b 607 421 675 320 653 378 b 406 528 562 465 495 501 b 270 604 341 552 296 578 b 231 707 244 631 231 665 b 267 818 231 752 243 789 b 374 861 291 847 326 861 b 489 810 422 861 461 844 b 532 675 518 776 532 731 l 662 675 l 663 680 b 587 882 665 760 640 828 b 375 963 534 936 464 963 b 172 891 291 963 223 939 b 96 706 121 843 96 781 b 166 529 96 632 119 573 b 370 422 213 485 281 449 b 504 349 434 399 479 374 b 541 246 529 323 541 289 z m 425 -5 l 326 -5 l 307 -92 b 375 -109 339 -95 362 -101 b 395 -154 389 -118 395 -133 b 373 -204 395 -177 388 -193 b 315 -221 358 -216 339 -221 l 319 -294 b 458 -257 379 -294 425 -282 b 507 -155 490 -232 507 -198 b 481 -75 507 -119 498 -93 b 418 -42 465 -58 444 -47 z "},"ş":{"ha":600,"x_min":0,"x_max":0,"o":"m 421 178 b 391 110 421 150 411 127 b 307 83 371 92 343 83 b 215 113 270 83 240 93 b 176 212 191 134 177 166 l 51 212 l 49 208 b 115 53 47 149 68 97 b 304 -14 161 9 224 -14 b 486 42 379 -14 439 5 b 555 184 532 79 555 126 b 498 314 555 236 536 280 b 328 404 460 348 403 378 b 221 464 273 429 237 448 b 196 527 204 479 196 500 b 225 593 196 552 206 574 b 306 622 245 612 271 622 b 388 585 340 622 367 610 b 418 499 408 561 418 532 l 548 499 l 549 503 b 484 656 551 563 529 614 b 306 719 439 698 380 719 b 131 661 234 719 176 700 b 64 522 87 623 64 576 b 120 398 64 472 83 430 b 287 309 157 366 213 336 b 393 247 339 286 375 265 b 421 178 412 228 421 205 z m 359 -5 l 260 -5 l 241 -92 b 310 -109 274 -95 296 -101 b 330 -154 323 -118 330 -133 b 307 -204 330 -177 322 -193 b 249 -221 292 -216 273 -221 l 253 -294 b 392 -257 313 -294 359 -282 b 441 -155 425 -232 441 -198 b 416 -75 441 -119 432 -93 b 353 -42 399 -58 378 -47 z "},"Š":{"ha":739,"x_min":0,"x_max":0,"o":"m 541 246 b 500 131 541 199 527 161 b 385 87 472 102 434 87 b 256 134 333 87 290 103 b 205 278 222 165 205 213 l 75 278 l 74 274 b 164 61 72 181 102 110 b 385 -14 226 11 300 -14 b 595 58 471 -14 542 10 b 675 248 649 106 675 169 b 607 421 675 320 653 378 b 406 528 562 465 495 501 b 270 604 341 552 296 578 b 231 707 244 631 231 665 b 267 818 231 752 243 789 b 374 861 291 847 326 861 b 489 810 422 861 461 844 b 532 675 518 776 532 731 l 662 675 l 663 680 b 587 882 665 760 640 828 b 375 963 534 936 464 963 b 172 891 291 963 223 939 b 96 706 121 843 96 781 b 166 529 96 632 119 573 b 370 422 213 485 281 449 b 504 349 434 399 479 374 b 541 246 529 323 541 289 z m 432 1095 l 500 1211 l 415 1224 l 319 1160 z m 277 1183 l 275 1131 l 319 1160 z m 277 1183 l 278 1190 l 275 1190 l 274 1185 z m 435 1093 l 432 1095 l 431 1093 z "},"š":{"ha":600,"x_min":0,"x_max":0,"o":"m 421 178 b 391 110 421 150 411 127 b 307 83 371 92 343 83 b 215 113 270 83 240 93 b 176 212 191 134 177 166 l 51 212 l 49 208 b 115 53 47 149 68 97 b 304 -14 161 9 224 -14 b 486 42 379 -14 439 5 b 555 184 532 79 555 126 b 498 314 555 236 536 280 b 328 404 460 348 403 378 b 221 464 273 429 237 448 b 196 527 204 479 196 500 b 225 593 196 552 206 574 b 306 622 245 612 271 622 b 388 585 340 622 367 610 b 418 499 408 561 418 532 l 548 499 l 549 503 b 484 656 551 563 529 614 b 306 719 439 698 380 719 b 131 661 234 719 176 700 b 64 522 87 623 64 576 b 120 398 64 472 83 430 b 287 309 157 366 213 336 b 393 247 339 286 375 265 b 421 178 412 228 421 205 z m 366 871 l 435 987 l 349 1000 l 253 936 z m 212 960 l 210 907 l 253 936 z m 212 960 l 212 966 l 210 966 l 208 962 z m 370 869 l 366 871 l 365 869 z "},"Ţ":{"ha":692,"x_min":0,"x_max":0,"o":"m 669 847 l 669 949 l 22 949 l 22 847 l 277 847 l 277 0 l 413 0 l 413 847 z m 411 -171 l 411 -52 l 288 -52 l 288 -166 l 265 -333 l 345 -333 z "},"ţ":{"ha":412,"x_min":0,"x_max":0,"o":"m 243 881 l 109 881 l 109 705 l 18 705 l 18 610 l 109 610 l 109 215 b 153 42 109 137 124 79 b 277 -14 183 5 224 -14 b 336 -7 297 -14 316 -11 b 388 9 356 -3 373 3 l 368 100 b 337 92 358 97 348 94 b 306 90 327 90 317 90 b 260 115 286 90 271 98 b 243 200 249 131 243 160 l 243 610 l 378 610 l 378 705 l 243 705 z m 318 -188 l 318 -68 l 195 -68 l 195 -183 l 172 -350 l 252 -350 z "},"Ť":{"ha":692,"x_min":0,"x_max":0,"o":"m 669 847 l 669 949 l 22 949 l 22 847 l 277 847 l 277 0 l 413 0 l 413 847 z m 406 1081 l 475 1197 l 389 1211 l 293 1146 z m 252 1170 l 250 1117 l 293 1146 z m 252 1170 l 252 1176 l 250 1176 l 248 1172 z m 410 1079 l 406 1081 l 405 1079 z "},"ť":{"ha":412,"x_min":0,"x_max":0,"o":"m 243 881 l 109 881 l 109 705 l 18 705 l 18 610 l 109 610 l 109 215 b 153 42 109 137 124 79 b 277 -14 183 5 224 -14 b 336 -7 297 -14 316 -11 b 388 9 356 -3 373 3 l 368 100 b 337 92 358 97 348 94 b 306 90 327 90 317 90 b 260 115 286 90 271 98 b 243 200 249 131 243 160 l 243 610 l 378 610 l 378 705 l 243 705 z "},"Ŧ":{"ha":692,"x_min":0,"x_max":0,"o":"m 546 604 l 546 697 l 413 697 l 413 847 l 669 847 l 669 949 l 22 949 l 22 847 l 277 847 l 277 697 l 151 697 l 151 604 l 277 604 l 277 0 l 413 0 l 413 604 z "},"ŧ":{"ha":439,"x_min":0,"x_max":0,"o":"m 243 881 l 109 881 l 109 705 l 18 705 l 18 610 l 109 610 l 109 520 l 23 520 l 23 427 l 109 427 l 109 215 b 153 42 109 137 124 79 b 277 -14 183 5 224 -14 b 336 -7 297 -14 316 -11 b 388 9 356 -3 373 3 l 368 100 b 337 92 358 97 348 94 b 306 90 327 90 317 90 b 260 115 286 90 271 98 b 243 200 249 131 243 160 l 243 427 l 375 427 l 375 520 l 243 520 l 243 610 l 378 610 l 378 705 l 243 705 z "},"Ũ":{"ha":798,"x_min":0,"x_max":0,"o":"m 721 949 l 586 949 l 586 321 b 534 149 586 248 569 190 b 397 87 500 108 454 87 b 264 149 342 87 297 108 b 214 321 230 190 214 248 l 214 949 l 79 949 l 79 321 b 167 75 79 216 108 134 b 397 -14 226 16 303 -14 b 631 75 493 -14 571 16 b 721 321 691 134 721 216 z m 606 1198 l 532 1219 b 516 1164 532 1197 527 1179 b 478 1143 505 1150 493 1143 b 396 1175 458 1143 431 1153 b 313 1206 362 1196 335 1206 b 228 1164 279 1206 251 1192 b 195 1063 206 1136 195 1102 l 269 1044 b 284 1098 269 1066 274 1083 b 322 1120 294 1112 307 1120 b 399 1088 342 1120 367 1109 b 487 1056 430 1067 460 1056 b 572 1097 521 1056 549 1070 b 606 1198 594 1124 606 1158 z "},"ũ":{"ha":667,"x_min":0,"x_max":0,"o":"m 460 101 l 467 0 l 591 0 l 591 705 l 456 705 l 456 182 b 401 114 443 153 425 130 b 316 90 378 98 350 90 b 235 135 280 90 253 105 b 208 293 217 165 208 217 l 208 705 l 73 705 l 73 294 b 129 61 73 189 91 111 b 283 -14 166 11 217 -14 b 387 16 322 -14 357 -4 b 460 101 416 36 441 64 z m 537 975 l 464 995 b 448 941 464 973 458 955 b 410 919 437 926 424 919 b 328 951 389 919 362 930 b 245 983 294 972 266 983 b 160 940 210 983 182 969 b 126 839 137 912 126 878 l 200 821 b 215 874 200 842 205 860 b 254 896 225 889 238 896 b 330 864 273 896 299 885 b 418 832 362 843 391 832 b 503 873 452 832 481 846 b 537 975 526 900 537 934 z "},"Ū":{"ha":798,"x_min":0,"x_max":0,"o":"m 721 949 l 586 949 l 586 321 b 534 149 586 248 569 190 b 397 87 500 108 454 87 b 264 149 342 87 297 108 b 214 321 230 190 214 248 l 214 949 l 79 949 l 79 321 b 167 75 79 216 108 134 b 397 -14 226 16 303 -14 b 631 75 493 -14 571 16 b 721 321 691 134 721 216 z m 621 1061 l 621 1155 l 180 1155 l 180 1061 z "},"ū":{"ha":667,"x_min":0,"x_max":0,"o":"m 460 101 l 467 0 l 591 0 l 591 705 l 456 705 l 456 182 b 401 114 443 153 425 130 b 316 90 378 98 350 90 b 235 135 280 90 253 105 b 208 293 217 165 208 217 l 208 705 l 73 705 l 73 294 b 129 61 73 189 91 111 b 283 -14 166 11 217 -14 b 387 16 322 -14 357 -4 b 460 101 416 36 441 64 z m 552 838 l 552 932 l 112 932 l 112 838 z "},"Ŭ":{"ha":798,"x_min":0,"x_max":0,"o":"m 721 949 l 586 949 l 586 321 b 534 149 586 248 569 190 b 397 87 500 108 454 87 b 264 149 342 87 297 108 b 214 321 230 190 214 248 l 214 949 l 79 949 l 79 321 b 167 75 79 216 108 134 b 397 -14 226 16 303 -14 b 631 75 493 -14 571 16 b 721 321 691 134 721 216 z m 588 1222 l 486 1222 b 465 1152 486 1194 479 1170 b 401 1125 451 1134 430 1125 b 337 1152 372 1125 351 1134 b 316 1222 323 1170 316 1193 l 214 1222 l 213 1218 b 261 1093 211 1167 227 1125 b 401 1044 296 1061 343 1044 b 541 1093 460 1044 506 1061 b 589 1218 575 1125 591 1167 z "},"ŭ":{"ha":667,"x_min":0,"x_max":0,"o":"m 460 101 l 467 0 l 591 0 l 591 705 l 456 705 l 456 182 b 401 114 443 153 425 130 b 316 90 378 98 350 90 b 235 135 280 90 253 105 b 208 293 217 165 208 217 l 208 705 l 73 705 l 73 294 b 129 61 73 189 91 111 b 283 -14 166 11 217 -14 b 387 16 322 -14 357 -4 b 460 101 416 36 441 64 z m 519 998 l 418 998 b 397 928 418 970 411 946 b 333 901 383 910 361 901 b 268 928 304 901 282 910 b 248 998 254 946 248 969 l 146 998 l 144 994 b 193 869 142 943 158 901 b 333 821 228 837 274 821 b 472 869 391 821 438 837 b 521 994 506 901 523 943 z "},"Ů":{"ha":798,"x_min":0,"x_max":0,"o":"m 721 949 l 586 949 l 586 321 b 534 149 586 248 569 190 b 397 87 500 108 454 87 b 264 149 342 87 297 108 b 214 321 230 190 214 248 l 214 949 l 79 949 l 79 321 b 167 75 79 216 108 134 b 397 -14 226 16 303 -14 b 631 75 493 -14 571 16 b 721 321 691 134 721 216 z m 289 1133 b 321 1056 289 1102 300 1076 b 400 1026 343 1036 369 1026 b 478 1056 431 1026 457 1036 b 511 1133 500 1076 511 1102 b 478 1211 511 1164 500 1190 b 400 1243 457 1232 431 1243 b 321 1211 369 1243 343 1232 b 289 1133 300 1190 289 1164 z m 351 1133 b 365 1171 351 1148 355 1161 b 400 1186 374 1181 386 1186 b 435 1171 414 1186 425 1181 b 449 1133 444 1161 449 1148 b 435 1097 449 1118 444 1106 b 400 1082 425 1087 414 1082 b 365 1097 386 1082 374 1087 b 351 1133 355 1106 351 1118 z "},"ů":{"ha":667,"x_min":0,"x_max":0,"o":"m 460 101 l 467 0 l 591 0 l 591 705 l 456 705 l 456 182 b 401 114 443 153 425 130 b 316 90 378 98 350 90 b 235 135 280 90 253 105 b 208 293 217 165 208 217 l 208 705 l 73 705 l 73 294 b 129 61 73 189 91 111 b 283 -14 166 11 217 -14 b 387 16 322 -14 357 -4 b 460 101 416 36 441 64 z m 220 909 b 253 832 220 878 231 853 b 332 802 274 812 300 802 b 410 832 362 802 388 812 b 442 909 431 853 442 878 b 410 987 442 940 431 966 b 332 1019 388 1009 362 1019 b 253 987 300 1019 274 1009 b 220 909 231 966 220 940 z m 282 909 b 296 947 282 924 287 937 b 332 962 306 957 318 962 b 366 947 345 962 357 957 b 380 909 376 937 380 924 b 366 873 380 895 376 882 b 332 859 357 863 345 859 b 296 873 318 859 306 863 b 282 909 287 882 282 895 z "},"Ű":{"ha":798,"x_min":0,"x_max":0,"o":"m 721 949 l 586 949 l 586 321 b 534 149 586 248 569 190 b 397 87 500 108 454 87 b 264 149 342 87 297 108 b 214 321 230 190 214 248 l 214 949 l 79 949 l 79 321 b 167 75 79 216 108 134 b 397 -14 226 16 303 -14 b 631 75 493 -14 571 16 b 721 321 691 134 721 216 z m 562 1218 l 422 1048 l 424 1044 l 536 1044 l 702 1214 l 700 1218 z m 358 1218 l 247 1044 l 356 1044 l 494 1215 l 492 1218 z "},"ű":{"ha":667,"x_min":0,"x_max":0,"o":"m 460 101 l 467 0 l 591 0 l 591 705 l 456 705 l 456 182 b 401 114 443 153 425 130 b 316 90 378 98 350 90 b 235 135 280 90 253 105 b 208 293 217 165 208 217 l 208 705 l 73 705 l 73 294 b 129 61 73 189 91 111 b 283 -14 166 11 217 -14 b 387 16 322 -14 357 -4 b 460 101 416 36 441 64 z m 493 994 l 353 824 l 355 821 l 467 821 l 633 990 l 631 994 z m 290 994 l 178 821 l 288 821 l 425 991 l 423 994 z "},"Ų":{"ha":798,"x_min":0,"x_max":0,"o":"m 721 949 l 586 949 l 586 321 b 534 149 586 248 569 190 b 397 87 500 108 454 87 b 264 149 342 87 297 108 b 214 321 230 190 214 248 l 214 949 l 79 949 l 79 321 b 167 75 79 216 108 134 b 397 -14 226 16 303 -14 b 631 75 493 -14 571 16 b 721 321 691 134 721 216 z m 502 0 l 373 0 l 373 -23 b 293 -91 342 -33 315 -56 b 260 -219 271 -125 260 -168 b 261 -244 260 -227 261 -235 b 264 -270 262 -253 263 -262 l 537 -270 l 537 -188 l 396 -188 l 396 -173 b 428 -102 396 -143 407 -119 b 503 -74 450 -85 474 -75 z "},"ų":{"ha":667,"x_min":0,"x_max":0,"o":"m 460 101 l 467 0 l 591 0 l 591 705 l 456 705 l 456 182 b 401 114 443 153 425 130 b 316 90 378 98 350 90 b 235 135 280 90 253 105 b 208 293 217 165 208 217 l 208 705 l 73 705 l 73 294 b 129 61 73 189 91 111 b 283 -14 166 11 217 -14 b 387 16 322 -14 357 -4 b 460 101 416 36 441 64 z m 591 0 l 462 0 l 462 -23 b 382 -91 431 -33 404 -56 b 349 -219 360 -125 349 -168 b 350 -244 349 -227 350 -235 b 353 -270 351 -253 352 -262 l 626 -270 l 626 -188 l 485 -188 l 485 -173 b 517 -102 485 -143 496 -119 b 591 -74 539 -85 563 -75 z "},"Ŵ":{"ha":1028,"x_min":0,"x_max":0,"o":"m 736 276 l 573 949 l 454 949 l 292 277 l 288 277 l 162 949 l 20 949 l 218 0 l 345 0 l 512 662 l 516 662 l 683 0 l 809 0 l 1008 949 l 867 949 l 741 276 z m 734 1047 l 566 1208 l 460 1208 l 292 1047 l 294 1043 l 411 1043 l 513 1151 l 614 1043 l 732 1043 z "},"ŵ":{"ha":879,"x_min":0,"x_max":0,"o":"m 616 236 l 484 705 l 391 705 l 261 242 l 257 242 l 162 705 l 25 705 l 193 0 l 304 0 l 435 444 l 439 444 l 571 0 l 683 0 l 850 705 l 713 705 l 621 237 z m 658 823 l 490 984 l 385 984 l 216 823 l 218 819 l 335 819 l 437 927 l 538 819 l 656 819 z "},"Ŷ":{"ha":746,"x_min":0,"x_max":0,"o":"m 370 486 l 167 949 l 16 949 l 302 351 l 302 0 l 438 0 l 438 343 l 727 949 l 576 949 l 374 486 z m 594 1047 l 427 1208 l 321 1208 l 153 1047 l 154 1043 l 271 1043 l 374 1151 l 475 1043 l 593 1043 z "},"ŷ":{"ha":597,"x_min":0,"x_max":0,"o":"m 281 243 l 159 705 l 12 705 l 239 4 l 214 -68 b 178 -146 205 -98 193 -124 b 115 -179 162 -168 141 -179 b 96 -178 110 -179 104 -179 b 74 -175 88 -177 81 -176 l 59 -273 b 96 -281 71 -276 84 -279 b 133 -285 109 -284 121 -285 b 259 -233 188 -285 230 -268 b 328 -109 288 -199 312 -158 l 585 705 l 437 705 l 295 195 l 291 195 z m 518 823 l 351 984 l 245 984 l 77 823 l 78 819 l 195 819 l 298 927 l 399 819 l 517 819 z "},"Ÿ":{"ha":746,"x_min":0,"x_max":0,"o":"m 370 486 l 167 949 l 16 949 l 302 351 l 302 0 l 438 0 l 438 343 l 727 949 l 576 949 l 374 486 z m 597 1044 l 597 1164 l 452 1164 l 452 1044 z m 296 1044 l 296 1164 l 151 1164 l 151 1044 z "},"Ź":{"ha":664,"x_min":0,"x_max":0,"o":"m 195 101 l 604 870 l 604 949 l 54 949 l 54 847 l 456 847 l 51 82 l 51 0 l 616 0 l 616 101 z m 388 1216 l 271 1042 l 385 1042 l 546 1212 l 544 1216 z "},"ź":{"ha":597,"x_min":0,"x_max":0,"o":"m 203 101 l 538 623 l 538 705 l 58 705 l 58 603 l 383 603 l 51 84 l 51 0 l 553 0 l 553 101 z m 353 992 l 236 819 l 349 819 l 511 988 l 509 992 z "},"Ż":{"ha":664,"x_min":0,"x_max":0,"o":"m 195 101 l 604 870 l 604 949 l 54 949 l 54 847 l 456 847 l 51 82 l 51 0 l 616 0 l 616 101 z m 413 1044 l 413 1175 l 262 1175 l 262 1044 z "},"ż":{"ha":597,"x_min":0,"x_max":0,"o":"m 203 101 l 538 623 l 538 705 l 58 705 l 58 603 l 383 603 l 51 84 l 51 0 l 553 0 l 553 101 z m 378 821 l 378 951 l 227 951 l 227 821 z "},"Ž":{"ha":664,"x_min":0,"x_max":0,"o":"m 195 101 l 604 870 l 604 949 l 54 949 l 54 847 l 456 847 l 51 82 l 51 0 l 616 0 l 616 101 z m 397 1081 l 465 1197 l 380 1211 l 283 1146 z m 242 1170 l 240 1117 l 283 1146 z m 242 1170 l 243 1176 l 240 1176 l 239 1172 z m 400 1079 l 397 1081 l 395 1079 z "},"ž":{"ha":597,"x_min":0,"x_max":0,"o":"m 203 101 l 538 623 l 538 705 l 58 705 l 58 603 l 383 603 l 51 84 l 51 0 l 553 0 l 553 101 z m 361 857 l 430 973 l 345 987 l 248 922 z m 207 946 l 205 893 l 248 922 z m 207 946 l 208 952 l 205 952 l 203 948 z m 365 855 l 361 857 l 360 855 z "},"ſ":{"ha":301,"x_min":0,"x_max":0,"o":"m 81 0 l 216 0 l 216 797 b 241 894 216 838 224 871 b 311 928 257 917 281 928 b 339 926 322 928 331 928 b 365 922 348 925 356 923 l 378 1017 b 334 1027 363 1021 348 1025 b 292 1031 320 1030 306 1031 b 137 970 225 1031 173 1010 b 81 797 100 929 81 871 z "},"ƒ":{"ha":416,"x_min":0,"x_max":0,"o":"m 386 610 l 386 705 l 257 705 l 257 797 b 280 893 257 838 265 870 b 349 926 296 915 319 926 b 380 924 361 926 371 926 b 406 920 389 923 398 921 l 420 1017 b 375 1027 404 1021 389 1025 b 333 1031 360 1030 347 1031 b 178 970 267 1031 215 1010 b 122 797 141 929 122 871 l 122 705 l 27 705 l 27 610 l 122 610 l 122 0 l 124 0 l 124 -48 b 104 -147 124 -90 118 -123 b 50 -182 91 -171 73 -182 b 21 -180 41 -182 31 -182 b -5 -174 10 -178 1 -176 l -14 -273 b 22 -282 -1 -277 11 -280 b 58 -285 33 -284 45 -285 b 206 -223 121 -285 170 -264 b 260 -48 242 -182 260 -124 l 260 610 z "},"Ơ":{"ha":875,"x_min":0,"x_max":0,"o":"m 739 363 l 739 585 b 738 617 739 595 739 606 b 735 650 738 628 736 639 b 881 755 798 668 847 703 b 931 954 914 807 931 873 l 819 954 b 791 823 819 902 810 858 b 712 749 773 788 747 763 b 592 907 687 817 647 869 b 395 963 537 944 471 963 b 151 861 293 963 212 929 b 60 585 90 793 60 701 l 60 363 b 152 87 60 247 90 155 b 397 -14 213 20 295 -14 b 646 87 500 -14 583 20 b 739 363 708 155 739 247 z m 604 586 l 604 363 b 550 161 604 276 586 208 b 397 90 514 113 463 90 b 248 161 333 90 283 113 b 195 363 213 208 195 276 l 195 586 b 247 787 195 673 213 740 b 395 859 282 835 331 859 b 549 787 461 859 513 835 b 604 586 586 740 604 673 z "},"ơ":{"ha":679,"x_min":0,"x_max":0,"o":"m 48 361 l 48 343 b 124 86 48 238 73 153 b 333 -14 175 20 244 -14 b 541 86 421 -14 490 20 b 616 343 591 153 616 238 l 616 361 b 612 426 616 383 615 405 b 602 488 610 447 606 468 b 701 581 645 507 678 538 b 735 737 724 623 735 675 l 628 737 b 612 643 628 700 623 669 b 564 584 601 617 585 597 b 468 683 539 626 507 660 b 332 719 428 707 383 719 b 124 618 244 719 175 685 b 48 361 73 552 48 466 z m 184 343 l 184 361 b 221 544 184 434 196 495 b 332 616 245 592 282 616 b 444 544 381 616 419 592 b 481 361 469 496 481 434 l 481 343 b 444 159 481 269 469 207 b 333 87 419 111 382 87 b 221 159 283 87 245 111 b 184 343 196 207 184 268 z "},"Ư":{"ha":859,"x_min":0,"x_max":0,"o":"m 721 949 l 586 949 l 586 321 b 534 149 586 248 569 190 b 397 87 500 108 454 87 b 264 149 342 87 297 108 b 214 321 230 190 214 248 l 214 949 l 79 949 l 79 321 b 167 75 79 216 108 134 b 397 -14 226 16 303 -14 b 631 75 493 -14 571 16 b 721 321 691 134 721 216 l 721 642 b 885 739 793 653 848 686 b 940 954 922 793 940 864 l 827 954 b 802 817 827 897 819 851 b 725 752 785 782 759 761 l 721 753 z "},"ư":{"ha":825,"x_min":0,"x_max":0,"o":"m 791 706 l 699 706 b 675 588 699 654 691 615 b 595 541 659 561 633 545 l 591 543 l 591 705 l 456 705 l 456 182 b 401 114 443 153 425 130 b 316 90 378 98 350 90 b 235 135 280 90 253 105 b 208 293 217 165 208 217 l 208 705 l 73 705 l 73 294 b 129 61 73 189 91 111 b 283 -14 166 11 217 -14 b 387 16 322 -14 357 -4 b 460 101 416 36 441 64 l 467 0 l 591 0 l 591 450 b 746 525 661 457 713 482 b 793 703 779 567 795 626 z "},"ǰ":{"ha":317,"x_min":0,"x_max":0,"o":"m 230 705 l 94 705 l 94 -48 b 75 -147 94 -90 88 -123 b 20 -182 61 -171 43 -182 b -9 -180 11 -182 2 -182 b -35 -174 -19 -178 -28 -176 l -44 -273 b -7 -282 -31 -277 -18 -280 b 28 -285 3 -284 15 -285 b 176 -223 91 -285 141 -264 b 230 -48 212 -182 230 -124 z m 216 850 l 284 966 l 199 979 l 102 915 z m 61 939 l 59 886 l 102 915 z m 61 939 l 62 945 l 59 945 l 58 941 z m 219 848 l 216 850 l 214 848 z "},"Ǻ":{"ha":746,"x_min":0,"x_max":0,"o":"m 519 240 l 589 0 l 730 0 l 441 949 l 310 949 l 19 0 l 159 0 l 229 240 z m 260 345 l 373 731 l 377 731 l 488 345 z m 262 1133 b 294 1056 262 1102 273 1076 b 373 1026 315 1036 342 1026 b 451 1056 404 1026 430 1036 b 484 1133 473 1076 484 1102 b 451 1211 484 1164 473 1190 b 373 1243 430 1232 404 1243 b 294 1211 342 1243 315 1232 b 262 1133 273 1190 262 1164 z m 323 1133 b 338 1171 323 1148 328 1161 b 373 1186 347 1181 359 1186 b 408 1171 387 1186 398 1181 b 422 1133 417 1161 422 1148 b 408 1097 422 1118 417 1106 b 373 1082 398 1087 387 1082 b 338 1097 359 1082 347 1087 b 323 1133 328 1106 323 1118 z m 424 1216 l 307 1042 l 420 1042 l 582 1212 l 580 1216 z "},"ǻ":{"ha":632,"x_min":0,"x_max":0,"o":"m 437 0 l 576 0 b 559 76 569 25 563 50 b 554 154 556 101 554 127 l 554 481 b 489 657 554 558 532 617 b 317 719 446 698 389 719 b 138 656 243 719 183 698 b 74 511 93 614 71 565 l 75 507 l 205 507 b 232 588 205 540 214 567 b 309 619 251 609 276 619 b 391 583 345 619 372 607 b 418 483 409 559 418 526 l 418 410 l 313 410 b 115 353 228 410 162 391 b 45 195 68 315 45 262 b 96 42 45 131 62 80 b 243 -14 131 5 180 -14 b 347 20 283 -14 317 -2 b 419 104 377 42 401 70 b 425 53 420 87 422 70 b 437 0 428 36 432 18 z m 272 89 b 204 118 243 89 220 99 b 180 195 188 137 180 163 b 214 289 180 232 191 264 b 311 327 237 314 269 327 l 418 327 l 418 199 b 365 121 409 169 392 143 b 272 89 338 100 307 89 z m 198 923 b 230 846 198 892 209 866 b 309 816 252 826 278 816 b 388 846 340 816 366 826 b 420 923 409 866 420 892 b 388 1001 420 954 409 980 b 309 1033 366 1022 340 1033 b 230 1001 278 1033 252 1022 b 198 923 209 980 198 954 z m 260 923 b 274 961 260 938 264 950 b 309 976 283 971 295 976 b 344 961 323 976 334 971 b 358 923 353 950 358 938 b 344 886 358 908 353 896 b 309 872 334 877 323 872 b 274 886 295 872 283 877 b 260 923 264 896 260 908 z m 360 1006 l 243 832 l 357 832 l 518 1002 l 516 1006 z "},"Ǽ":{"ha":1126,"x_min":0,"x_max":0,"o":"m 1082 0 l 1082 102 l 707 102 l 694 441 l 1001 441 l 1001 543 l 691 543 l 680 847 l 1048 847 l 1048 949 l 487 949 l 12 0 l 172 0 l 283 235 l 566 235 l 575 0 z m 336 347 l 542 783 l 545 781 l 562 347 z m 597 1216 l 481 1042 l 594 1042 l 755 1212 l 753 1216 z "},"ǽ":{"ha":1023,"x_min":0,"x_max":0,"o":"m 738 -14 b 870 12 788 -14 832 -5 b 962 68 909 28 939 47 l 922 155 b 842 105 895 133 868 116 b 747 87 817 93 785 87 b 621 153 690 87 648 109 b 579 326 594 197 580 254 l 975 326 l 975 406 b 907 635 975 502 952 579 b 720 719 863 691 800 719 b 613 696 681 719 645 711 b 530 633 581 682 553 660 b 449 697 508 661 481 682 b 338 719 416 712 379 719 b 154 659 261 719 200 699 b 89 508 108 619 87 569 l 90 504 l 219 494 b 251 581 219 529 230 558 b 337 616 272 605 301 616 b 414 577 371 616 396 603 b 441 467 432 550 441 514 l 441 410 l 322 410 b 121 354 234 410 167 391 b 52 198 75 317 52 265 b 108 43 52 132 71 81 b 268 -14 145 5 199 -14 b 414 19 325 -14 373 -3 b 508 100 454 41 485 68 b 604 16 533 64 565 36 b 738 -14 643 -4 687 -14 z m 294 83 b 214 114 259 83 232 93 b 187 195 196 134 187 161 b 223 284 187 230 199 260 b 323 320 247 308 280 320 l 441 320 l 441 168 b 376 109 425 146 404 126 b 294 83 348 92 321 83 z m 720 616 b 811 567 760 616 791 600 b 841 436 831 533 841 490 l 841 416 l 581 416 b 623 562 586 477 600 525 b 720 616 646 598 678 616 z m 564 1006 l 447 832 l 560 832 l 722 1002 l 720 1006 z "},"Ǿ":{"ha":802,"x_min":0,"x_max":0,"o":"m 739 363 l 739 585 b 716 736 739 640 732 691 b 651 854 701 782 680 821 l 720 987 l 640 987 l 596 904 b 504 948 569 923 538 938 b 395 963 470 958 434 963 b 151 861 293 963 212 929 b 60 585 90 793 60 701 l 60 363 b 87 197 60 302 69 246 b 165 74 105 148 131 107 l 96 -59 l 176 -59 l 222 30 b 303 -3 247 15 274 5 b 397 -14 332 -10 363 -14 b 646 87 500 -14 583 20 b 739 363 708 155 739 247 z m 195 363 l 195 586 b 247 787 195 673 213 740 b 395 859 282 835 331 859 b 477 843 426 859 453 853 b 541 798 502 833 523 817 l 230 200 l 226 201 b 203 271 216 220 208 243 b 195 363 198 298 195 329 z m 604 586 l 604 363 b 550 161 604 276 586 208 b 397 90 514 113 463 90 b 330 100 372 90 350 93 b 275 131 309 106 291 117 l 581 718 l 584 717 b 599 659 590 701 595 681 b 604 586 602 636 604 612 z m 453 1253 l 336 1080 l 450 1080 l 611 1249 l 609 1253 z "},"ǿ":{"ha":694,"x_min":0,"x_max":0,"o":"m 48 361 l 48 343 b 81 161 48 275 59 215 b 176 36 103 108 135 66 l 121 -90 l 202 -90 l 241 1 b 286 -9 255 -3 270 -7 b 333 -14 301 -12 317 -14 b 541 86 421 -14 490 20 b 616 343 591 153 616 238 l 616 361 b 591 522 616 420 608 473 b 518 644 574 571 550 612 l 581 791 l 500 791 l 457 689 b 397 711 438 699 418 706 b 332 719 377 716 355 719 b 124 618 244 719 175 685 b 48 361 73 552 48 466 z m 184 343 l 184 361 b 221 544 184 434 196 495 b 332 616 245 592 282 616 b 375 608 347 616 362 614 b 412 585 389 603 401 595 l 228 157 l 224 158 b 194 236 210 177 200 203 b 184 343 187 269 184 304 z m 481 361 l 481 343 b 444 159 481 269 469 207 b 333 87 419 111 382 87 b 306 90 323 87 315 88 b 283 98 298 91 290 94 l 456 501 l 460 500 b 476 438 467 483 472 462 b 481 361 480 413 481 387 z m 398 1078 l 281 904 l 395 904 l 556 1074 l 554 1078 z "},"Ș":{"ha":739,"x_min":0,"x_max":0,"o":"m 541 246 b 500 131 541 199 527 161 b 385 87 472 102 434 87 b 256 134 333 87 290 103 b 205 278 222 165 205 213 l 75 278 l 74 274 b 164 61 72 181 102 110 b 385 -14 226 11 300 -14 b 595 58 471 -14 542 10 b 675 248 649 106 675 169 b 607 421 675 320 653 378 b 406 528 562 465 495 501 b 270 604 341 552 296 578 b 231 707 244 631 231 665 b 267 818 231 752 243 789 b 374 861 291 847 326 861 b 489 810 422 861 461 844 b 532 675 518 776 532 731 l 662 675 l 663 680 b 587 882 665 760 640 828 b 375 963 534 936 464 963 b 172 891 291 963 223 939 b 96 706 121 843 96 781 b 166 529 96 632 119 573 b 370 422 213 485 281 449 b 504 349 434 399 479 374 b 541 246 529 323 541 289 z m 437 -184 l 437 -65 l 314 -65 l 314 -180 l 291 -347 l 370 -347 z "},"ș":{"ha":600,"x_min":0,"x_max":0,"o":"m 421 178 b 391 110 421 150 411 127 b 307 83 371 92 343 83 b 215 113 270 83 240 93 b 176 212 191 134 177 166 l 51 212 l 49 208 b 115 53 47 149 68 97 b 304 -14 161 9 224 -14 b 486 42 379 -14 439 5 b 555 184 532 79 555 126 b 498 314 555 236 536 280 b 328 404 460 348 403 378 b 221 464 273 429 237 448 b 196 527 204 479 196 500 b 225 593 196 552 206 574 b 306 622 245 612 271 622 b 388 585 340 622 367 610 b 418 499 408 561 418 532 l 548 499 l 549 503 b 484 656 551 563 529 614 b 306 719 439 698 380 719 b 131 661 234 719 176 700 b 64 522 87 623 64 576 b 120 398 64 472 83 430 b 287 309 157 366 213 336 b 393 247 339 286 375 265 b 421 178 412 228 421 205 z m 371 -184 l 371 -65 l 248 -65 l 248 -180 l 225 -347 l 304 -347 z "},"ȷ":{"ha":317,"x_min":0,"x_max":0,"o":"m 230 705 l 94 705 l 94 -48 b 75 -147 94 -90 88 -123 b 20 -182 61 -171 43 -182 b -9 -180 11 -182 2 -182 b -35 -174 -19 -178 -28 -176 l -44 -273 b -7 -282 -31 -277 -18 -280 b 28 -285 3 -284 15 -285 b 176 -223 91 -285 141 -264 b 230 -48 212 -182 230 -124 z "},"ʼ":{"ha":309,"x_min":0,"x_max":0,"o":"m 218 776 l 218 949 l 96 949 l 96 774 l 94 610 l 161 610 z "},"ˆ":{"ha":570,"x_min":0,"x_max":0,"o":"m 501 821 l 334 981 l 228 981 l 60 821 l 61 817 l 178 817 l 281 924 l 382 817 l 500 817 z "},"ˇ":{"ha":540,"x_min":0,"x_max":0,"o":"m 327 853 l 395 969 l 310 983 l 214 918 z m 172 942 l 170 889 l 214 918 z m 172 942 l 173 948 l 170 948 l 169 944 z m 330 851 l 327 853 l 326 851 z "},"˘":{"ha":538,"x_min":0,"x_max":0,"o":"m 452 949 l 351 949 b 330 880 351 921 344 898 b 266 852 316 861 294 852 b 201 879 236 852 215 861 b 180 949 187 897 180 921 l 79 949 l 77 945 b 126 820 75 894 91 853 b 266 772 160 788 207 772 b 405 820 324 772 371 788 b 454 945 439 853 456 894 z "},"˙":{"ha":340,"x_min":0,"x_max":0,"o":"m 239 821 l 239 951 l 88 951 l 88 821 z "},"˚":{"ha":415,"x_min":0,"x_max":0,"o":"m 95 853 b 127 776 95 822 106 796 b 206 746 149 756 175 746 b 284 776 237 746 263 756 b 317 853 306 796 317 822 b 284 931 317 884 306 910 b 206 963 263 952 237 963 b 127 931 175 963 149 952 b 95 853 106 910 95 884 z m 157 853 b 171 891 157 868 161 881 b 206 906 180 901 192 906 b 241 891 220 906 231 901 b 255 853 250 881 255 868 b 241 817 255 838 250 826 b 206 802 231 807 220 802 b 171 817 192 802 180 807 b 157 853 161 826 157 838 z "},"˛":{"ha":339,"x_min":0,"x_max":0,"o":"m 258 0 l 129 0 l 129 -23 b 49 -91 98 -33 71 -56 b 16 -219 27 -125 16 -168 b 17 -244 16 -227 17 -235 b 20 -270 18 -253 19 -262 l 293 -270 l 293 -188 l 152 -188 l 152 -173 b 184 -102 152 -143 163 -119 b 258 -74 206 -85 230 -75 z "},"˜":{"ha":566,"x_min":0,"x_max":0,"o":"m 487 968 l 414 988 b 397 934 414 966 408 948 b 359 912 387 919 374 912 b 278 944 339 912 312 923 b 195 976 244 965 216 976 b 110 933 160 976 132 962 b 76 832 87 905 76 871 l 150 814 b 165 867 150 835 155 853 b 203 889 175 882 188 889 b 280 857 223 889 248 878 b 368 825 312 836 341 825 b 453 866 402 825 430 839 b 487 968 476 894 487 928 z "},"˝":{"ha":475,"x_min":0,"x_max":0,"o":"m 389 990 l 249 820 l 251 817 l 363 817 l 529 986 l 527 990 z m 185 990 l 74 817 l 183 817 l 321 987 l 319 990 z "},"˳":{"ha":387,"x_min":0,"x_max":0,"o":"m 108 -151 b 137 -220 108 -179 118 -202 b 207 -246 156 -238 179 -246 b 276 -220 234 -246 257 -238 b 305 -151 295 -202 305 -179 b 276 -82 305 -124 295 -101 b 207 -54 257 -63 234 -54 b 137 -82 179 -54 156 -63 b 108 -151 118 -101 108 -124 z m 163 -151 b 175 -118 163 -138 167 -127 b 207 -104 184 -109 194 -104 b 237 -118 219 -104 229 -109 b 250 -151 246 -127 250 -138 b 237 -184 250 -165 246 -175 b 207 -197 229 -192 219 -197 b 175 -184 194 -197 184 -192 b 163 -151 167 -175 163 -165 z "},"̀":{"ha":303,"x_min":0,"x_max":0,"o":"m 207 824 l 127 1054 l 18 1054 l 17 1049 l 125 824 z "},"́":{"ha":303,"x_min":0,"x_max":0,"o":"m 212 1054 l 132 824 l 209 824 l 320 1049 l 318 1054 z "},"̃":{"ha":551,"x_min":0,"x_max":0,"o":"m 487 968 l 414 988 b 397 934 414 966 408 948 b 359 912 387 919 374 912 b 278 944 339 912 312 923 b 195 976 244 965 216 976 b 110 933 160 976 132 962 b 76 832 87 905 76 871 l 150 814 b 165 867 150 835 155 853 b 203 889 175 882 188 889 b 280 857 223 889 248 878 b 368 825 312 836 341 825 b 453 866 402 825 430 839 b 487 968 476 894 487 928 z "},"̏":{"ha":438,"x_min":0,"x_max":0,"o":"m 125 990 l 265 820 l 263 817 l 151 817 l -15 986 l -13 990 z m 329 990 l 440 817 l 331 817 l 193 987 l 195 990 z "},"΄":{"ha":395,"x_min":0,"x_max":0,"o":"m 132 989 l 159 829 l 237 829 l 267 989 z "},"΅":{"ha":622,"x_min":0,"x_max":0,"o":"m 522 829 l 522 949 l 394 949 l 387 829 z m 226 829 l 219 949 l 92 949 l 92 829 z m 237 1114 l 269 966 l 349 966 l 378 1114 z "},"Ά":{"ha":746,"x_min":0,"x_max":0,"o":"m 519 240 l 589 0 l 730 0 l 441 949 l 310 949 l 19 0 l 159 0 l 229 240 z m 260 345 l 373 731 l 377 731 l 488 345 z m 306 1205 l 333 1044 l 410 1044 l 441 1205 z "},"·":{"ha":336,"x_min":0,"x_max":0,"o":"m 232 395 l 232 535 l 94 535 l 94 395 z "},"Έ":{"ha":652,"x_min":0,"x_max":0,"o":"m 551 441 l 551 543 l 222 543 l 222 847 l 607 847 l 607 949 l 87 949 l 87 0 l 610 0 l 610 101 l 222 101 l 222 441 z m 280 1205 l 307 1044 l 385 1044 l 415 1205 z "},"Ή":{"ha":829,"x_min":0,"x_max":0,"o":"m 739 0 l 739 949 l 604 949 l 604 519 l 225 519 l 225 949 l 90 949 l 90 0 l 225 0 l 225 418 l 604 418 l 604 0 z m 345 1205 l 372 1044 l 449 1044 l 479 1205 z "},"Ί":{"ha":340,"x_min":0,"x_max":0,"o":"m 238 0 l 238 949 l 102 949 l 102 0 z m 103 1205 l 130 1044 l 208 1044 l 238 1205 z "},"Ό":{"ha":806,"x_min":0,"x_max":0,"o":"m 743 363 l 743 585 b 649 861 743 701 711 793 b 399 963 586 929 503 963 b 154 861 297 963 215 929 b 63 585 93 793 63 701 l 63 363 b 155 87 63 247 94 155 b 400 -14 216 20 298 -14 b 649 87 504 -14 587 20 b 743 363 711 155 743 247 z m 608 586 l 608 363 b 553 161 608 276 590 208 b 400 90 517 113 466 90 b 251 161 336 90 286 113 b 199 363 216 208 199 276 l 199 586 b 251 787 199 673 216 740 b 399 859 285 835 335 859 b 553 787 465 859 516 835 b 608 586 589 740 608 673 z m 336 1219 l 363 1058 l 440 1058 l 471 1219 z "},"Ύ":{"ha":746,"x_min":0,"x_max":0,"o":"m 370 486 l 167 949 l 16 949 l 302 351 l 302 0 l 438 0 l 438 343 l 727 949 l 576 949 l 374 486 z m 307 1205 l 334 1044 l 411 1044 l 441 1205 z "},"Ώ":{"ha":787,"x_min":0,"x_max":0,"o":"m 424 107 l 424 0 l 708 0 l 708 102 l 547 102 b 666 261 596 141 636 194 b 711 481 696 329 711 402 l 711 552 b 621 849 711 674 681 773 b 388 963 561 925 483 963 b 154 849 292 963 214 925 b 65 552 95 773 65 674 l 65 481 b 111 261 65 401 80 328 b 231 102 141 194 181 141 l 73 102 l 73 0 l 356 0 l 356 107 b 249 222 310 122 275 160 b 210 481 223 284 210 371 l 210 553 b 257 779 210 650 225 725 b 388 861 289 833 332 861 b 519 779 443 861 487 833 b 567 553 551 725 567 650 l 567 481 b 529 223 567 371 554 285 b 424 107 503 161 468 123 z m 326 1234 l 353 1073 l 431 1073 l 461 1234 z "},"ΐ":{"ha":389,"x_min":0,"x_max":0,"o":"m 232 705 l 96 705 l 96 191 b 138 35 96 120 110 68 b 259 -14 165 3 206 -14 b 314 -8 279 -14 298 -12 b 363 12 330 -5 346 2 l 344 102 b 314 92 331 97 321 94 b 289 90 307 90 299 90 b 247 111 270 90 256 97 b 232 187 237 125 232 151 z m 382 769 l 382 889 l 255 889 l 248 769 z m 87 769 l 80 889 l -47 889 l -47 769 z m 98 1053 l 130 905 l 210 905 l 239 1053 z "},"Α":{"ha":746,"x_min":0,"x_max":0,"o":"m 519 240 l 589 0 l 730 0 l 441 949 l 310 949 l 19 0 l 159 0 l 229 240 z m 260 345 l 373 731 l 377 731 l 488 345 z "},"Β":{"ha":746,"x_min":0,"x_max":0,"o":"m 87 0 l 411 0 b 622 69 501 0 571 23 b 698 269 673 115 698 181 b 653 421 698 327 683 378 b 523 500 623 465 579 491 b 618 576 564 517 595 542 b 652 694 640 610 652 649 b 573 885 652 779 626 843 b 357 949 521 928 449 949 l 87 949 z m 222 442 l 408 442 b 523 395 457 442 495 426 b 564 268 550 364 564 321 b 524 144 564 214 550 173 b 411 101 497 115 460 101 l 222 101 z m 222 539 l 222 847 l 357 847 b 475 808 409 847 448 834 b 516 691 503 783 516 743 b 477 578 516 642 503 604 b 370 539 452 552 416 539 z "},"Γ":{"ha":652,"x_min":0,"x_max":0,"o":"m 614 847 l 614 949 l 87 949 l 87 0 l 222 0 l 222 847 z "},"Δ":{"ha":845,"x_min":0,"x_max":0,"o":"m 361 949 l 18 0 l 822 0 l 492 949 z m 194 101 l 423 760 l 427 760 l 648 101 z "},"Ε":{"ha":652,"x_min":0,"x_max":0,"o":"m 551 441 l 551 543 l 222 543 l 222 847 l 607 847 l 607 949 l 87 949 l 87 0 l 610 0 l 610 101 l 222 101 l 222 441 z "},"Ζ":{"ha":664,"x_min":0,"x_max":0,"o":"m 195 101 l 604 870 l 604 949 l 54 949 l 54 847 l 456 847 l 51 82 l 51 0 l 616 0 l 616 101 z "},"Η":{"ha":829,"x_min":0,"x_max":0,"o":"m 739 0 l 739 949 l 604 949 l 604 519 l 225 519 l 225 949 l 90 949 l 90 0 l 225 0 l 225 418 l 604 418 l 604 0 z "},"Θ":{"ha":807,"x_min":0,"x_max":0,"o":"m 534 425 l 534 526 l 278 526 l 278 425 z m 743 363 l 743 585 b 649 861 743 701 711 793 b 399 963 586 929 503 963 b 154 861 297 963 215 929 b 63 585 93 793 63 701 l 63 363 b 155 87 63 247 94 155 b 400 -14 216 20 298 -14 b 649 87 504 -14 587 20 b 743 363 711 155 743 247 z m 608 586 l 608 363 b 553 161 608 276 590 208 b 400 90 517 113 466 90 b 251 161 336 90 286 113 b 199 363 216 208 199 276 l 199 586 b 251 787 199 673 216 740 b 399 859 285 835 335 859 b 553 787 465 859 516 835 b 608 586 589 740 608 673 z "},"Ι":{"ha":340,"x_min":0,"x_max":0,"o":"m 238 0 l 238 949 l 102 949 l 102 0 z "},"Κ":{"ha":746,"x_min":0,"x_max":0,"o":"m 300 427 l 565 0 l 736 0 l 405 504 l 712 949 l 548 949 l 292 533 l 223 533 l 223 949 l 88 949 l 88 0 l 223 0 l 223 427 z "},"Λ":{"ha":768,"x_min":0,"x_max":0,"o":"m 384 776 l 602 0 l 742 0 l 448 949 l 317 949 l 23 0 l 163 0 l 380 776 z "},"Μ":{"ha":985,"x_min":0,"x_max":0,"o":"m 492 176 l 260 949 l 84 949 l 84 0 l 218 0 l 218 698 l 222 699 l 448 0 l 540 0 l 762 684 l 766 684 l 766 0 l 901 0 l 901 949 l 728 949 l 496 176 z "},"Ν":{"ha":829,"x_min":0,"x_max":0,"o":"m 739 0 l 739 949 l 604 949 l 604 251 l 600 250 l 225 949 l 90 949 l 90 0 l 225 0 l 225 699 l 229 699 l 604 0 z "},"Ξ":{"ha":671,"x_min":0,"x_max":0,"o":"m 65 101 l 65 0 l 612 0 l 612 101 z m 121 534 l 121 434 l 553 434 l 553 534 z m 73 949 l 73 847 l 597 847 l 597 949 z "},"Ο":{"ha":806,"x_min":0,"x_max":0,"o":"m 743 363 l 743 585 b 649 861 743 701 711 793 b 399 963 586 929 503 963 b 154 861 297 963 215 929 b 63 585 93 793 63 701 l 63 363 b 155 87 63 247 94 155 b 400 -14 216 20 298 -14 b 649 87 504 -14 587 20 b 743 363 711 155 743 247 z m 608 586 l 608 363 b 553 161 608 276 590 208 b 400 90 517 113 466 90 b 251 161 336 90 286 113 b 199 363 216 208 199 276 l 199 586 b 251 787 199 673 216 740 b 399 859 285 835 335 859 b 553 787 465 859 516 835 b 608 586 589 740 608 673 z "},"Π":{"ha":829,"x_min":0,"x_max":0,"o":"m 739 0 l 739 949 l 90 949 l 90 0 l 224 0 l 224 847 l 604 847 l 604 0 z "},"Ρ":{"ha":746,"x_min":0,"x_max":0,"o":"m 222 361 l 403 361 b 619 443 495 361 567 389 b 697 655 671 497 697 568 b 618 867 697 741 671 812 b 403 949 566 922 494 949 l 87 949 l 87 0 l 222 0 z m 222 463 l 222 847 l 403 847 b 522 791 455 847 495 828 b 562 654 548 754 562 708 b 522 518 562 600 548 555 b 403 463 495 482 455 463 z "},"Σ":{"ha":671,"x_min":0,"x_max":0,"o":"m 452 475 l 452 492 l 208 847 l 608 847 l 608 949 l 43 949 l 43 867 l 309 484 l 43 83 l 43 0 l 630 0 l 630 102 l 204 102 z "},"Τ":{"ha":692,"x_min":0,"x_max":0,"o":"m 669 847 l 669 949 l 22 949 l 22 847 l 277 847 l 277 0 l 413 0 l 413 847 z "},"Υ":{"ha":746,"x_min":0,"x_max":0,"o":"m 370 486 l 167 949 l 16 949 l 302 351 l 302 0 l 438 0 l 438 343 l 727 949 l 576 949 l 374 486 z "},"Φ":{"ha":848,"x_min":0,"x_max":0,"o":"m 494 806 l 494 949 l 359 949 l 359 806 b 133 706 267 802 192 768 b 45 469 74 643 45 564 b 133 233 45 374 74 295 b 359 134 191 171 267 138 l 359 0 l 494 0 l 494 135 b 720 234 586 139 661 172 b 808 470 778 296 808 375 b 720 706 808 565 778 644 b 494 806 661 768 586 802 z m 178 469 b 226 631 178 536 194 590 b 355 696 257 673 301 694 l 359 695 l 359 245 l 355 244 b 226 307 301 245 257 266 b 178 469 194 347 178 401 z m 674 470 b 627 308 674 403 658 348 b 498 244 595 267 552 245 l 494 245 l 494 695 l 498 696 b 627 632 552 694 595 673 b 674 470 658 591 674 537 z "},"Χ":{"ha":746,"x_min":0,"x_max":0,"o":"m 370 579 l 195 949 l 36 949 l 292 479 l 30 0 l 190 0 l 372 378 l 376 378 l 559 0 l 718 0 l 454 479 l 712 949 l 551 949 l 374 579 z "},"Ψ":{"ha":835,"x_min":0,"x_max":0,"o":"m 481 331 l 481 949 l 345 949 l 345 332 l 341 330 b 224 411 292 338 253 365 b 180 591 195 456 180 516 l 180 949 l 45 949 l 45 591 b 126 331 45 482 72 396 b 345 220 181 267 253 230 l 345 0 l 481 0 l 481 221 b 700 333 573 231 646 269 b 782 591 755 397 782 483 l 782 949 l 646 949 l 646 591 b 603 409 646 515 632 454 b 485 330 575 363 535 337 z "},"Ω":{"ha":787,"x_min":0,"x_max":0,"o":"m 424 107 l 424 0 l 708 0 l 708 102 l 547 102 b 666 261 596 141 636 194 b 711 481 696 329 711 402 l 711 552 b 621 849 711 674 681 773 b 388 963 561 925 483 963 b 154 849 292 963 214 925 b 65 552 95 773 65 674 l 65 481 b 111 261 65 401 80 328 b 231 102 141 194 181 141 l 73 102 l 73 0 l 356 0 l 356 107 b 249 222 310 122 275 160 b 210 481 223 284 210 371 l 210 553 b 257 779 210 650 225 725 b 388 861 289 833 332 861 b 519 779 443 861 487 833 b 567 553 551 725 567 650 l 567 481 b 529 223 567 371 554 285 b 424 107 503 161 468 123 z "},"Ϊ":{"ha":340,"x_min":0,"x_max":0,"o":"m 238 0 l 238 949 l 102 949 l 102 0 z m 393 1044 l 393 1164 l 249 1164 l 249 1044 z m 92 1044 l 92 1164 l -53 1164 l -53 1044 z "},"Ϋ":{"ha":746,"x_min":0,"x_max":0,"o":"m 370 486 l 167 949 l 16 949 l 302 351 l 302 0 l 438 0 l 438 343 l 727 949 l 576 949 l 374 486 z m 597 1044 l 597 1164 l 452 1164 l 452 1044 z m 296 1044 l 296 1164 l 151 1164 l 151 1044 z "},"ά":{"ha":666,"x_min":0,"x_max":0,"o":"m 581 705 l 488 705 l 462 623 b 390 694 442 654 418 678 b 294 719 362 711 330 719 b 116 616 217 719 158 685 b 52 345 73 548 52 458 l 52 331 b 115 80 52 227 73 143 b 292 -14 157 18 216 -14 b 390 9 329 -14 362 -6 b 461 77 417 25 441 47 b 509 8 472 45 488 23 b 591 -14 531 -6 558 -14 b 629 -9 605 -14 618 -12 b 665 4 641 -7 653 -2 l 652 98 b 639 95 647 96 643 95 b 625 94 635 94 630 94 b 592 113 611 94 600 100 b 581 184 585 126 581 150 z m 187 331 l 187 345 b 221 541 187 425 199 490 b 328 616 244 591 280 616 b 398 594 355 616 378 609 b 446 532 417 579 434 559 l 446 184 l 446 168 b 398 109 434 142 418 123 b 326 87 378 94 354 87 b 221 154 278 87 243 110 b 187 331 198 198 187 257 z m 292 995 l 319 834 l 396 834 l 427 995 z "},"έ":{"ha":648,"x_min":0,"x_max":0,"o":"m 58 197 b 135 44 58 132 84 81 b 331 -12 185 6 251 -12 b 517 43 403 -12 465 6 b 592 202 569 80 594 133 l 591 206 l 462 206 b 425 120 462 172 449 143 b 326 85 400 97 367 85 b 229 118 284 85 252 96 b 194 200 205 139 194 167 b 227 286 194 238 205 267 b 324 313 249 304 282 313 l 435 313 l 435 407 l 324 407 b 234 434 284 407 254 416 b 204 511 214 453 204 478 b 235 588 204 541 214 567 b 327 618 256 608 286 618 b 416 588 363 618 392 608 b 452 509 440 567 452 541 l 581 509 l 582 513 b 512 661 584 573 561 623 b 331 718 463 699 403 718 b 140 664 251 718 187 700 b 69 515 93 629 69 579 b 98 426 69 482 79 452 b 180 362 118 399 145 378 b 89 299 140 348 110 327 b 58 197 69 272 58 237 z m 260 994 l 288 833 l 365 833 l 395 994 z "},"ή":{"ha":667,"x_min":0,"x_max":0,"o":"m 199 705 l 75 705 l 75 0 l 210 0 l 210 530 b 262 594 223 557 240 579 b 340 616 284 609 310 616 b 425 575 378 616 406 603 b 454 433 444 547 454 500 l 454 -271 l 590 -271 l 590 435 b 537 651 590 534 572 606 b 386 719 501 696 451 719 b 282 689 347 719 313 709 b 206 604 252 669 227 640 z m 264 995 l 292 834 l 369 834 l 399 995 z "},"ί":{"ha":389,"x_min":0,"x_max":0,"o":"m 232 705 l 96 705 l 96 191 b 138 35 96 120 110 68 b 259 -14 165 3 206 -14 b 314 -8 279 -14 298 -12 b 363 12 330 -5 346 2 l 344 102 b 314 92 331 97 321 94 b 289 90 307 90 299 90 b 247 111 270 90 256 97 b 232 187 237 125 232 151 z m 104 981 l 131 821 l 208 821 l 239 981 z "},"ΰ":{"ha":667,"x_min":0,"x_max":0,"o":"m 211 705 l 75 705 l 75 309 b 146 66 75 200 99 119 b 345 -14 193 13 260 -14 b 549 89 438 -14 506 21 b 612 359 591 157 612 247 b 588 549 612 429 604 493 b 524 705 572 605 551 657 l 390 705 b 452 532 416 647 436 590 b 477 358 467 474 475 416 b 444 166 477 283 466 219 b 339 87 421 114 387 87 b 245 140 300 87 269 105 b 211 308 222 175 211 231 z m 555 770 l 555 890 l 427 890 l 420 770 z m 259 770 l 252 890 l 125 890 l 125 770 z m 270 1054 l 302 906 l 382 906 l 411 1054 z "},"α":{"ha":666,"x_min":0,"x_max":0,"o":"m 581 705 l 488 705 l 462 623 b 390 694 442 654 418 678 b 294 719 362 711 330 719 b 116 616 217 719 158 685 b 52 345 73 548 52 458 l 52 331 b 115 80 52 227 73 143 b 292 -14 157 18 216 -14 b 390 9 329 -14 362 -6 b 461 77 417 25 441 47 b 509 8 472 45 488 23 b 591 -14 531 -6 558 -14 b 629 -9 605 -14 618 -12 b 665 4 641 -7 653 -2 l 652 98 b 639 95 647 96 643 95 b 625 94 635 94 630 94 b 592 113 611 94 600 100 b 581 184 585 126 581 150 z m 187 331 l 187 345 b 221 541 187 425 199 490 b 328 616 244 591 280 616 b 398 594 355 616 378 609 b 446 532 417 579 434 559 l 446 184 l 446 168 b 398 109 434 142 418 123 b 326 87 378 94 354 87 b 221 154 278 87 243 110 b 187 331 198 198 187 257 z "},"β":{"ha":705,"x_min":0,"x_max":0,"o":"m 355 963 b 167 884 281 963 218 937 b 90 690 115 832 90 767 l 90 -296 l 224 -296 l 224 44 b 302 1 247 25 273 10 b 392 -14 332 -9 362 -14 b 579 61 470 -14 532 11 b 649 269 626 111 649 180 b 609 418 649 326 636 376 b 497 510 583 461 545 491 b 581 593 532 530 560 558 b 611 708 601 628 611 666 b 541 893 611 784 588 846 b 355 963 494 940 432 963 z m 352 551 l 309 551 l 309 453 l 377 453 b 477 400 420 453 453 435 b 513 268 501 365 513 321 b 474 137 513 214 500 170 b 368 87 448 104 413 87 b 286 103 337 87 310 93 b 224 148 261 113 241 128 l 224 690 b 261 812 224 739 237 780 b 355 861 286 844 317 861 b 444 815 393 861 423 845 b 475 707 465 785 475 749 b 445 591 475 657 465 618 b 352 551 425 564 394 551 z "},"γ":{"ha":597,"x_min":0,"x_max":0,"o":"m 440 705 l 315 212 l 303 156 l 299 156 l 288 212 l 161 705 l 20 705 l 233 24 l 233 -272 l 368 -272 l 368 24 l 580 705 z "},"δ":{"ha":667,"x_min":0,"x_max":0,"o":"m 551 949 l 109 949 l 109 863 l 282 714 b 111 598 209 701 152 662 b 49 361 69 533 49 454 l 49 343 b 125 86 49 238 74 153 b 334 -14 175 20 245 -14 b 541 86 421 -14 491 20 b 617 343 592 153 617 238 l 617 361 b 581 551 617 432 605 496 b 477 678 556 607 522 649 l 289 845 l 290 849 l 551 849 z m 332 616 b 445 544 382 616 419 592 b 482 361 470 496 482 434 l 482 343 b 445 159 482 269 470 207 b 334 87 420 111 383 87 b 221 159 283 87 246 111 b 184 343 196 207 184 269 l 184 361 b 221 544 184 434 196 496 b 332 616 245 592 283 616 z "},"ε":{"ha":648,"x_min":0,"x_max":0,"o":"m 58 197 b 135 44 58 132 84 81 b 331 -12 185 6 251 -12 b 517 43 403 -12 465 6 b 592 202 569 80 594 133 l 591 206 l 462 206 b 425 120 462 172 449 143 b 326 85 400 97 367 85 b 229 118 284 85 252 96 b 194 200 205 139 194 167 b 227 286 194 238 205 267 b 324 313 249 304 282 313 l 435 313 l 435 407 l 324 407 b 234 434 284 407 254 416 b 204 511 214 453 204 478 b 235 588 204 541 214 567 b 327 618 256 608 286 618 b 416 588 363 618 392 608 b 452 509 440 567 452 541 l 581 509 l 582 513 b 512 661 584 573 561 623 b 331 718 463 699 403 718 b 140 664 251 718 187 700 b 69 515 93 629 69 579 b 98 426 69 482 79 452 b 180 362 118 399 145 378 b 89 299 140 348 110 327 b 58 197 69 272 58 237 z "},"ζ":{"ha":604,"x_min":0,"x_max":0,"o":"m 553 949 l 54 949 l 54 848 l 404 848 l 245 629 b 127 421 193 555 153 486 b 89 243 102 357 89 297 b 144 69 89 173 107 115 b 307 0 182 23 236 0 l 338 0 b 404 -17 368 0 391 -6 b 425 -68 418 -29 425 -46 b 398 -139 425 -96 416 -119 b 337 -184 381 -158 361 -173 l 386 -271 b 506 -189 434 -254 474 -227 b 555 -60 537 -152 554 -109 b 506 59 555 -8 538 31 b 372 100 473 87 429 100 l 345 100 b 254 140 304 100 274 114 b 224 253 234 166 224 204 b 253 407 224 309 234 360 b 349 576 272 454 304 511 l 553 877 z "},"η":{"ha":667,"x_min":0,"x_max":0,"o":"m 199 705 l 75 705 l 75 0 l 210 0 l 210 530 b 262 594 223 557 240 579 b 340 616 284 609 310 616 b 425 575 378 616 406 603 b 454 433 444 547 454 500 l 454 -271 l 590 -271 l 590 435 b 537 651 590 534 572 606 b 386 719 501 696 451 719 b 282 689 347 719 313 709 b 206 604 252 669 227 640 z "},"θ":{"ha":685,"x_min":0,"x_max":0,"o":"m 610 335 l 610 614 b 536 869 610 722 585 806 b 339 963 487 932 421 963 b 143 869 257 963 191 932 b 70 614 94 806 70 722 l 70 335 b 143 80 70 227 94 142 b 340 -14 192 18 258 -14 b 537 80 423 -14 488 18 b 610 335 585 142 610 227 z m 474 431 l 474 319 b 439 149 474 247 463 190 b 340 87 416 108 383 87 b 240 150 297 87 264 108 b 205 319 217 191 205 248 l 205 431 z m 205 533 l 205 630 b 240 799 205 701 216 758 b 339 861 263 840 296 861 b 439 799 382 861 416 840 b 474 630 462 758 474 702 l 474 533 z "},"ι":{"ha":389,"x_min":0,"x_max":0,"o":"m 232 705 l 96 705 l 96 191 b 138 35 96 120 110 68 b 259 -14 165 3 206 -14 b 314 -8 279 -14 298 -12 b 363 12 330 -5 346 2 l 344 102 b 314 92 331 97 321 94 b 289 90 307 90 299 90 b 247 111 270 90 256 97 b 232 187 237 125 232 151 z "},"κ":{"ha":677,"x_min":0,"x_max":0,"o":"m 281 297 l 475 0 l 648 0 l 388 374 l 633 705 l 465 705 l 271 411 l 218 411 l 218 705 l 83 705 l 83 0 l 218 0 l 218 297 z "},"λ":{"ha":652,"x_min":0,"x_max":0,"o":"m 169 0 l 291 456 l 300 500 l 304 500 l 408 176 b 476 44 426 121 448 77 b 586 -8 504 11 540 -6 b 615 -6 595 -8 604 -7 b 642 0 625 -4 634 -2 l 648 99 b 633 96 642 97 637 96 b 619 96 629 96 624 96 b 576 126 603 97 588 107 b 545 202 563 146 553 171 l 338 814 b 270 938 321 862 299 904 b 144 990 240 973 199 990 b 111 987 133 990 122 989 b 73 979 99 984 87 982 l 76 884 b 95 886 80 885 87 885 b 114 888 103 887 109 888 b 171 856 136 888 155 877 b 210 774 187 835 200 807 l 243 686 l 22 0 z "},"μ":{"ha":699,"x_min":0,"x_max":0,"o":"m 222 705 l 86 705 l 86 -271 l 222 -271 l 222 28 b 273 -3 237 14 254 3 b 337 -14 292 -10 314 -14 b 417 5 367 -14 393 -7 b 477 59 440 17 460 35 l 482 0 l 606 0 l 606 705 l 470 705 l 470 181 b 420 112 458 151 442 128 b 337 88 399 96 371 88 b 251 132 300 88 271 103 b 222 297 232 162 222 217 z "},"ν":{"ha":597,"x_min":0,"x_max":0,"o":"m 288 212 l 161 705 l 20 705 l 241 0 l 361 0 l 580 705 l 440 705 l 315 212 l 303 156 l 299 156 z "},"ξ":{"ha":617,"x_min":0,"x_max":0,"o":"m 588 949 l 39 949 l 39 846 l 170 846 b 109 776 143 828 123 804 b 87 676 94 747 87 714 b 124 563 87 633 100 595 b 228 487 149 530 183 505 b 109 402 175 469 136 441 b 68 262 81 364 68 317 b 145 62 68 176 94 110 b 351 -9 197 14 266 -9 l 391 -9 b 451 -29 418 -9 438 -16 b 471 -84 464 -42 471 -60 b 444 -155 471 -112 462 -136 b 382 -199 425 -174 405 -189 l 427 -281 b 548 -200 476 -263 517 -236 b 595 -71 579 -164 595 -121 b 546 51 595 -18 579 23 b 409 92 513 78 467 92 l 355 92 b 243 138 308 92 271 107 b 203 259 216 169 203 209 b 247 391 203 317 218 361 b 378 435 277 420 321 435 l 459 435 l 459 538 l 376 538 b 259 577 323 538 284 551 b 222 687 235 603 222 640 b 255 797 222 731 233 768 b 354 846 277 826 310 842 l 588 846 z "},"ο":{"ha":667,"x_min":0,"x_max":0,"o":"m 48 361 l 48 343 b 124 86 48 238 73 153 b 333 -14 175 20 244 -14 b 541 86 421 -14 490 20 b 616 343 591 153 616 238 l 616 361 b 541 618 616 466 591 552 b 332 719 490 685 420 719 b 124 618 244 719 175 685 b 48 361 73 552 48 466 z m 184 343 l 184 361 b 221 544 184 434 196 495 b 332 616 245 592 282 616 b 444 544 381 616 419 592 b 481 361 469 496 481 434 l 481 343 b 444 159 481 269 469 207 b 333 87 419 111 382 87 b 221 159 283 87 245 111 b 184 343 196 207 184 268 z "},"π":{"ha":734,"x_min":0,"x_max":0,"o":"m 670 606 l 670 705 l 48 705 l 48 606 l 138 606 l 138 0 l 273 0 l 273 606 z m 618 705 l 482 705 l 482 191 b 524 35 482 120 496 68 b 645 -14 551 3 592 -14 b 700 -8 665 -14 683 -12 b 749 12 716 -5 732 2 l 730 102 b 700 92 717 97 707 94 b 675 90 693 90 685 90 b 632 111 656 90 642 97 b 618 187 623 125 618 151 z "},"ρ":{"ha":667,"x_min":0,"x_max":0,"o":"m 614 331 l 614 345 b 545 617 614 458 591 549 b 345 719 498 685 432 719 b 150 630 265 719 200 689 b 76 384 101 570 76 488 l 77 381 l 76 381 l 76 -271 l 211 -271 l 211 63 b 281 6 230 38 254 19 b 376 -14 308 -7 340 -14 b 551 80 451 -14 509 18 b 614 331 593 143 614 227 z m 479 345 l 479 331 b 445 154 479 257 467 198 b 339 87 422 110 387 87 b 261 110 308 87 282 95 b 211 172 240 124 223 145 l 211 376 b 244 544 211 439 222 496 b 340 616 266 592 298 616 b 445 541 388 616 423 591 b 479 345 468 491 479 425 z "},"ς":{"ha":621,"x_min":0,"x_max":0,"o":"m 327 719 b 122 618 240 719 171 685 b 49 365 73 551 49 467 l 49 340 b 125 92 49 239 74 157 b 341 -5 176 27 248 -5 b 409 -24 373 -5 395 -12 b 430 -77 423 -36 430 -54 b 404 -145 430 -104 421 -127 b 342 -191 387 -164 366 -179 l 391 -277 b 511 -196 439 -260 479 -233 b 559 -68 543 -159 559 -117 b 509 53 559 -16 543 25 b 361 95 475 81 426 95 b 227 163 300 95 255 118 b 184 340 199 209 184 268 l 184 365 b 219 544 184 436 196 496 b 327 616 242 592 278 616 b 415 573 365 616 395 602 b 446 458 436 545 446 506 l 568 458 l 570 463 b 505 650 572 542 550 604 b 327 719 459 696 400 719 z "},"σ":{"ha":672,"x_min":0,"x_max":0,"o":"m 659 603 l 659 705 l 332 705 b 124 609 244 705 175 673 b 48 361 73 544 48 462 l 48 343 b 124 86 48 238 73 153 b 333 -14 175 20 244 -14 b 537 83 419 -14 487 19 b 612 323 587 148 612 228 l 612 340 b 576 487 612 391 600 440 b 481 603 551 533 520 572 z m 184 343 l 184 361 b 220 533 184 430 196 487 b 332 603 245 579 282 602 l 332 603 b 440 534 380 603 416 580 b 477 361 465 488 477 430 l 477 343 b 440 159 477 269 465 207 b 333 87 416 111 380 87 b 221 159 283 87 245 111 b 184 343 196 207 184 268 z "},"τ":{"ha":618,"x_min":0,"x_max":0,"o":"m 579 604 l 579 705 l 40 705 l 40 604 l 240 604 l 240 0 l 376 0 l 376 604 z "},"υ":{"ha":667,"x_min":0,"x_max":0,"o":"m 211 705 l 75 705 l 75 309 b 146 66 75 200 99 119 b 345 -14 193 13 260 -14 b 549 89 438 -14 506 21 b 612 359 591 157 612 247 b 588 549 612 429 604 493 b 524 705 572 605 551 657 l 390 705 b 452 532 416 647 436 590 b 477 358 467 474 475 416 b 444 166 477 283 466 219 b 339 87 421 114 387 87 b 245 140 300 87 269 105 b 211 308 222 175 211 231 z "},"φ":{"ha":854,"x_min":0,"x_max":0,"o":"m 490 705 l 355 705 l 355 102 l 351 101 b 219 192 290 112 247 143 b 178 370 192 242 178 301 b 198 537 179 426 186 481 b 247 705 210 593 226 649 l 115 705 b 63 553 93 658 76 608 b 43 371 50 499 43 438 b 118 113 43 268 68 182 b 355 -9 168 44 247 3 l 355 -312 l 490 -312 l 490 -10 b 730 104 599 1 679 39 b 808 345 782 170 808 250 b 720 601 808 446 778 532 b 490 705 661 671 585 705 z m 672 345 b 629 182 672 282 658 227 b 494 99 600 136 555 109 l 490 100 l 490 596 l 494 597 b 623 527 548 600 592 576 b 672 345 655 477 671 416 z "},"χ":{"ha":652,"x_min":0,"x_max":0,"o":"m 105 714 b 69 711 93 714 81 713 b 34 704 57 709 45 707 l 36 609 b 58 612 44 610 51 611 b 75 613 64 613 70 613 b 134 582 97 613 116 603 b 175 500 151 561 165 533 l 273 234 l 55 -271 l 192 -271 l 334 58 l 338 57 l 393 -95 b 460 -231 412 -154 434 -200 b 564 -281 486 -263 520 -279 b 592 -279 573 -281 582 -280 b 619 -273 603 -277 611 -276 l 625 -173 b 610 -175 619 -174 614 -175 b 597 -176 606 -175 602 -176 b 555 -146 581 -174 567 -164 b 522 -70 544 -127 533 -102 l 410 236 l 612 705 l 475 705 l 349 412 l 345 413 l 298 542 b 229 664 281 589 258 630 b 105 714 200 697 159 714 z "},"ψ":{"ha":851,"x_min":0,"x_max":0,"o":"m 486 705 l 351 705 l 351 104 l 347 102 b 229 186 297 111 258 139 b 185 385 200 232 185 299 l 185 705 l 50 705 l 50 386 b 128 107 50 265 76 172 b 351 -9 181 42 255 3 l 351 -302 l 486 -302 l 486 -10 b 728 113 597 2 678 43 b 804 377 779 183 804 271 b 785 557 804 444 798 504 b 733 705 772 611 754 660 l 602 705 b 650 540 622 649 638 594 b 669 377 661 486 668 431 b 626 194 669 307 655 246 b 490 100 596 143 551 112 l 486 102 z "},"ω":{"ha":1007,"x_min":0,"x_max":0,"o":"m 280 705 l 145 705 b 81 548 118 657 97 605 b 58 359 66 492 58 429 b 117 89 58 247 77 157 b 307 -14 157 21 220 -14 b 427 23 353 -14 393 -1 b 503 132 460 48 486 84 b 580 23 521 84 546 47 b 700 -14 613 -1 653 -14 b 889 89 787 -14 850 21 b 949 359 929 157 949 247 b 925 549 949 429 941 493 b 861 705 909 605 888 657 l 727 705 b 789 532 753 647 773 590 b 814 358 804 474 812 416 b 785 163 814 279 804 214 b 694 87 766 113 735 87 b 606 142 657 87 628 106 b 573 312 584 178 573 235 l 573 515 l 433 515 l 433 312 b 400 141 433 234 422 177 b 312 87 378 105 349 87 b 221 164 270 87 240 113 b 193 358 202 215 193 279 b 217 532 194 416 202 474 b 280 705 232 590 253 648 z "},"ϊ":{"ha":389,"x_min":0,"x_max":0,"o":"m 232 705 l 96 705 l 96 191 b 138 35 96 120 110 68 b 259 -14 165 3 206 -14 b 314 -8 279 -14 298 -12 b 363 12 330 -5 346 2 l 344 102 b 314 92 331 97 321 94 b 289 90 307 90 299 90 b 247 111 270 90 256 97 b 232 187 237 125 232 151 z m 394 821 l 394 941 l 250 941 l 250 821 z m 93 821 l 93 941 l -52 941 l -52 821 z "},"ϋ":{"ha":667,"x_min":0,"x_max":0,"o":"m 211 705 l 75 705 l 75 309 b 146 66 75 200 99 119 b 345 -14 193 13 260 -14 b 549 89 438 -14 506 21 b 612 359 591 157 612 247 b 588 549 612 429 604 493 b 524 705 572 605 551 657 l 390 705 b 452 532 416 647 436 590 b 477 358 467 474 475 416 b 444 166 477 283 466 219 b 339 87 421 114 387 87 b 245 140 300 87 269 105 b 211 308 222 175 211 231 z m 566 821 l 566 941 l 422 941 l 422 821 z m 265 821 l 265 941 l 120 941 l 120 821 z "},"ό":{"ha":667,"x_min":0,"x_max":0,"o":"m 48 361 l 48 343 b 124 86 48 238 73 153 b 333 -14 175 20 244 -14 b 541 86 421 -14 490 20 b 616 343 591 153 616 238 l 616 361 b 541 618 616 466 591 552 b 332 719 490 685 420 719 b 124 618 244 719 175 685 b 48 361 73 552 48 466 z m 184 343 l 184 361 b 221 544 184 434 196 495 b 332 616 245 592 282 616 b 444 544 381 616 419 592 b 481 361 469 496 481 434 l 481 343 b 444 159 481 269 469 207 b 333 87 419 111 382 87 b 221 159 283 87 245 111 b 184 343 196 207 184 268 z m 265 995 l 292 834 l 370 834 l 400 995 z "},"ύ":{"ha":667,"x_min":0,"x_max":0,"o":"m 211 705 l 75 705 l 75 309 b 146 66 75 200 99 119 b 345 -14 193 13 260 -14 b 549 89 438 -14 506 21 b 612 359 591 157 612 247 b 588 549 612 429 604 493 b 524 705 572 605 551 657 l 390 705 b 452 532 416 647 436 590 b 477 358 467 474 475 416 b 444 166 477 283 466 219 b 339 87 421 114 387 87 b 245 140 300 87 269 105 b 211 308 222 175 211 231 z m 276 982 l 303 821 l 380 821 l 411 982 z "},"ώ":{"ha":1007,"x_min":0,"x_max":0,"o":"m 280 705 l 145 705 b 81 548 118 657 97 605 b 58 359 66 492 58 429 b 117 89 58 247 77 157 b 307 -14 157 21 220 -14 b 427 23 353 -14 393 -1 b 503 132 460 48 486 84 b 580 23 521 84 546 47 b 700 -14 613 -1 653 -14 b 889 89 787 -14 850 21 b 949 359 929 157 949 247 b 925 549 949 429 941 493 b 861 705 909 605 888 657 l 727 705 b 789 532 753 647 773 590 b 814 358 804 474 812 416 b 785 163 814 279 804 214 b 694 87 766 113 735 87 b 606 142 657 87 628 106 b 573 312 584 178 573 235 l 573 515 l 433 515 l 433 312 b 400 141 433 234 422 177 b 312 87 378 105 349 87 b 221 164 270 87 240 113 b 193 358 202 215 193 279 b 217 532 194 416 202 474 b 280 705 232 590 253 648 z m 436 982 l 463 821 l 541 821 l 571 982 z "},"ϒ":{"ha":662,"x_min":0,"x_max":0,"o":"m 437 800 l 344 536 l 332 486 l 328 486 l 317 536 l 222 802 b 151 924 201 859 177 900 b 51 959 125 947 92 959 b 18 956 39 959 28 958 b -8 943 9 953 0 949 l 5 846 b 15 850 6 847 10 848 b 31 852 21 851 26 852 b 69 836 46 852 58 846 b 97 781 80 825 89 807 l 262 366 l 262 0 l 397 0 l 397 362 l 564 781 b 590 836 570 807 579 825 b 629 852 601 846 614 852 b 645 850 634 852 639 851 b 656 846 650 848 654 847 l 669 943 b 642 956 660 949 651 953 b 609 959 632 958 621 959 b 509 923 568 959 535 947 b 437 800 482 899 459 858 z "},"ϖ":{"ha":951,"x_min":0,"x_max":0,"o":"m 933 612 l 933 705 l 28 705 l 28 612 l 103 612 b 73 494 90 575 80 536 b 62 359 66 452 62 407 b 116 89 62 247 80 157 b 288 -14 152 21 209 -14 b 402 22 331 -14 369 -2 b 477 129 434 46 459 82 b 551 22 494 82 519 46 b 666 -14 583 -2 621 -14 b 837 89 744 -14 801 21 b 890 359 873 157 890 247 b 879 494 890 407 887 452 b 849 612 872 536 862 576 z m 755 358 b 733 164 755 279 748 214 b 663 92 718 114 694 90 l 659 92 b 577 142 625 90 597 106 b 547 312 557 177 547 234 l 547 471 l 407 471 l 407 312 b 376 142 407 234 397 177 b 295 92 355 106 328 90 l 291 92 b 220 164 259 90 235 114 b 197 358 205 215 197 279 b 210 486 198 401 203 443 b 243 612 218 528 229 570 l 710 612 b 742 485 724 569 734 527 b 755 358 750 442 754 400 z "},"Ѐ":{"ha":652,"x_min":0,"x_max":0,"o":"m 551 441 l 551 543 l 222 543 l 222 847 l 607 847 l 607 949 l 87 949 l 87 0 l 610 0 l 610 101 l 222 101 l 222 441 z m 412 1044 l 298 1217 l 141 1217 l 140 1214 l 294 1044 z "},"Ё":{"ha":652,"x_min":0,"x_max":0,"o":"m 551 441 l 551 543 l 222 543 l 222 847 l 607 847 l 607 949 l 87 949 l 87 0 l 610 0 l 610 101 l 222 101 l 222 441 z m 570 1044 l 570 1164 l 426 1164 l 426 1044 z m 269 1044 l 269 1164 l 124 1164 l 124 1044 z "},"Ђ":{"ha":887,"x_min":0,"x_max":0,"o":"m 683 847 l 683 949 l 36 949 l 36 847 l 291 847 l 291 0 l 427 0 l 427 470 l 587 470 b 722 418 644 470 689 453 b 772 267 755 384 771 334 b 739 142 771 220 760 178 b 642 65 718 107 686 81 l 691 -24 b 852 91 762 -7 815 32 b 907 267 888 151 907 209 b 819 496 907 366 877 442 b 587 576 760 549 683 576 l 427 576 l 427 847 z "},"Ѓ":{"ha":652,"x_min":0,"x_max":0,"o":"m 614 847 l 614 949 l 87 949 l 87 0 l 222 0 l 222 847 z m 401 1216 l 284 1042 l 397 1042 l 559 1212 l 557 1216 z "},"Є":{"ha":768,"x_min":0,"x_max":0,"o":"m 517 438 l 517 540 l 212 540 l 212 589 b 261 789 212 675 229 741 b 398 861 294 837 339 861 b 533 810 458 861 503 844 b 579 656 564 775 579 724 l 708 656 l 709 660 b 629 884 711 757 684 831 b 398 964 573 937 496 964 b 164 863 300 964 222 930 b 77 588 106 795 77 704 l 77 361 b 165 87 77 245 106 154 b 402 -13 225 20 304 -13 b 629 69 498 -13 574 14 b 709 292 684 123 711 198 l 708 296 l 578 296 b 534 139 578 226 564 173 b 402 88 504 105 460 88 b 262 160 342 88 295 112 b 212 361 229 208 212 275 l 212 438 z "},"Ѕ":{"ha":739,"x_min":0,"x_max":0,"o":"m 541 246 b 500 131 541 199 527 161 b 385 87 472 102 434 87 b 256 134 333 87 290 103 b 205 278 222 165 205 213 l 75 278 l 74 274 b 164 61 72 181 102 110 b 385 -14 226 11 300 -14 b 595 58 471 -14 542 10 b 675 248 649 106 675 169 b 607 421 675 320 653 378 b 406 528 562 465 495 501 b 270 604 341 552 296 578 b 231 707 244 631 231 665 b 267 818 231 752 243 789 b 374 861 291 847 326 861 b 489 810 422 861 461 844 b 532 675 518 776 532 731 l 662 675 l 663 680 b 587 882 665 760 640 828 b 375 963 534 936 464 963 b 172 891 291 963 223 939 b 96 706 121 843 96 781 b 166 529 96 632 119 573 b 370 422 213 485 281 449 b 504 349 434 399 479 374 b 541 246 529 323 541 289 z "},"І":{"ha":340,"x_min":0,"x_max":0,"o":"m 238 0 l 238 949 l 102 949 l 102 0 z "},"Ї":{"ha":340,"x_min":0,"x_max":0,"o":"m 238 0 l 238 949 l 102 949 l 102 0 z m 393 1044 l 393 1164 l 249 1164 l 249 1044 z m 92 1044 l 92 1164 l -53 1164 l -53 1044 z "},"Ј":{"ha":652,"x_min":0,"x_max":0,"o":"m 427 949 l 427 281 b 391 140 427 222 415 175 b 301 87 368 105 338 87 b 203 132 259 87 226 102 b 168 267 179 161 168 206 l 37 267 l 35 263 b 105 57 33 173 57 105 b 301 -14 153 10 219 -14 b 490 66 378 -14 441 13 b 563 281 538 119 563 191 l 563 949 z "},"Љ":{"ha":1255,"x_min":0,"x_max":0,"o":"m 739 949 l 218 949 l 216 513 b 180 191 215 359 203 251 b 58 101 157 131 116 101 l 35 101 l 35 0 l 62 0 b 281 122 162 0 235 41 b 351 513 328 203 351 333 l 352 847 l 604 847 l 604 0 l 913 0 b 1131 80 1005 0 1078 27 b 1210 290 1183 134 1210 204 b 1130 499 1210 375 1183 445 b 913 580 1077 553 1005 580 l 739 580 z m 739 479 l 913 479 b 1033 424 966 479 1006 460 b 1074 291 1061 387 1074 343 b 1033 156 1074 238 1061 193 b 913 101 1006 119 966 101 l 739 101 z "},"Њ":{"ha":1255,"x_min":0,"x_max":0,"o":"m 224 531 l 224 949 l 90 949 l 90 0 l 224 0 l 224 430 l 604 430 l 604 0 l 913 0 b 1130 78 1005 0 1077 26 b 1209 282 1183 131 1209 198 b 1130 484 1209 365 1183 433 b 913 561 1077 535 1005 561 l 739 561 l 739 949 l 604 949 l 604 531 z m 739 460 l 913 460 b 1033 409 966 460 1006 443 b 1074 283 1060 375 1074 333 b 1033 156 1074 232 1060 190 b 913 104 1006 122 966 104 l 739 104 z "},"Ћ":{"ha":893,"x_min":0,"x_max":0,"o":"m 693 847 l 693 949 l 46 949 l 46 847 l 301 847 l 301 0 l 437 0 l 437 471 l 515 471 b 637 426 571 471 612 456 b 675 272 663 396 675 345 l 675 0 l 810 0 l 810 272 b 734 500 810 376 785 452 b 515 573 684 549 611 573 l 437 573 l 437 847 z "},"Ќ":{"ha":408,"x_min":0,"x_max":0,"o":"m 192 990 l 75 817 l 189 817 l 350 986 l 348 990 z "},"Ѝ":{"ha":826,"x_min":0,"x_max":0,"o":"m 602 949 l 227 254 l 223 254 l 223 949 l 87 949 l 87 0 l 223 0 l 598 696 l 602 695 l 602 0 l 737 0 l 737 949 z m 477 1044 l 363 1217 l 207 1217 l 205 1214 l 360 1044 z "},"Ў":{"ha":753,"x_min":0,"x_max":0,"o":"m 349 483 l 176 949 l 27 949 l 317 247 l 298 195 b 255 117 288 162 273 136 b 180 87 236 97 211 87 b 134 93 166 87 151 89 b 89 108 118 97 103 102 l 73 13 b 129 -6 90 5 108 -2 b 194 -14 149 -11 170 -14 b 331 34 253 -14 299 2 b 415 165 363 66 391 110 l 722 949 l 572 949 l 378 410 l 374 410 z m 562 1222 l 460 1222 b 439 1152 460 1194 453 1170 b 375 1125 425 1134 404 1125 b 310 1152 346 1125 324 1134 b 290 1222 296 1170 290 1193 l 188 1222 l 186 1218 b 235 1093 184 1167 200 1125 b 375 1044 270 1061 316 1044 b 514 1093 433 1044 480 1061 b 563 1218 548 1125 565 1167 z "},"Џ":{"ha":826,"x_min":0,"x_max":0,"o":"m 86 949 l 86 0 l 401 0 l 401 -192 l 536 -192 l 536 0 l 736 0 l 736 949 l 600 949 l 600 102 l 222 102 l 222 949 z "},"А":{"ha":746,"x_min":0,"x_max":0,"o":"m 519 240 l 589 0 l 730 0 l 441 949 l 310 949 l 19 0 l 159 0 l 229 240 z m 260 345 l 373 731 l 377 731 l 488 345 z "},"Б":{"ha":741,"x_min":0,"x_max":0,"o":"m 614 847 l 614 949 l 87 949 l 87 0 l 397 0 b 614 81 489 0 561 27 b 693 290 667 135 693 204 b 614 497 693 375 667 444 b 397 576 561 550 489 576 l 222 576 l 222 847 z m 222 475 l 397 475 b 517 421 450 475 490 457 b 558 291 544 386 558 342 b 517 156 558 238 544 193 b 397 101 490 119 450 101 l 222 101 z "},"В":{"ha":746,"x_min":0,"x_max":0,"o":"m 87 0 l 411 0 b 622 69 501 0 571 23 b 698 269 673 115 698 181 b 653 421 698 327 683 378 b 523 500 623 465 579 491 b 618 576 564 517 595 542 b 652 694 640 610 652 649 b 573 885 652 779 626 843 b 357 949 521 928 449 949 l 87 949 z m 222 442 l 408 442 b 523 395 457 442 495 426 b 564 268 550 364 564 321 b 524 144 564 214 550 173 b 411 101 497 115 460 101 l 222 101 z m 222 539 l 222 847 l 357 847 b 475 808 409 847 448 834 b 516 691 503 783 516 743 b 477 578 516 642 503 604 b 370 539 452 552 416 539 z "},"Г":{"ha":652,"x_min":0,"x_max":0,"o":"m 614 847 l 614 949 l 87 949 l 87 0 l 222 0 l 222 847 z "},"Д":{"ha":869,"x_min":0,"x_max":0,"o":"m 851 -124 l 851 101 l 754 101 l 754 949 l 306 949 l 264 581 b 197 216 247 415 224 293 b 73 101 169 139 128 101 l 22 101 l 22 -124 l 157 -124 l 157 0 l 716 0 l 716 -124 z m 399 581 l 429 847 l 619 847 l 619 101 l 266 101 b 349 291 300 148 327 211 b 399 581 370 371 387 467 z "},"Е":{"ha":652,"x_min":0,"x_max":0,"o":"m 551 441 l 551 543 l 222 543 l 222 847 l 607 847 l 607 949 l 87 949 l 87 0 l 610 0 l 610 101 l 222 101 l 222 441 z "},"Ж":{"ha":1021,"x_min":0,"x_max":0,"o":"m 622 431 l 840 0 l 1008 0 l 730 509 l 991 949 l 826 949 l 618 537 l 581 537 l 581 949 l 446 949 l 446 537 l 404 537 l 194 949 l 29 949 l 292 509 l 12 0 l 181 0 l 400 431 l 446 431 l 446 0 l 581 0 l 581 431 z "},"З":{"ha":784,"x_min":0,"x_max":0,"o":"m 388 534 l 279 534 l 279 433 l 388 433 b 531 391 451 433 499 419 b 580 260 564 363 580 320 b 527 135 580 208 562 167 b 380 87 491 103 442 87 b 247 138 326 87 281 104 b 196 263 213 171 196 213 l 67 263 l 65 259 b 156 56 63 170 93 102 b 380 -14 218 10 293 -14 b 622 59 479 -14 560 11 b 715 262 684 108 715 175 b 673 402 715 317 701 364 b 553 486 645 440 605 468 b 663 572 599 507 636 535 b 703 694 689 609 703 650 b 616 893 703 780 674 847 b 380 963 558 940 479 963 b 162 891 293 963 221 939 b 77 703 103 843 75 780 l 79 699 l 208 699 b 257 815 208 746 225 785 b 380 861 290 845 331 861 b 519 814 441 861 488 845 b 567 696 551 784 567 744 b 523 577 567 645 552 606 b 388 534 494 549 449 534 z "},"И":{"ha":826,"x_min":0,"x_max":0,"o":"m 602 949 l 227 254 l 223 254 l 223 949 l 87 949 l 87 0 l 223 0 l 598 696 l 602 695 l 602 0 l 737 0 l 737 949 z "},"Й":{"ha":826,"x_min":0,"x_max":0,"o":"m 602 949 l 227 254 l 223 254 l 223 949 l 87 949 l 87 0 l 223 0 l 598 696 l 602 695 l 602 0 l 737 0 l 737 949 z m 601 1222 l 499 1222 b 478 1152 499 1194 492 1170 b 414 1125 464 1134 443 1125 b 350 1152 385 1125 363 1134 b 329 1222 336 1170 329 1193 l 227 1222 l 226 1218 b 274 1093 224 1167 240 1125 b 414 1044 309 1061 356 1044 b 553 1093 473 1044 519 1061 b 602 1218 588 1125 604 1167 z "},"К":{"ha":746,"x_min":0,"x_max":0,"o":"m 300 427 l 565 0 l 736 0 l 405 504 l 712 949 l 548 949 l 292 533 l 223 533 l 223 949 l 88 949 l 88 0 l 223 0 l 223 427 z "},"Л":{"ha":829,"x_min":0,"x_max":0,"o":"m 739 949 l 218 949 l 216 513 b 180 191 215 359 203 251 b 58 101 157 131 116 101 l 35 101 l 35 0 l 62 0 b 281 122 162 0 235 41 b 351 513 328 203 351 333 l 352 847 l 604 847 l 604 0 l 739 0 z "},"М":{"ha":985,"x_min":0,"x_max":0,"o":"m 492 176 l 260 949 l 84 949 l 84 0 l 218 0 l 218 698 l 222 699 l 448 0 l 540 0 l 762 684 l 766 684 l 766 0 l 901 0 l 901 949 l 728 949 l 496 176 z "},"Н":{"ha":829,"x_min":0,"x_max":0,"o":"m 739 0 l 739 949 l 604 949 l 604 519 l 225 519 l 225 949 l 90 949 l 90 0 l 225 0 l 225 418 l 604 418 l 604 0 z "},"О":{"ha":806,"x_min":0,"x_max":0,"o":"m 743 363 l 743 585 b 649 861 743 701 711 793 b 399 963 586 929 503 963 b 154 861 297 963 215 929 b 63 585 93 793 63 701 l 63 363 b 155 87 63 247 94 155 b 400 -14 216 20 298 -14 b 649 87 504 -14 587 20 b 743 363 711 155 743 247 z m 608 586 l 608 363 b 553 161 608 276 590 208 b 400 90 517 113 466 90 b 251 161 336 90 286 113 b 199 363 216 208 199 276 l 199 586 b 251 787 199 673 216 740 b 399 859 285 835 335 859 b 553 787 465 859 516 835 b 608 586 589 740 608 673 z "},"П":{"ha":829,"x_min":0,"x_max":0,"o":"m 739 0 l 739 949 l 90 949 l 90 0 l 224 0 l 224 847 l 604 847 l 604 0 z "},"Р":{"ha":746,"x_min":0,"x_max":0,"o":"m 222 361 l 403 361 b 619 443 495 361 567 389 b 697 655 671 497 697 568 b 618 867 697 741 671 812 b 403 949 566 922 494 949 l 87 949 l 87 0 l 222 0 z m 222 463 l 222 847 l 403 847 b 522 791 455 847 495 828 b 562 654 548 754 562 708 b 522 518 562 600 548 555 b 403 463 495 482 455 463 z "},"С":{"ha":750,"x_min":0,"x_max":0,"o":"m 696 295 l 567 295 b 523 139 567 225 552 173 b 391 87 493 105 449 87 b 251 159 330 87 284 111 b 201 361 217 207 201 274 l 201 589 b 250 789 201 674 217 741 b 387 861 282 837 328 861 b 522 809 446 861 491 843 b 568 655 552 775 568 723 l 696 655 l 698 659 b 617 884 700 756 673 831 b 387 963 562 937 485 963 b 153 862 289 963 211 929 b 65 587 94 795 65 703 l 65 361 b 154 86 65 245 95 153 b 391 -14 213 20 292 -14 b 617 68 486 -14 562 14 b 698 291 673 123 700 197 z "},"Т":{"ha":692,"x_min":0,"x_max":0,"o":"m 669 847 l 669 949 l 22 949 l 22 847 l 277 847 l 277 0 l 413 0 l 413 847 z "},"У":{"ha":753,"x_min":0,"x_max":0,"o":"m 349 483 l 176 949 l 27 949 l 317 247 l 298 195 b 255 117 288 162 273 136 b 180 87 236 97 211 87 b 134 93 166 87 151 89 b 89 108 118 97 103 102 l 73 13 b 129 -6 90 5 108 -2 b 194 -14 149 -11 170 -14 b 331 34 253 -14 299 2 b 415 165 363 66 391 110 l 722 949 l 572 949 l 378 410 l 374 410 z "},"Ф":{"ha":848,"x_min":0,"x_max":0,"o":"m 494 806 l 494 949 l 359 949 l 359 806 b 133 706 267 802 192 768 b 45 469 74 643 45 564 b 133 233 45 374 74 295 b 359 134 191 171 267 138 l 359 0 l 494 0 l 494 135 b 720 234 586 139 661 172 b 808 470 778 296 808 375 b 720 706 808 565 778 644 b 494 806 661 768 586 802 z m 178 469 b 226 631 178 536 194 590 b 355 696 257 673 301 694 l 359 695 l 359 245 l 355 244 b 226 307 301 245 257 266 b 178 469 194 347 178 401 z m 674 470 b 627 308 674 403 658 348 b 498 244 595 267 552 245 l 494 245 l 494 695 l 498 696 b 627 632 552 694 595 673 b 674 470 658 591 674 537 z "},"Х":{"ha":746,"x_min":0,"x_max":0,"o":"m 370 579 l 195 949 l 36 949 l 292 479 l 30 0 l 190 0 l 372 378 l 376 378 l 559 0 l 718 0 l 454 479 l 712 949 l 551 949 l 374 579 z "},"Ц":{"ha":886,"x_min":0,"x_max":0,"o":"m 213 949 l 213 0 l 831 0 l 831 -200 l 966 -200 l 966 104 l 863 104 l 863 949 l 728 949 l 728 102 l 348 102 l 348 949 z "},"Ч":{"ha":777,"x_min":0,"x_max":0,"o":"m 686 949 l 551 949 l 551 484 l 376 484 b 253 528 319 484 278 499 b 215 680 228 557 215 607 l 215 949 l 79 949 l 79 680 b 155 453 79 576 104 500 b 376 382 205 406 279 382 l 551 382 l 551 0 l 686 0 z "},"Ш":{"ha":1204,"x_min":0,"x_max":0,"o":"m 222 949 l 87 949 l 87 0 l 1122 0 l 1122 949 l 986 949 l 986 101 l 673 101 l 673 949 l 538 949 l 538 101 l 222 101 z "},"Щ":{"ha":1267,"x_min":0,"x_max":0,"o":"m 222 949 l 87 949 l 87 0 l 1122 0 l 1122 949 l 986 949 l 986 101 l 673 101 l 673 949 l 538 949 l 538 101 l 222 101 z m 1400 -202 l 1400 102 l 1265 102 l 1265 -202 z "},"Ъ":{"ha":828,"x_min":0,"x_max":0,"o":"m 50 949 l 50 848 l 196 848 l 196 0 l 506 0 b 722 81 597 0 669 27 b 802 290 775 135 802 204 b 723 497 802 375 775 444 b 506 576 670 550 598 576 l 331 576 l 331 949 z m 331 475 l 506 475 b 626 421 558 475 598 457 b 667 291 653 386 667 342 b 626 156 667 238 653 193 b 506 101 598 119 558 101 l 331 101 z "},"Ы":{"ha":1010,"x_min":0,"x_max":0,"o":"m 222 576 l 222 949 l 87 949 l 87 0 l 397 0 b 614 81 489 0 561 27 b 693 290 667 135 693 204 b 614 497 693 375 667 444 b 397 576 561 550 489 576 z m 1035 0 l 1035 949 l 899 949 l 899 0 z m 222 475 l 397 475 b 517 421 450 475 490 457 b 558 291 544 386 558 342 b 517 156 558 238 544 193 b 397 101 490 119 450 101 l 222 101 z "},"Ь":{"ha":739,"x_min":0,"x_max":0,"o":"m 222 576 l 222 949 l 87 949 l 87 0 l 397 0 b 614 81 489 0 561 27 b 693 290 667 135 693 204 b 614 497 693 375 667 444 b 397 576 561 550 489 576 z m 222 475 l 397 475 b 517 421 450 475 490 457 b 558 291 544 386 558 342 b 517 156 558 238 544 193 b 397 101 490 119 450 101 l 222 101 z "},"Э":{"ha":767,"x_min":0,"x_max":0,"o":"m 83 645 l 212 645 b 255 806 212 715 226 769 b 385 861 284 843 327 861 b 520 777 442 861 487 833 b 569 559 553 721 569 648 l 569 540 l 277 540 l 277 438 l 569 438 l 569 389 b 520 172 569 300 553 228 b 385 88 487 116 442 88 b 255 143 327 88 284 107 b 212 303 226 180 212 234 l 82 303 l 80 299 b 159 70 78 201 105 124 b 385 -13 214 15 289 -13 b 616 100 480 -13 557 25 b 704 390 675 175 704 271 l 704 559 b 616 850 704 677 675 774 b 385 964 557 926 480 964 b 160 877 290 964 215 935 b 81 649 105 820 79 743 z "},"Ю":{"ha":1084,"x_min":0,"x_max":0,"o":"m 1062 363 l 1062 585 b 968 861 1062 701 1031 793 b 718 963 905 929 822 963 b 474 861 616 963 535 929 b 382 585 413 793 382 701 l 382 528 l 238 528 l 238 949 l 102 949 l 102 0 l 238 0 l 238 427 l 382 427 l 382 363 b 474 87 382 247 413 155 b 720 -14 536 20 617 -14 b 968 87 823 -14 906 20 b 1062 363 1031 155 1062 247 z m 927 586 l 927 363 b 873 161 927 276 909 208 b 720 90 837 113 786 90 b 571 161 655 90 606 113 b 518 363 536 208 518 276 l 518 586 b 570 787 518 673 535 740 b 718 859 605 835 654 859 b 872 787 784 859 836 835 b 927 586 909 740 927 673 z "},"Я":{"ha":694,"x_min":0,"x_max":0,"o":"m 153 0 l 321 394 l 487 394 l 487 0 l 622 0 l 622 949 l 346 949 b 126 877 252 949 179 925 b 46 673 73 828 46 761 b 84 530 46 618 59 570 b 197 435 110 489 147 458 l 7 0 z m 487 847 l 487 493 l 343 493 b 223 543 291 493 251 510 b 182 672 196 576 182 619 b 223 801 182 727 196 770 b 346 847 251 832 292 847 z "},"а":{"ha":632,"x_min":0,"x_max":0,"o":"m 437 0 l 576 0 b 559 76 569 25 563 50 b 554 154 556 101 554 127 l 554 481 b 489 657 554 558 532 617 b 317 719 446 698 389 719 b 138 656 243 719 183 698 b 74 511 93 614 71 565 l 75 507 l 205 507 b 232 588 205 540 214 567 b 309 619 251 609 276 619 b 391 583 345 619 372 607 b 418 483 409 559 418 526 l 418 410 l 313 410 b 115 353 228 410 162 391 b 45 195 68 315 45 262 b 96 42 45 131 62 80 b 243 -14 131 5 180 -14 b 347 20 283 -14 317 -2 b 419 104 377 42 401 70 b 425 53 420 87 422 70 b 437 0 428 36 432 18 z m 272 89 b 204 118 243 89 220 99 b 180 195 188 137 180 163 b 214 289 180 232 191 264 b 311 327 237 314 269 327 l 418 327 l 418 199 b 365 121 409 169 392 143 b 272 89 338 100 307 89 z "},"б":{"ha":657,"x_min":0,"x_max":0,"o":"m 337 719 b 241 694 304 719 272 710 b 165 629 211 677 185 656 l 163 632 b 220 762 168 686 187 729 b 346 825 253 795 295 816 b 517 876 427 836 484 853 b 564 1009 550 898 566 943 l 563 1013 l 459 1013 b 431 956 459 985 450 966 b 335 930 412 945 380 937 b 121 801 241 918 169 875 b 49 480 73 727 49 620 l 49 343 b 125 86 49 238 74 153 b 334 -14 175 20 245 -14 b 541 86 421 -14 491 20 b 617 343 592 153 617 238 l 617 361 b 542 618 617 466 592 552 b 337 719 492 685 424 719 z m 332 616 b 444 544 382 616 419 592 b 481 361 469 496 481 434 l 481 343 b 444 159 481 269 469 207 b 334 87 419 111 382 87 b 221 159 283 87 246 111 b 184 343 197 207 184 268 l 184 361 b 221 544 184 434 197 495 b 332 616 246 592 283 616 z "},"в":{"ha":667,"x_min":0,"x_max":0,"o":"m 81 0 l 370 0 b 552 50 448 0 509 17 b 616 199 595 84 616 133 b 579 302 616 238 604 273 b 476 362 555 332 520 352 b 559 421 512 375 539 395 b 589 513 579 448 589 478 b 521 657 589 576 566 624 b 331 705 476 689 412 705 l 81 705 z m 216 311 l 370 311 b 453 283 407 311 434 301 b 480 205 471 264 480 238 b 452 127 480 171 471 145 b 370 100 434 109 406 100 l 216 100 z m 216 404 l 216 604 l 331 604 b 423 579 372 604 402 596 b 454 503 443 562 454 537 b 424 429 454 470 444 445 b 334 404 403 412 373 404 z "},"г":{"ha":441,"x_min":0,"x_max":0,"o":"m 414 603 l 414 705 l 75 705 l 75 0 l 210 0 l 210 603 z "},"д":{"ha":761,"x_min":0,"x_max":0,"o":"m 99 101 l 43 101 l 43 -124 l 178 -124 l 178 0 l 583 0 l 583 -124 l 718 -124 l 718 101 l 637 101 l 637 705 l 242 705 l 217 437 b 179 178 207 316 194 229 b 99 101 164 127 137 101 z m 353 437 l 367 595 l 503 595 l 503 101 l 277 101 b 324 236 297 136 312 181 b 353 437 335 291 345 358 z "},"е":{"ha":618,"x_min":0,"x_max":0,"o":"m 342 -14 b 468 8 389 -14 431 -6 b 552 59 504 23 532 40 l 518 145 b 443 103 493 127 468 113 b 351 87 417 93 386 87 b 224 156 293 87 251 110 b 183 334 197 201 183 261 l 573 334 l 573 412 b 509 637 573 507 552 583 b 326 719 466 692 405 719 b 125 619 243 719 176 686 b 48 364 74 553 48 468 l 48 334 b 126 83 48 231 74 147 b 342 -14 178 19 250 -14 z m 326 616 b 412 569 365 616 393 601 b 439 442 430 538 439 496 l 439 426 l 186 426 b 231 564 192 483 207 529 b 326 616 255 599 286 616 z "},"ж":{"ha":903,"x_min":0,"x_max":0,"o":"m 558 301 l 715 0 l 888 0 l 664 380 l 872 705 l 704 705 l 554 414 l 519 414 l 519 705 l 383 705 l 383 414 l 349 414 l 199 705 l 31 705 l 239 380 l 16 0 l 188 0 l 344 301 l 383 301 l 383 0 l 519 0 l 519 301 z "},"з":{"ha":648,"x_min":0,"x_max":0,"o":"m 326 408 l 218 408 l 218 313 l 326 313 b 422 285 368 313 400 303 b 455 200 444 267 455 238 b 420 117 455 167 443 139 b 323 85 397 96 365 85 b 225 120 282 85 250 96 b 189 206 201 143 189 172 l 60 206 l 59 202 b 133 43 57 133 81 80 b 319 -12 185 6 247 -12 b 515 43 399 -12 464 6 b 591 197 565 80 591 132 b 559 299 591 237 580 271 b 469 362 539 327 509 348 b 550 425 503 377 530 398 b 579 515 569 452 579 482 b 509 664 579 579 556 629 b 319 718 462 700 398 718 b 138 661 247 718 187 699 b 69 513 89 623 66 573 l 71 509 l 199 509 b 235 588 199 541 211 567 b 323 618 258 608 288 618 b 414 588 364 618 394 608 b 444 511 434 567 444 541 b 415 435 444 478 434 453 b 326 408 395 417 365 408 z "},"и":{"ha":667,"x_min":0,"x_max":0,"o":"m 456 705 l 214 225 l 210 226 l 210 705 l 75 705 l 75 0 l 210 0 l 452 479 l 456 479 l 456 0 l 592 0 l 592 705 z "},"й":{"ha":667,"x_min":0,"x_max":0,"o":"m 456 705 l 214 225 l 210 226 l 210 705 l 75 705 l 75 0 l 210 0 l 452 479 l 456 479 l 456 0 l 592 0 l 592 705 z m 521 998 l 419 998 b 398 928 419 970 412 946 b 334 901 384 910 363 901 b 270 928 305 901 283 910 b 249 998 256 946 249 969 l 147 998 l 146 994 b 194 869 144 943 160 901 b 334 821 229 837 276 821 b 473 869 393 821 439 837 b 522 994 508 901 524 943 z "},"к":{"ha":656,"x_min":0,"x_max":0,"o":"m 280 297 l 465 0 l 639 0 l 387 375 l 623 705 l 454 705 l 271 411 l 218 411 l 218 705 l 83 705 l 83 0 l 218 0 l 218 297 z "},"л":{"ha":651,"x_min":0,"x_max":0,"o":"m 592 705 l 163 705 l 163 399 b 139 172 163 291 155 216 b 54 107 123 129 94 107 l 33 106 l 33 0 l 62 0 b 243 97 146 0 206 32 b 298 399 280 161 298 262 l 298 603 l 456 603 l 456 0 l 592 0 z "},"м":{"ha":886,"x_min":0,"x_max":0,"o":"m 437 163 l 254 705 l 84 705 l 84 0 l 219 0 l 219 469 l 223 469 l 394 0 l 486 0 l 656 466 l 661 465 l 661 0 l 795 0 l 795 705 l 627 705 l 441 163 z "},"н":{"ha":667,"x_min":0,"x_max":0,"o":"m 591 0 l 591 705 l 456 705 l 456 401 l 210 401 l 210 705 l 75 705 l 75 0 l 210 0 l 210 301 l 456 301 l 456 0 z "},"о":{"ha":667,"x_min":0,"x_max":0,"o":"m 48 361 l 48 343 b 124 86 48 238 73 153 b 333 -14 175 20 244 -14 b 541 86 421 -14 490 20 b 616 343 591 153 616 238 l 616 361 b 541 618 616 466 591 552 b 332 719 490 685 420 719 b 124 618 244 719 175 685 b 48 361 73 552 48 466 z m 184 343 l 184 361 b 221 544 184 434 196 495 b 332 616 245 592 282 616 b 444 544 381 616 419 592 b 481 361 469 496 481 434 l 481 343 b 444 159 481 269 469 207 b 333 87 419 111 382 87 b 221 159 283 87 245 111 b 184 343 196 207 184 268 z "},"п":{"ha":667,"x_min":0,"x_max":0,"o":"m 592 0 l 592 705 l 75 705 l 75 0 l 210 0 l 210 603 l 456 603 l 456 0 z "},"р":{"ha":667,"x_min":0,"x_max":0,"o":"m 616 331 l 616 345 b 552 616 616 458 595 548 b 374 719 510 685 450 719 b 275 693 336 719 303 710 b 203 621 246 676 222 652 l 191 705 l 76 705 l 76 -271 l 211 -271 l 211 69 b 281 7 230 42 254 21 b 376 -14 308 -7 340 -14 b 552 80 451 -14 510 18 b 616 331 595 143 616 227 z m 480 345 l 480 331 b 445 154 480 257 469 198 b 339 87 422 110 387 87 b 261 110 308 87 282 95 b 211 172 240 124 223 145 l 211 523 b 261 590 223 551 240 574 b 338 614 282 606 307 614 b 445 539 385 614 421 589 b 480 345 468 489 480 424 z "},"с":{"ha":623,"x_min":0,"x_max":0,"o":"m 328 87 b 219 159 278 87 242 111 b 184 340 196 207 184 267 l 184 365 b 219 544 184 436 196 496 b 327 616 242 592 278 616 b 413 572 362 616 391 602 b 446 458 435 543 446 505 l 568 458 l 570 463 b 504 647 572 538 550 599 b 327 719 458 695 399 719 b 122 618 240 719 171 685 b 49 365 73 551 49 467 l 49 340 b 122 86 49 238 73 153 b 328 -14 171 20 240 -14 b 500 55 394 -14 452 9 b 570 222 548 101 571 157 l 568 227 l 446 227 b 412 125 446 184 435 150 b 328 87 389 100 361 87 z "},"т":{"ha":610,"x_min":0,"x_max":0,"o":"m 576 604 l 576 705 l 37 705 l 37 604 l 237 604 l 237 0 l 372 0 l 372 604 z "}}}
